<?xml version="1.0" encoding="UTF-8"?>
<svg id="Layer_1" data-name="Layer 1" xmlns="http://www.w3.org/2000/svg" viewBox="0 0 1401.22 2068">
  <defs>
    <style>
      .cls-1 {
        fill: none;
      }

      .cls-2 {
        fill: #91c02c;
      }

      .cls-3 {
        fill: #ffee41;
      }

      .cls-4 {
        fill: #6eb200;
      }

      .cls-5 {
        fill: #ffc303;
      }

      .cls-6 {
        fill: #ffad00;
      }
    </style>
  </defs>
  <rect class="cls-1" x="-513.39" y="-225.39" width="2500" height="2500"/>
  <g>
    <g>
      <g>
        <path class="cls-5" d="M1081.95,1201.78c-.95,5.48-2.53,10.77-3.83,16.08-1.27,5.32-2.84,10.52-4.7,15.62-1.86,5.1-4,10.1-6.4,15-2.31,4.92-4.48,9.8-7.13,14.55-2.6,4.76-5.46,9.42-8.56,13.98-3.09,4.56-6.52,9.02-9.67,13.42-6.53,8.78-13.98,17.13-22.2,24.99-8.41,7.86-16.68,15.24-25.95,21.96-9.22,6.72-19.11,12.79-29.56,18.01-21.03,10.43-43.69,17.48-68.06,18.96-.74-7.04-.27-14.06.03-20.95.41-6.9,1.12-13.69,2.11-20.34.5-3.33,1.05-6.62,1.71-9.87.8-3.25,1.68-6.46,2.61-9.63,1.88-6.34,4.01-12.5,6.39-18.46,2.41-5.96,4.94-11.71,7.92-17.22,3.16-5.5,6.53-10.77,10.1-15.79,7.22-10.02,14.93-19.05,23.87-26.84,18.24-15.55,38.74-26.38,60.94-31.94,22.59-5.52,46.33-5.89,70.36-1.54Z"/>
        <path class="cls-6" d="M1081.95,1201.78c-.95,5.48-2.53,10.77-3.83,16.08-1.27,5.32-2.84,10.52-4.7,15.62-1.86,5.1-4,10.1-6.4,15-2.31,4.92-4.48,9.8-7.13,14.55-2.6,4.76-5.46,9.42-8.56,13.98-3.09,4.56-6.52,9.02-9.67,13.42-6.53,8.78-13.98,17.13-22.2,24.99-8.41,7.86-16.68,15.24-25.95,21.96-9.22,6.72-19.11,12.79-29.56,18.01-21.03,10.43-43.69,17.48-68.06,18.96,0,0,2.23-2.23,6.19-6.2,4.12-3.95,10.05-9.63,17.29-16.57,7.15-6.77,15.59-14.76,24.84-23.52,9.11-8.62,19.89-17.82,30.33-27.14,20.61-18.72,44.25-37.53,63.08-54.48,20.27-16.81,35.56-31.98,44.32-44.68Z"/>
        <path class="cls-3" d="M1057.62,1208.39c-1.57,3.05-23.61,8.86-33.09,12.02-9.5,2.61-24.96,8.26-30.7,3.97-5.41-4.13,12.76-12.39,26.73-16.43,14.16-4.08,38.71-2.56,37.06.43Z"/>
        <path class="cls-3" d="M988.46,1228.7c-.29,2.21-3.38,3.66-6.89,3.26-3.51-.4-6.12-2.56-5.82-4.8.3-2.25,3.38-3.71,6.89-3.26,3.51.45,6.12,2.6,5.83,4.8Z"/>
      </g>
      <g>
        <path class="cls-5" d="M733.77,1139c-1.49,8.44-2.95,16.81-3.5,25.15-.51,8.34-.7,16.6-.58,24.72.13,8.12.57,16.12,1.32,23.94.85,7.83,2.41,15.5,4.02,22.96,1.66,7.46,3.61,14.71,5.82,21.72,2.21,7.01,4.59,13.78,7.72,20.29,6.01,13.01,12.98,24.94,20.75,35.6,7.57,10.68,16.84,20.06,26.42,28.06,9.63,8,19.88,14.61,30.62,19.75,21.34,10.31,45.16,14.67,69.54,13.18-.74-7.04-.89-14.02-1.79-20.88-.8-6.87-1.89-13.64-3.25-20.31-1.47-6.6-2.93-13.17-4.39-19.74-1.57-6.49-3.4-12.88-5.49-19.17-2.06-6.29-4.49-12.49-6.93-18.57-2.27-6.07-4.78-12.04-7.52-17.89-5.41-11.7-12.04-22.96-18.9-33.58-13.35-21.2-30.22-40.16-49.38-55.1-18.79-14.86-40.43-25.77-64.47-30.11Z"/>
        <path class="cls-6" d="M733.77,1139c-1.49,8.44-2.95,16.81-3.5,25.15-.51,8.34-.7,16.6-.58,24.72.13,8.12.57,16.12,1.32,23.94.85,7.83,2.41,15.5,4.02,22.96,1.66,7.46,3.61,14.71,5.82,21.72,2.21,7.01,4.59,13.78,7.72,20.29,6.01,13.01,12.98,24.94,20.75,35.6,7.57,10.68,16.84,20.06,26.42,28.06,9.63,8,19.88,14.61,30.62,19.75,21.34,10.31,45.16,14.67,69.54,13.18,0,0-2.55-1.97-7.1-5.49-4.35-3.58-10.61-8.83-18.19-15.56-7.59-6.73-16.51-14.94-26.18-24.45-9.74-9.5-19.27-20.3-29.44-32.11-20.63-23.57-39.39-51.3-54.91-79.34-14.1-27.88-25.1-56.07-26.29-78.42Z"/>
        <path class="cls-3" d="M753.23,1158.54c-.39,4.98,19.38,21.01,27.38,27.92,8.3,6.57,21.54,17.89,28.32,14.24,6.39-3.37-8.71-18.64-20.79-28.96-11.95-10.15-34.99-18.05-34.9-13.2Z"/>
        <path class="cls-3" d="M812.86,1207.37c-.35,2.73,2.21,5.27,5.72,5.68,3.51.4,6.64-1.45,6.99-4.13.35-2.69-2.21-5.23-5.72-5.68-3.51-.45-6.64,1.4-6.99,4.13Z"/>
      </g>
      <g>
        <path class="cls-5" d="M1092.5,1075.81c-3.38,9.47-7.74,18.33-12.96,26.63-4.71,8.44-10.17,16.36-16.49,23.74-3.09,3.7-6.64,7.21-9.88,10.7-3.26,3.48-6.7,6.83-10.32,10.05-7.23,6.43-15.14,12.32-23.6,17.62-32.24,21.37-73.75,34.27-115.28,28.14,1.73-12.13,5.35-23.66,9.35-34.6,2.12-5.45,4.19-10.78,6.93-15.82,2.76-5.04,5.72-9.88,8.84-14.51,6.34-9.24,12.99-17.72,20.84-25.04,7.96-7.29,16.42-13.58,25.24-18.8,17.33-10.54,37.45-16.28,57.33-17.59,19.97-1.31,40.21,1.97,60,9.49Z"/>
        <path class="cls-6" d="M1092.5,1075.81c-3.38,9.47-7.74,18.33-12.96,26.63-4.71,8.44-10.17,16.36-16.49,23.74-3.09,3.7-6.64,7.21-9.88,10.7-3.26,3.48-6.7,6.83-10.32,10.05-7.23,6.43-15.14,12.32-23.6,17.62-32.24,21.37-73.75,34.27-115.28,28.14,0,0,2.29-1.48,6.37-4.13,4.21-2.61,10.28-6.35,17.68-10.93,7.3-4.48,15.92-9.76,25.37-15.55,4.73-2.84,9.43-5.83,14.61-8.8,5.16-2.94,10.47-5.97,15.87-9.05,10.55-6.06,21.41-12.29,32.11-18.44,10.86-6.04,21.62-11.93,31.31-17.7,4.86-2.88,9.49-5.72,13.83-8.52,4.29-2.82,8.79-5.45,12.65-8.13,7.85-5.32,14.26-10.51,18.73-15.62Z"/>
        <path class="cls-3" d="M1070.84,1077.99c-1.6,2.56-21.87,3.96-30.52,5.17-8.72.69-22.82,3.05-26.99-1.6-3.87-4.44,13.28-8.53,26.03-9.78,12.79-1.29,33.29,3.78,31.48,6.21Z"/>
        <path class="cls-3" d="M1008.16,1084.44c-.56,1.88-3.38,2.64-6.3,1.71-2.92-.93-4.82-3.23-4.25-5.14.57-1.91,3.39-2.67,6.3-1.71,2.91.96,4.81,3.26,4.25,5.14Z"/>
      </g>
      <g>
        <path class="cls-5" d="M805.88,966.99c-4.94,13.58-8.72,27.23-11.35,40.67-2.13,13.63-3,27.09-2.86,40.03.14,6.5.29,12.78,1.19,19.08.88,6.29,2.01,12.43,3.39,18.38,2.76,11.92,6.51,23.11,11.17,33.4,9.97,20.76,23.73,37.9,40.02,50.41,16.21,12.52,35.61,20.54,56.54,23.72,1.73-12.12,3.23-23.99,3.24-35.8.12-5.88-.27-11.79-.42-17.56-.13-5.76-.51-11.49-1.12-17.17-1.14-11.34-3.57-22.61-6.18-33.44-2.5-10.79-5.87-21.34-10.04-31.5-8.65-20.41-19.11-38.85-33.04-54.5-13.87-15.59-30.73-28.21-50.51-35.73Z"/>
        <path class="cls-6" d="M805.88,966.99c-4.94,13.58-8.72,27.23-11.35,40.67-2.13,13.63-3,27.09-2.86,40.03.14,6.5.29,12.78,1.19,19.08.88,6.29,2.01,12.43,3.39,18.38,2.76,11.92,6.51,23.11,11.17,33.4,9.97,20.76,23.73,37.9,40.02,50.41,16.21,12.52,35.61,20.54,56.54,23.72,0,0-1.81-2.13-5.03-5.94-3.04-3.82-7.38-9.39-12.58-16.45-5.2-7.05-11.27-15.59-17.75-25.33-3.19-4.86-6.69-10.06-9.88-15.44-3.16-5.38-6.37-11.01-9.56-16.85-6.38-11.68-12.7-24.2-18.57-37.1-5.52-12.8-10.29-25.89-14.4-38.86-2.04-6.48-3.87-12.91-5.46-19.22-1.64-6.33-2.54-12.35-3.44-18.27-1.67-11.79-2.23-22.77-1.43-32.25Z"/>
        <path class="cls-3" d="M819.71,986.49c-.82,4.16,12.99,20.62,18.64,27.72,5.85,6.81,15.28,18.52,21.62,16.58,6.01-1.75-4.09-16.98-12.59-27.54-8.55-10.45-27.12-20.85-27.67-16.77Z"/>
        <path class="cls-3" d="M862.36,1037.1c-.68,2.25,1.13,4.83,4.05,5.77,2.92.93,5.83-.12,6.51-2.34.68-2.22-1.14-4.8-4.05-5.76s-5.82.08-6.51,2.34Z"/>
      </g>
      <g>
        <path class="cls-5" d="M1126.85,963.06c-8.77,16.16-20.93,29.45-33.75,41.17-6.56,5.78-13.92,10.86-21.37,15.5-7.27,4.72-15.03,8.82-23.17,12.27-8.14,3.47-16.65,6.29-25.4,8.4-8.52,2.2-17.24,3.7-26.14,4.37-17.78,1.34-36.11-.56-53.8-6.85,14.16-41.28,45.53-71.05,79.36-84.16,8.3-3.41,17.5-5.46,26.33-6.7,8.92-1.2,17.85-1.41,26.7-.61,17.69,1.59,34.99,7.21,51.25,16.6Z"/>
        <path class="cls-6" d="M1126.85,963.06c-8.77,16.16-20.93,29.45-33.75,41.17-6.56,5.78-13.92,10.86-21.37,15.5-7.27,4.72-15.03,8.82-23.17,12.27-8.14,3.47-16.65,6.29-25.4,8.4-8.52,2.2-17.24,3.7-26.14,4.37-17.78,1.34-36.11-.56-53.8-6.85,0,0,9.06-3.59,23.27-9.21,3.51-1.39,7.34-2.91,11.43-4.53,4.19-1.55,8.65-3.2,13.3-4.93,9.21-3.4,19.23-7.09,29.56-10.9,5.08-1.9,10.23-3.82,15.4-5.75,5.28-1.87,10.59-3.75,15.85-5.61,10.49-3.74,20.65-7.51,30.01-11.3,9.17-3.88,18.45-7.34,26.04-11.1,7.68-3.72,14.08-7.53,18.78-11.54Z"/>
        <path class="cls-3" d="M1107.5,962.12c-1.79,2.09-19.77.58-27.51.44-7.67-.56-20.5-.52-23.39-5.22-2.71-4.48,12.85-5.71,24.21-5.07,11.39.61,28.64,7.91,26.69,9.85Z"/>
        <path class="cls-3" d="M1051.47,959.08c-.85,1.55-3.51,1.78-5.91.54-2.43-1.25-3.68-3.53-2.81-5.1.87-1.57,3.51-1.81,5.92-.54,2.4,1.27,3.66,3.55,2.81,5.09Z"/>
      </g>
      <g>
        <path class="cls-5" d="M891.25,827.27c-12.12,21.97-20.59,44.63-23.41,67.22-1.56,11.22-2.32,22.09-1.75,32.72.75,10.71,2.46,20.98,5.06,30.64,2.6,9.67,6.1,18.72,10.45,27.04,4.58,8.41,10.05,16.1,16.22,22.91,12.36,13.64,27.71,23.83,45.39,30.12,14.08-41,17.12-82.27,8.37-120.27-2.37-9.56-4.78-18.5-8.33-27.27-3.47-8.72-7.7-17.06-12.7-24.84-10.01-15.55-23.06-28.9-39.32-38.28Z"/>
        <path class="cls-6" d="M891.25,827.27c-12.12,21.97-20.59,44.63-23.41,67.22-1.56,11.22-2.32,22.09-1.75,32.72.75,10.71,2.46,20.98,5.06,30.64,2.6,9.67,6.1,18.72,10.45,27.04,4.58,8.41,10.05,16.1,16.22,22.91,12.36,13.64,27.71,23.83,45.39,30.12,0,0-4.82-8.43-11.81-22.5-1.72-3.56-3.6-7.44-5.61-11.58-1.92-4.17-3.75-8.58-5.72-13.29-3.89-9.41-7.94-19.9-11.84-31.07-1.95-5.59-3.86-11.34-5.7-17.22-1.75-5.83-3.24-11.68-4.71-17.64-2.91-11.89-5.38-24.01-7.17-35.82-1.98-11.91-2.39-23.04-2.38-33.51.1-10.42,1.04-19.97,2.97-28.02Z"/>
        <path class="cls-3" d="M900.74,846.12c-1.26,3.46,8.59,19.74,12.56,26.73,4.24,6.8,10.73,18.29,16.58,17.59,5.51-.61-1.26-15.37-7.26-25.75-6.05-10.31-20.88-22.02-21.89-18.57Z"/>
        <path class="cls-3" d="M930.92,896.18c-.99,1.81.16,4.28,2.59,5.53,2.4,1.24,5.16.81,6.14-.98.98-1.79-.17-4.26-2.58-5.53-2.4-1.27-5.16-.83-6.15.98Z"/>
      </g>
      <g>
        <path class="cls-5" d="M1180.48,857.5c-20.56,26.13-48.82,42.76-79.4,50.51-15.2,3.87-31.31,5.18-47.27,3.55-15.96-1.65-31.37-6.01-45.9-14.32,1.16-2.11,2.36-4.18,3.6-6.22,1.32-1.98,2.71-3.9,4.12-5.8,2.82-3.78,5.78-7.39,8.84-10.82,6.17-6.85,12.66-13.06,19.69-18.33,14.52-10.24,30.12-17.35,45.87-20.86,32.52-6.44,64.55,1.33,90.44,22.28Z"/>
        <path class="cls-6" d="M1180.48,857.5c-20.56,26.13-48.82,42.76-79.4,50.51-15.2,3.87-31.31,5.18-47.27,3.55-15.96-1.65-31.37-6.01-45.9-14.32,0,0,2.1-.44,5.86-1.23,3.68-.83,9.25-1.88,15.98-3.17,13.25-2.59,31.3-6.11,50.51-9.87,19.42-3.49,39.8-7.13,57.28-11.37,18.09-3.84,33.49-8.17,42.94-14.11Z"/>
        <path class="cls-3" d="M1163.56,854.16c-1.88,1.63-17.47-2.07-24.25-3.23-6.66-1.51-17.91-3.21-19.78-7.76-1.74-4.33,12.07-3.32,21.97-1.26,9.92,2.05,24.06,10.77,22.06,12.25Z"/>
        <path class="cls-3" d="M1114.79,844.01c-.97,1.25-3.32,1.1-5.26-.33-1.94-1.43-2.72-3.62-1.74-4.89.98-1.27,3.33-1.12,5.26.33,1.93,1.45,2.71,3.64,1.74,4.89Z"/>
      </g>
      <g>
        <path class="cls-5" d="M992.45,706.4c-27.24,34.42-39.14,75.03-35.31,110.11,1.9,17.63,7.24,33.72,15.77,47.37,8.52,13.66,20.62,25.13,35,33.36,2.24-4.26,4.45-8.47,6.65-12.65,2.12-4.2,4.03-8.46,5.74-12.76,3.46-8.57,5.99-17.4,8.02-26.17,4.51-17.23,5.95-34.93,4.67-52.13-1.7-33.63-14.65-66.19-40.55-87.13Z"/>
        <path class="cls-6" d="M992.45,706.4c-27.24,34.42-39.14,75.03-35.31,110.11,1.9,17.63,7.24,33.72,15.77,47.37,8.52,13.66,20.62,25.13,35,33.36,0,0-.72-2.08-2-5.78-1.32-3.76-2.91-9.05-4.75-15.64-3.7-13.19-8.31-31.61-12.04-52.32-3.25-20.34-5.36-42.81-5.39-63.9.53-20.65,3.32-39.76,8.73-53.2Z"/>
        <path class="cls-3" d="M998.31,724.11c-1.54,2.83,4.93,18.37,7.47,25.03,2.81,6.52,6.94,17.46,12.14,17.69,4.88.24.94-13.59-2.94-23.48-3.93-9.83-15.35-22.1-16.67-19.25Z"/>
        <path class="cls-3" d="M1018.06,771.98c-1.1,1.44-.43,3.76,1.51,5.2,1.94,1.43,4.4,1.44,5.49.02,1.09-1.42.41-3.75-1.51-5.2-1.93-1.45-4.39-1.46-5.49-.02Z"/>
      </g>
      <g>
        <path class="cls-5" d="M1243.47,769.22c-5.42,5.17-11.23,9.67-17.37,13.54-6.15,3.86-12.14,7.6-18.66,10.45-12.92,5.82-27.08,9.08-40.79,10.71-27.77,2.82-57.35-3.73-80.18-21.96,10.77-13.22,23.86-23.51,37.31-31.09,14-7.11,28.75-11.19,43.02-12.29,3.59-.26,7.1-.38,10.67-.21,3.61.2,7.18.59,10.69,1.16,7.03,1.14,13.85,3.03,20.37,5.64,13.04,5.21,24.86,13.32,34.95,24.07Z"/>
        <path class="cls-6" d="M1243.47,769.22c-5.42,5.17-11.23,9.67-17.37,13.54-6.15,3.86-12.14,7.6-18.66,10.45-12.92,5.82-27.08,9.08-40.79,10.71-27.77,2.82-57.35-3.73-80.18-21.96,0,0,1.89-.1,5.28-.28,3.45-.12,8.42-.3,14.49-.52,12.11-.45,28.48-1.08,45.6-1.95,17.34-.7,35.93-1.16,51.93-2.71,4.02-.44,7.91-.86,11.63-1.27,3.81-.39,7.43-.85,10.82-1.4,6.78-1.11,12.64-2.59,17.26-4.6Z"/>
        <path class="cls-3" d="M1228.92,764.2c-1.9,1.19-15.2-4-21.03-5.87-5.68-2.16-15.39-5.08-16.42-9.29-.95-4,11.1-1.36,19.58,1.69,8.5,3.04,19.84,12.43,17.86,13.47Z"/>
        <path class="cls-3" d="M1187.17,749.17c-.97,1.03-2.98.64-4.5-.86-1.52-1.5-1.95-3.55-.97-4.59,1.02-.99,3.09-.55,4.59.95,1.51,1.51,1.89,3.52.88,4.5Z"/>
      </g>
      <g>
        <path class="cls-5" d="M1097.36,613.7c-6.93,6.6-13.18,13.59-18.68,20.82-5.5,7.23-9.75,15.19-13.51,22.95-7.39,15.66-11.81,31.48-12.19,47.22-1.29,31.2,10.29,58.72,33.49,77.25,10.76-13.21,19.22-27.28,24.83-42.29,6.14-14.52,9.82-29.66,10.88-44.84.28-3.78.35-7.6.34-11.32.04-3.68-.09-7.34-.39-10.98-.6-7.27-1.88-14.44-3.87-21.36-3.99-13.84-10.8-26.73-20.89-37.47Z"/>
        <path class="cls-6" d="M1097.36,613.7c-6.93,6.6-13.18,13.59-18.68,20.82-5.5,7.23-9.75,15.19-13.51,22.95-7.39,15.66-11.81,31.48-12.19,47.22-1.29,31.2,10.29,58.72,33.49,77.25,0,0-.35-1.91-.96-5.33-.53-3.38-1.2-8.22-1.94-14.24-1.46-12.03-3.03-28.73-3.6-47.24-.38-18.31.81-37.97,3.39-56.29.69-4.54,1.36-9.08,2.34-13.28.99-4.19,2.08-8.21,3.27-12.03,2.38-7.63,5.18-14.4,8.38-19.84Z"/>
        <path class="cls-3" d="M1100.3,629.79c-1.7,2.24,2.03,16.55,3.41,22.66,1.64,6.02,3.87,16.05,8.4,16.94,4.25.86,2.56-11.66.4-20.73-2.21-9.04-10.69-21.15-12.21-18.87Z"/>
        <path class="cls-3" d="M1111.58,673.88c-1.1,1.16-.76,3.31.76,4.81,1.52,1.5,3.63,1.79,4.71.64,1.13-1.1.84-3.2-.67-4.71-1.5-1.51-3.67-1.85-4.81-.74Z"/>
      </g>
      <g>
        <path class="cls-5" d="M1293.53,702.33c-4.99,3.85-10.24,7.12-15.69,9.84-2.72,1.36-5.51,2.57-8.32,3.67-2.72,1.22-5.48,2.3-8.29,3.24-11.21,3.78-23.03,5.44-34.84,5.07-23.18-.3-46.3-8.29-63.21-25.8,19.98-19.87,46.5-28.51,69.92-27.91,24.25,1.4,45.82,12.51,60.42,31.89Z"/>
        <path class="cls-6" d="M1293.53,702.33c-4.99,3.85-10.24,7.12-15.69,9.84-2.72,1.36-5.51,2.57-8.32,3.67-2.72,1.22-5.48,2.3-8.29,3.24-11.21,3.78-23.03,5.44-34.84,5.07-23.18-.3-46.3-8.29-63.21-25.8,0,0,25.17,2,53.79,4.27,14.4,1.18,29.52,2.21,42.87,2.28,13.67.45,25.66.04,33.69-2.57Z"/>
        <path class="cls-3" d="M1281.97,697.03c-1.68.83-12.17-4.53-16.79-6.56-4.48-2.25-12.17-5.48-12.63-9.04-.41-3.38,9.25-.19,15.95,3.02,6.72,3.21,15.2,11.88,13.47,12.58Z"/>
        <path class="cls-3" d="M1249.01,681.17c-.93.71-2.58.19-3.68-1.18-1.1-1.37-1.24-3.06-.3-3.78.94-.72,2.59-.19,3.68,1.18,1.1,1.37,1.23,3.07.3,3.78Z"/>
      </g>
      <g>
        <path class="cls-5" d="M1329.19,574.39c-8.34,25.37-25.39,45.06-45.82,59.85-5.18,3.59-10.71,6.69-16.43,9.41-5.56,2.94-11.38,5.4-17.42,7.35-6.04,1.95-12.29,3.38-18.71,4.26-3.21.44-6.46.74-9.73.9-3.19.27-6.42.38-9.67.35.51-3.27,1.2-6.5,2.05-9.7.93-3.1,2.04-6.14,3.29-9.15,2.51-6,5.64-11.8,9.3-17.32,3.65-5.52,7.82-10.77,12.41-15.65,4.75-4.67,9.99-8.87,15.5-12.69,21.75-15.75,49.84-22.04,75.22-17.6Z"/>
        <path class="cls-6" d="M1329.19,574.39c-8.34,25.37-25.39,45.06-45.82,59.85-5.18,3.59-10.71,6.69-16.43,9.41-5.56,2.94-11.38,5.4-17.42,7.35-6.04,1.95-12.29,3.38-18.71,4.26-3.21.44-6.46.74-9.73.9-3.19.27-6.42.38-9.67.35,0,0,1.42-.96,3.97-2.67,2.47-1.8,6.34-4.01,10.91-6.9,4.56-2.9,9.94-6.34,15.85-10.1,2.92-1.92,5.97-3.93,9.11-6,1.56-1.05,3.14-2.11,4.74-3.19,1.65-1,3.32-2.02,5.01-3.04,6.72-4.11,13.59-8.46,20.27-12.9,6.69-4.43,13.11-9.11,19.43-13.14,12.44-8.36,22.82-16.72,28.48-24.18Z"/>
        <path class="cls-3" d="M1315.33,578.25c-.98,1.76-13.93,4.75-19.45,6.28-5.54,1.27-14.64,3.88-17.39,1.82-1.31-1,.59-2.75,4.03-4.25,3.43-1.52,8.22-3.03,12.34-4.09,8.27-2.12,21.61-1.46,20.47.24Z"/>
        <path class="cls-3" d="M1275.24,588.6c-.32,1.13-2.1,1.89-4,1.69-1.9-.2-3.19-1.28-2.87-2.41.31-1.13,2.12-1.9,4.02-1.7,1.9.2,3.17,1.29,2.86,2.42Z"/>
      </g>
      <g>
        <path class="cls-5" d="M1187.42,562.21c-6.14,4.73-11.76,9.84-16.8,15.21-2.52,2.69-4.91,5.43-7.11,8.26-2.12,2.93-4.09,5.92-5.9,8.94-7.27,12.08-12.08,24.71-14.24,37.06-3.97,25.2,3.01,49.28,19.82,66.68,19.89-19.78,33.15-42.99,37.43-67.85,4.93-23.89,1.4-48.92-13.2-68.3Z"/>
        <path class="cls-6" d="M1187.42,562.21c-6.14,4.73-11.76,9.84-16.8,15.21-2.52,2.69-4.91,5.43-7.11,8.26-2.12,2.93-4.09,5.92-5.9,8.94-7.27,12.08-12.08,24.71-14.24,37.06-3.97,25.2,3.01,49.28,19.82,66.68,0,0-.34-6.28-.41-16.36-.06-10.07.06-24.14,1.74-38.85,1.52-14.85,4.02-31.01,7.68-45.68,3.97-14.29,9.18-26.97,15.22-35.26Z"/>
        <path class="cls-3" d="M1188.52,575.58c-1.56,1.66.3,13.68.91,18.8.84,5.06,1.8,13.48,5.4,14.62,3.38,1.09,3.06-9.3,2.06-16.9-1.05-7.58-6.96-18.24-8.37-16.51Z"/>
        <path class="cls-3" d="M1194.01,612.62c-1.03.79-.97,2.55.13,3.91,1.1,1.37,2.83,1.84,3.85,1.05s.96-2.54-.13-3.91c-1.1-1.37-2.82-1.84-3.85-1.05Z"/>
      </g>
      <path class="cls-5" d="M909.62,1407.6c.27,4.6.93,9.15,1.53,13.72l1.8,13.69c1.32,9.11,2.13,18.29,3.86,27.34l4.99,27.16c.87,4.52,1.57,9.07,2.58,13.56l3.18,13.44,6.36,26.87c2.42,8.88,5.11,17.69,7.64,26.53,4.75,17.8,11.26,35.04,17.22,52.46,2.81,8.77,6.61,17.17,9.99,25.73,3.51,8.51,6.83,17.09,10.49,25.53l11.71,25,5.85,12.5c2.04,4.12,4.3,8.13,6.44,12.2l13,24.34c4.33,8.12,9.41,15.81,14.07,23.73l7.14,11.81c2.36,3.95,4.73,7.89,7.4,11.64l15.54,22.79c3.23,4.75,2.88,10.87-.6,14.34-.31.37-.67.67-1.08.97-4.48,3.25-11.05,1.55-14.71-3.81l-15.92-23.35c-2.74-3.84-5.17-7.87-7.58-11.92l-7.31-12.09c-4.78-8.12-9.97-16-14.4-24.31l-13.32-24.92c-2.19-4.17-4.5-8.28-6.59-12.49l-5.99-12.79-11.98-25.58c-3.75-8.64-7.15-17.42-10.74-26.12-3.46-8.75-7.34-17.35-10.22-26.32-6.1-17.81-12.75-35.45-17.61-53.66-2.6-9.05-5.34-18.06-7.81-27.14l-6.51-27.48-3.25-13.74c-1.03-4.59-1.75-9.25-2.64-13.87l-5.1-27.78c-1.76-9.25-2.61-18.64-3.95-27.96l-1.84-14c-.62-4.67-1.29-9.33-1.57-14.03-.52-6.47,3.52-12.07,9.04-12.53.5-.04.97-.04,1.44.03,4.88.36,8.98,4.78,9.44,10.52Z"/>
      <path class="cls-6" d="M909.62,1407.6c.27,4.6.93,9.15,1.53,13.72l1.8,13.69c1.32,9.11,2.13,18.29,3.86,27.34l4.99,27.16c.87,4.52,1.57,9.07,2.58,13.56l3.18,13.44,6.36,26.87c2.42,8.88,5.11,17.69,7.64,26.53,4.75,17.8,11.26,35.04,17.22,52.46,2.81,8.77,6.61,17.17,9.99,25.73,3.51,8.51,6.83,17.09,10.49,25.53l11.71,25,5.85,12.5c2.04,4.12,4.3,8.13,6.44,12.2l13,24.34c4.33,8.12,9.41,15.81,14.07,23.73l7.14,11.81c2.36,3.95,4.73,7.89,7.4,11.64l15.54,22.79c3.23,4.75,2.88,10.87-.6,14.34l-16.51-24.21-8.25-12.1c-2.63-4.11-5.09-8.34-7.64-12.5l-15.17-25.07c-4.83-8.49-9.27-17.2-13.92-25.78-9.63-17.02-17.28-35.03-25.73-52.64-4.15-8.85-7.49-18.04-11.27-27.05-3.57-9.09-7.64-17.99-10.63-27.3-26.42-73.5-44.35-150.28-50.56-228.22,4.88.36,8.98,4.78,9.44,10.52Z"/>
    </g>
    <g>
      <g>
        <path class="cls-5" d="M766.97,883.54c.16,7.42-.31,14.76-.54,22.01-.2,7.25-.7,14.42-1.51,21.51-.8,7.08-1.9,14.08-3.27,20.98-1.28,6.9-2.46,13.69-4.12,20.38-1.61,6.69-3.49,13.28-5.62,19.76-2.12,6.48-4.6,12.85-6.84,19.05-4.71,12.42-10.4,24.34-16.97,35.61-6.74,11.3-13.51,21.84-21.39,31.58-7.83,9.73-16.47,18.63-25.83,26.45-18.86,15.67-40.08,27-64.01,31.87-6.53-33.62-7.26-66.72-1.92-97.04,1.26-7.57,2.68-14.94,4.57-22.12,2.06-7.2,4.37-14.18,6.93-20.91,5.18-13.48,11.04-25.95,18.31-37.28,14.87-22.7,32.87-40.63,53.55-52.81,21.03-12.2,44.23-18.65,68.65-19.05Z"/>
        <path class="cls-6" d="M766.97,883.54c.16,7.42-.31,14.76-.54,22.01-.2,7.25-.7,14.42-1.51,21.51-.8,7.08-1.9,14.08-3.27,20.98-1.28,6.9-2.46,13.69-4.12,20.38-1.61,6.69-3.49,13.28-5.62,19.76-2.12,6.48-4.6,12.85-6.84,19.05-4.71,12.42-10.4,24.34-16.97,35.61-6.74,11.3-13.51,21.84-21.39,31.58-7.83,9.73-16.47,18.63-25.83,26.45-18.86,15.67-40.08,27-64.01,31.87,0,0,1.8-2.95,5.03-8.23,3.35-5.3,8.18-12.93,14.08-22.26,5.8-9.24,12.67-20.16,20.2-32.15,7.4-11.91,16.26-24.91,24.77-38.2,16.76-26.6,36.26-54.71,51.45-80.34,16.52-25.75,28.56-49.16,34.57-68.03Z"/>
        <path class="cls-3" d="M744.45,898.14c-.9,4.37-21.4,16.96-30.08,23.05-8.81,5.47-22.87,15.87-29.34,11.74-6.12-3.96,10.09-18.21,23-26.59,13.08-8.43,37.43-12.49,36.42-8.2Z"/>
        <path class="cls-3" d="M680.61,939.46c.15,2.81-2.59,5.27-6.12,5.5-3.53.23-6.51-1.89-6.66-4.73-.15-2.84,2.59-5.31,6.12-5.5,3.53-.2,6.51,1.92,6.66,4.73Z"/>
      </g>
      <g>
        <path class="cls-5" d="M413.23,889.39c.19,9.7.41,19.31,1.47,28.72,1.09,9.41,2.47,18.65,4.14,27.7,1.66,9.05,3.61,17.9,5.81,26.51,2.3,8.6,5.23,16.94,8.19,25.02,3.01,8.08,6.25,15.9,9.7,23.42,3.46,7.52,7.04,14.76,11.28,21.6,8.26,13.73,17.26,26.17,26.84,37.13,9.39,11.01,20.19,20.4,31.08,28.25,10.94,7.84,22.25,14.07,33.81,18.6,22.98,9.11,47.4,11.28,71.34,6.41-13.63-66.97-39.83-125.61-75.47-170-17.19-22.14-37.37-40.49-59.06-53.41-21.34-12.91-44.7-20.35-69.13-19.95Z"/>
        <path class="cls-6" d="M413.23,889.39c.19,9.7.41,19.31,1.47,28.72,1.09,9.41,2.47,18.65,4.14,27.7,1.66,9.05,3.61,17.9,5.81,26.51,2.3,8.6,5.23,16.94,8.19,25.02,3.01,8.08,6.25,15.9,9.7,23.42,3.46,7.52,7.04,14.76,11.28,21.6,8.26,13.73,17.26,26.17,26.84,37.13,9.39,11.01,20.19,20.4,31.08,28.25,10.94,7.84,22.25,14.07,33.81,18.6,22.98,9.11,47.4,11.28,71.34,6.41,0,0-2.88-2.03-8.03-5.65-4.97-3.71-12.13-9.14-20.87-16.07-8.73-6.93-19.05-15.36-30.33-25.08-11.33-9.7-22.74-20.82-34.91-32.86-24.61-24.01-48.22-52.39-68.68-81.15-19.14-28.83-35.25-58.02-40.84-82.56Z"/>
        <path class="cls-3" d="M436.14,907c.61,5.63,23.06,19.53,32.24,25.77,9.41,5.73,24.57,16.03,30.53,10.48,5.63-5.18-12.12-19.63-25.96-28.77-13.69-9.01-37.85-12.89-36.81-7.49Z"/>
        <path class="cls-3" d="M504.04,950.13c.17,3.21,3.17,5.63,6.7,5.4,3.53-.23,6.25-2.99,6.08-6.17-.17-3.18-3.17-5.6-6.7-5.4-3.53.2-6.25,2.96-6.08,6.17Z"/>
      </g>
      <g>
        <path class="cls-5" d="M752.25,718.32c-1.45,13.08-3.95,25.71-7.4,37.88-2.96,12.2-6.75,23.95-11.46,35.18-2.29,5.62-5.04,11.1-7.53,16.46-2.51,5.36-5.22,10.58-8.12,15.65-5.81,10.14-12.38,19.69-19.6,28.54-27.39,35.29-65.49,60.13-107.47,61.84-.66-14.82.58-29.36,2.35-43.32.99-6.98,1.99-13.83,3.66-20.51,1.69-6.68,3.61-13.19,5.73-19.5,4.34-12.63,9.17-24.51,15.36-35.41,6.3-10.89,13.3-20.83,20.87-29.67,14.86-17.72,33.38-30.89,52.65-38.9,19.36-8.03,39.95-10.87,60.96-8.24Z"/>
        <path class="cls-6" d="M752.25,718.32c-1.45,13.08-3.95,25.71-7.4,37.88-2.96,12.2-6.75,23.95-11.46,35.18-2.29,5.62-5.04,11.1-7.53,16.46-2.51,5.36-5.22,10.58-8.12,15.65-5.81,10.14-12.38,19.69-19.6,28.54-27.39,35.29-65.49,60.13-107.47,61.84,0,0,1.95-2.27,5.45-6.33,3.61-4.07,8.81-9.93,15.17-17.1,6.26-7.12,13.67-15.55,21.79-24.79,4.07-4.6,8.11-9.4,12.58-14.34,4.46-4.92,9.05-9.99,13.72-15.15,9.27-10.3,18.7-20.92,27.78-31.49,9.42-10.56,18.77-21.06,27.12-31.22,4.19-5.08,8.18-10.08,11.88-14.97,3.66-4.89,7.53-9.63,10.78-14.26,6.64-9.24,11.9-17.94,15.29-25.91Z"/>
        <path class="cls-3" d="M731.36,728.38c-1.07,3.75-20.7,12.13-28.95,16.32-8.41,3.64-21.77,10.87-26.81,6.47-4.71-4.2,11.27-14.47,23.54-20.14,12.3-5.7,33.51-6.29,32.22-2.64Z"/>
        <path class="cls-3" d="M671.12,756.26c-.17,2.45-2.79,4.24-5.84,3.99-3.05-.25-5.39-2.47-5.21-4.95.17-2.48,2.79-4.27,5.84-3.99,3.05.28,5.39,2.49,5.21,4.95Z"/>
      </g>
      <g>
        <path class="cls-5" d="M448.04,680.34c-1.86,16.42-2.59,32.6-2.26,48.24.82,15.71,2.81,30.9,5.67,45.33,1.5,7.22,2.98,14.22,5.14,21.05,2.15,6.82,4.51,13.43,7.08,19.78,5.13,12.72,11.07,24.46,17.72,35.04,28.02,42.55,66.7,65.82,109.29,64.08-.66-14.82-1.56-29.28-3.88-43.29-1.05-7.01-2.58-13.91-3.9-20.69-1.29-6.78-2.82-13.44-4.57-19.98-3.41-13.07-8.05-25.65-12.84-37.58-4.68-11.93-10.17-23.24-16.37-33.81-12.7-21.15-26.9-39.2-43.9-52.83-16.93-13.6-36.19-22.72-57.19-25.35Z"/>
        <path class="cls-6" d="M448.04,680.34c-1.86,16.42-2.59,32.6-2.26,48.24.82,15.71,2.81,30.9,5.67,45.33,1.5,7.22,2.98,14.22,5.14,21.05,2.15,6.82,4.51,13.43,7.08,19.78,5.13,12.72,11.07,24.46,17.72,35.04,28.02,42.55,66.7,65.82,109.29,64.08,0,0-2.18-2.14-6.08-5.96-3.73-3.87-9.09-9.51-15.58-16.63-6.49-7.13-14.12-15.74-22.4-25.56-4.1-4.91-8.54-10.12-12.74-15.58-4.18-5.46-8.46-11.18-12.77-17.12-8.61-11.86-17.35-24.58-25.74-37.73-8.05-13.12-15.47-26.65-22.22-40.11-3.36-6.73-6.51-13.43-9.4-20.05-2.94-6.62-5.14-13.09-7.29-19.43-4.18-12.66-7.13-24.65-8.42-35.36Z"/>
        <path class="cls-3" d="M465.81,698.02c.1,4.84,17.17,19.34,24.22,25.77,7.19,6.01,18.91,16.66,24.7,12.7,5.51-3.69-7.63-18.17-18.22-27.6-10.61-9.32-31.05-15.57-30.7-10.87Z"/>
        <path class="cls-3" d="M518.4,743c-.2,2.76,2.12,5.2,5.17,5.45,3.05.25,5.69-1.76,5.88-4.49.2-2.73-2.12-5.17-5.17-5.45-3.05-.28-5.69,1.73-5.88,4.49Z"/>
      </g>
      <g>
        <path class="cls-5" d="M763.25,566.34c-5.4,23.1-14.68,44.11-24.99,63.22-5.31,9.52-11.51,18.43-17.91,26.77-6.21,8.37-13.03,16.1-20.33,23.1-7.3,7.01-15.08,13.3-23.24,18.74-7.93,5.47-16.19,10.1-24.79,13.73-17.18,7.27-35.56,10.6-54.22,8.58,5.23-52.52,29.46-97.24,60.04-124.91,7.47-6.99,16.09-12.8,24.57-17.58,8.57-4.77,17.38-8.44,26.33-10.94,17.9-5.01,36.35-5.33,54.54-.71Z"/>
        <path class="cls-6" d="M763.25,566.34c-5.4,23.1-14.68,44.11-24.99,63.22-5.31,9.52-11.51,18.43-17.91,26.77-6.21,8.37-13.03,16.1-20.33,23.1-7.3,7.01-15.08,13.3-23.24,18.74-7.93,5.47-16.19,10.1-24.79,13.73-17.18,7.27-35.56,10.6-54.22,8.58,0,0,32.47-27.81,69.95-59.9,4.6-4.02,9.27-8.1,13.97-12.21,4.8-4.11,9.63-8.24,14.44-12.36,9.56-8.27,18.82-16.56,27.31-24.67,8.3-8.15,16.75-15.94,23.51-23.49,6.85-7.53,12.44-14.74,16.3-21.51Z"/>
        <path class="cls-3" d="M743.76,573.07c-1.35,3.24-19.54,8.56-27.24,11.36-7.73,2.32-20.42,7.21-24.29,2.75-3.65-4.25,11.48-11.58,22.91-15.29,11.44-3.72,30.17-1.94,28.63,1.18Z"/>
        <path class="cls-3" d="M687.51,591.16c-.51,2.14-3.09,3.41-5.73,2.84-2.67-.58-4.4-2.79-3.89-4.95.51-2.16,3.08-3.43,5.73-2.84s4.39,2.81,3.88,4.95Z"/>
      </g>
      <g>
        <path class="cls-5" d="M499.64,499.56c-6.68,28.16-9.64,55.82-7.25,81.68,1.04,12.9,2.77,25.21,5.73,36.85,3.14,11.68,7.08,22.63,11.77,32.67,4.68,10.05,10.09,19.2,16.17,27.31,6.3,8.14,13.32,15.26,20.82,21.21,15.03,11.91,32.22,19.17,50.88,21.2,5.21-52.3-.77-101.32-17.89-141.32-4.47-10.01-8.89-19.27-14.38-27.86-5.41-8.57-11.5-16.4-18.22-23.29-13.45-13.78-29.44-23.85-47.63-28.46Z"/>
        <path class="cls-6" d="M499.64,499.56c-6.68,28.16-9.64,55.82-7.25,81.68,1.04,12.9,2.77,25.21,5.73,36.85,3.14,11.68,7.08,22.63,11.77,32.67,4.68,10.05,10.09,19.2,16.17,27.31,6.3,8.14,13.32,15.26,20.82,21.21,15.03,11.91,32.22,19.17,50.88,21.2,0,0-6.49-8.45-16.34-22.6-2.44-3.58-5.11-7.49-7.96-11.66-2.77-4.21-5.53-8.72-8.48-13.52-5.86-9.59-12.12-20.28-18.4-31.71-3.14-5.71-6.29-11.61-9.39-17.64-3.02-6.01-5.79-12.12-8.58-18.31-5.53-12.39-10.7-25.08-15.17-37.58-4.66-12.54-7.68-24.69-10.11-36.2-2.35-11.49-3.68-22.25-3.7-31.7Z"/>
        <path class="cls-3" d="M513.43,516.92c-.42,4.22,13.07,18.78,18.58,25.2,5.75,6.07,14.76,16.69,20.35,13.9,5.27-2.6-4.77-16.76-13.08-26.18-8.35-9.33-25.67-17.05-25.85-12.92Z"/>
        <path class="cls-3" d="M554.69,562.08c-.56,2.37,1.13,4.75,3.81,5.32,2.64.57,5.26-.87,5.81-3.22.55-2.35-1.15-4.73-3.8-5.32-2.65-.59-5.26.85-5.82,3.22Z"/>
      </g>
      <g>
        <path class="cls-5" d="M794.37,418.03c-15.03,39.81-39.87,72-68.68,93.62-14.33,10.8-30.05,18.75-46.24,23.07-16.19,4.31-32.43,5.08-48.65,1.01.67-2.84,1.39-5.65,2.16-8.43.86-2.76,1.79-5.47,2.75-8.15,1.93-5.37,4.03-10.6,6.28-15.68,4.54-10.14,9.56-19.72,15.33-28.47,12.03-17.36,25.92-31.76,40.86-42.37,30.96-20.96,65.17-26.69,96.21-14.61Z"/>
        <path class="cls-6" d="M794.37,418.03c-15.03,39.81-39.87,72-68.68,93.62-14.33,10.8-30.05,18.75-46.24,23.07-16.19,4.31-32.43,5.08-48.65,1.01,0,0,1.98-1.29,5.51-3.59,3.46-2.33,8.72-5.63,15.1-9.68,12.73-8.12,29.96-19.2,47.96-31.29,18.55-11.95,38.13-24.8,54.79-37.39,17.32-12.4,31.95-24.49,40.22-35.76Z"/>
        <path class="cls-3" d="M776.46,421.99c-1.54,2.75-18.14,5.55-25.22,7.22-7.06,1.24-18.75,4.2-21.67-.17-2.76-4.16,11.35-9.03,21.81-11.11,10.47-2.09,26.78,1.46,25.09,4.07Z"/>
        <path class="cls-3" d="M724.99,432.05c-.68,1.84-3.07,2.69-5.35,1.9-2.28-.8-3.57-2.95-2.88-4.81.68-1.86,3.08-2.71,5.35-1.9,2.27.81,3.56,2.96,2.88,4.81Z"/>
      </g>
      <g>
        <path class="cls-5" d="M569.34,331.15c-18.04,47.57-19.63,95.81-7.48,133.05,6.09,18.7,15.14,34.61,26.73,46.78,11.58,12.18,26.11,20.73,42.19,24.76,1.25-5.7,2.48-11.33,3.71-16.9,1.13-5.58,2.05-11.14,2.76-16.67,1.45-11.04,1.94-21.99,1.91-32.64.43-21.15-2.34-41.46-7.77-59.95-9.85-36.52-31-66.35-62.04-78.42Z"/>
        <path class="cls-6" d="M569.34,331.15c-18.04,47.57-19.63,95.81-7.48,133.05,6.09,18.7,15.14,34.61,26.73,46.78,11.58,12.18,26.11,20.73,42.19,24.76,0,0-1.18-2.09-3.28-5.83-2.15-3.78-4.94-9.2-8.27-15.96-6.69-13.53-15.52-32.49-24.13-54.01-8.06-21.33-15.62-45.15-20.89-68.03-4.63-22.64-6.76-44.23-4.87-60.75Z"/>
        <path class="cls-3" d="M579.68,347.81c-.8,3.64,9.55,17.84,13.73,24.07,4.42,5.94,11.24,16.24,16.44,14.42,4.91-1.7-2.44-15.22-8.78-24.37-6.37-9.08-20.82-17.7-21.4-14.11Z"/>
        <path class="cls-3" d="M611.28,391.87c-.74,2.01.51,4.29,2.78,5.09,2.28.8,4.72-.18,5.45-2.18.73-2-.51-4.28-2.78-5.09-2.27-.81-4.71.16-5.45,2.18Z"/>
      </g>
      <g>
        <path class="cls-5" d="M838.14,287.27c-4.32,8.49-9.22,16.43-14.59,23.82-5.38,7.38-10.64,14.51-16.65,20.88-11.84,12.83-25.47,23.26-39.01,31.43-27.52,16.09-58.75,21.66-86.04,11.19,7.54-19.23,18.09-36.23,29.75-50.55,12.3-14.05,26.14-25.25,40.36-33.12,7.04-3.97,14.47-6.98,21.97-9.07,7.45-2.11,14.89-3.35,22.23-3.68,14.67-.66,28.9,2.32,41.98,9.1Z"/>
        <path class="cls-6" d="M838.14,287.27c-4.32,8.49-9.22,16.43-14.59,23.82-5.38,7.38-10.64,14.51-16.65,20.88-11.84,12.83-25.47,23.26-39.01,31.43-27.52,16.09-58.75,21.66-86.04,11.19,0,0,1.87-.92,5.22-2.56,3.42-1.63,8.36-3.98,14.39-6.85,12.04-5.79,28.35-13.73,45.47-22.55,17.37-8.72,36.15-18.02,52.15-27.53,7.93-4.8,15.65-9.43,22.39-14.03,6.7-4.62,12.39-9.23,16.67-13.81Z"/>
        <path class="cls-3" d="M821.88,289.06c-1.66,2.28-16.62,3.15-23.05,3.92-6.36.4-16.99,1.87-19.11-2.27-1.99-3.93,10.97-6.83,20.44-7.66,9.47-.82,23.5,3.86,21.72,6Z"/>
        <path class="cls-3" d="M775.37,292.92c-.73,1.59-2.88,2.12-4.8,1.2-1.92-.92-2.88-2.97-2.15-4.57.79-1.57,3-2.08,4.91-1.14,1.92.94,2.82,2.95,2.04,4.51Z"/>
      </g>
      <g>
        <path class="cls-5" d="M648.59,189.26c-5.06,9.92-9.34,19.95-12.81,29.92-3.48,9.97-5.57,20.17-7.21,29.98-3.13,19.7-3.31,38.41.37,55.46,6.82,33.99,25.2,59.34,52.92,69.97,7.54-19.22,12.52-38.41,14.37-57.24,2.48-18.56,2.27-36.59-.67-53.34-1.54-8.41-3.47-16.35-5.99-23.8-2.56-7.47-5.8-14.49-9.69-20.9-7.79-12.83-18.21-23.28-31.29-30.05Z"/>
        <path class="cls-6" d="M648.59,189.26c-5.06,9.92-9.34,19.95-12.81,29.92-3.48,9.97-5.57,20.17-7.21,29.98-3.13,19.7-3.31,38.41.37,55.46,6.82,33.99,25.2,59.34,52.92,69.97,0,0-.81-1.97-2.26-5.48-1.36-3.5-3.23-8.56-5.46-14.86-4.45-12.59-10.22-30.15-15.56-49.87-5.1-19.6-9.13-41.1-11.49-61.6-1.26-10.28-1.63-20.08-1.32-29.11.27-9.05,1.17-17.34,2.83-24.42Z"/>
        <path class="cls-3" d="M656.02,204.79c-1.07,3.09,6.61,16.49,9.66,22.34,3.29,5.62,8.24,15.3,13.01,14.23,4.5-.99-.59-13.53-5.24-22.13-4.69-8.55-16.55-17.5-17.42-14.44Z"/>
        <path class="cls-3" d="M679.37,246.37c-.79,1.72.12,3.86,2.05,4.78,1.92.93,4.12.29,4.9-1.41.84-1.68-.01-3.79-1.93-4.73-1.91-.94-4.17-.33-5.02,1.36Z"/>
      </g>
      <g>
        <path class="cls-5" d="M872.89,188.34c-4.17,6.77-8.77,13.06-13.72,18.85-2.47,2.9-5.05,5.66-7.67,8.32-2.51,2.73-5.1,5.32-7.75,7.79-10.63,9.87-22.41,17.67-34.63,23.17-23.92,11.24-49.5,13.53-71.24,2.58,14.98-30.62,39.5-52.47,63.74-63.52,25.22-10.59,50.73-10.1,71.28,2.81Z"/>
        <path class="cls-6" d="M872.89,188.34c-4.17,6.77-8.77,13.06-13.72,18.85-2.47,2.9-5.05,5.66-7.67,8.32-2.51,2.73-5.1,5.32-7.75,7.79-10.63,9.87-22.41,17.67-34.63,23.17-23.92,11.24-49.5,13.53-71.24,2.58,0,0,6.51-2.4,16.76-6.18,10.23-3.92,24.18-9.26,39.14-15,15.06-5.83,30.91-12.33,44.77-19.12,14.26-6.56,26.66-13.34,34.35-20.41Z"/>
        <path class="cls-3" d="M859.38,188.79c-1.53,1.78-13.89,1.54-19.23,1.75-5.26-.08-14.08.41-15.52-3.15-1.36-3.38,9.48-4.91,17.32-4.98,7.84-.06,19.05,4.72,17.43,6.38Z"/>
        <path class="cls-3" d="M820.91,188.92c-.76,1.23-2.6,1.51-4.11.61-1.51-.9-2.12-2.63-1.35-3.87.77-1.24,2.61-1.51,4.11-.61,1.51.9,2.11,2.63,1.35,3.87Z"/>
      </g>
      <g>
        <path class="cls-5" d="M872.25,36.74c-.58,29.92-12.33,59.29-29.16,85.21-4.31,6.42-9.11,12.5-14.22,18.28-4.9,5.91-10.2,11.45-15.86,16.54-5.66,5.09-11.67,9.73-17.99,13.84-3.16,2.06-6.4,3.98-9.69,5.76-3.19,1.85-6.45,3.55-9.78,5.1-.38-3.7-.59-7.44-.62-11.21.07-3.71.34-7.45.76-11.21.85-7.51,2.38-15.1,4.5-22.63,2.12-7.53,4.85-15.01,8.09-22.32,3.46-7.17,7.54-14.1,12.02-20.77,17.51-26.98,44.19-47.64,71.94-56.59Z"/>
        <path class="cls-6" d="M872.25,36.74c-.58,29.92-12.33,59.29-29.16,85.21-4.31,6.42-9.11,12.5-14.22,18.28-4.9,5.91-10.2,11.45-15.86,16.54-5.66,5.09-11.67,9.73-17.99,13.84-3.16,2.06-6.4,3.98-9.69,5.76-3.19,1.85-6.45,3.55-9.78,5.1,0,0,4.61-6.9,12.51-17.37,3.84-5.3,8.37-11.57,13.35-18.45,2.44-3.47,4.99-7.09,7.62-10.82,1.3-1.87,2.62-3.78,3.95-5.7,1.4-1.88,2.82-3.78,4.25-5.7,5.69-7.68,11.48-15.68,17.04-23.69,5.58-8,10.8-16.11,16.08-23.53,10.28-15.03,18.42-28.97,21.91-39.47Z"/>
        <path class="cls-3" d="M859.13,47.92c-.46,2.29-12.89,12.09-18.09,16.48-5.31,4.16-13.84,11.5-17.3,10.79-1.65-.35-.23-3.1,2.83-6.39,3.05-3.3,7.49-7.29,11.39-10.49,7.83-6.4,21.81-12.69,21.18-10.39Z"/>
        <path class="cls-3" d="M821.08,79.14c.02,1.32-1.59,3-3.6,3.75-2.01.76-3.66.31-3.68-1.01-.02-1.32,1.59-3.01,3.6-3.76,2.01-.76,3.65-.3,3.67,1.02Z"/>
      </g>
      <g>
        <path class="cls-5" d="M723.88,95.11c-4.76,7.72-8.88,15.58-12.35,23.45-1.73,3.94-3.32,7.87-4.71,11.81-1.27,4-2.39,7.99-3.34,11.95-3.81,15.84-5.05,31.19-3.74,45.13,3.05,28.21,16.53,50.71,38.14,61.59,14.94-30.54,22.07-61.64,19.38-89.65-1.81-27.39-12.83-51.38-33.38-64.29Z"/>
        <path class="cls-6" d="M723.88,95.11c-4.76,7.72-8.88,15.58-12.35,23.45-1.73,3.94-3.32,7.87-4.71,11.81-1.27,4-2.39,7.99-3.34,11.95-3.81,15.84-5.05,31.19-3.74,45.13,3.05,28.21,16.53,50.71,38.14,61.59,0,0-2-6.6-4.77-17.33-2.76-10.73-6.44-25.72-8.86-41.98-2.6-16.34-4.68-34.35-5.24-51.24-.17-16.64,1.29-32.09,4.88-43.39Z"/>
        <path class="cls-3" d="M728.99,108.28c-1.07,2.44,4.37,13.92,6.48,18.92,2.33,4.83,5.75,13.1,9.72,12.56,3.74-.49.4-11.11-2.86-18.47-3.29-7.32-12.43-15.45-13.34-13.02Z"/>
        <path class="cls-3" d="M745.41,143.91c-.81,1.32-.24,3.11,1.27,4.01,1.51.9,3.39.56,4.2-.75.81-1.31.24-3.1-1.27-4.01-1.51-.9-3.39-.57-4.2.75Z"/>
      </g>
      <path class="cls-5" d="M631.92,1176.82c27.25,103.14,65.25,203.34,111.81,299.27,5.49,12.16,12.04,23.78,18.14,35.64,6.24,11.78,12.28,23.67,18.68,35.36l19.99,34.64,9.99,17.32c3.43,5.71,7.09,11.29,10.62,16.94l21.37,33.8c7.12,11.27,15.03,22.01,22.51,33.05l11.37,16.45c3.76,5.5,7.55,10.99,11.65,16.25l24.07,31.93c5.02,6.65,5.67,14.91,1.82,19.37-.34.48-.74.86-1.21,1.23-5.17,4.09-13.88,1.38-19.49-6.06l-24.44-32.41c-4.16-5.34-8-10.91-11.82-16.49l-11.54-16.7c-7.59-11.2-15.62-22.11-22.84-33.55l-21.7-34.31c-3.59-5.74-7.3-11.4-10.78-17.19l-10.14-17.58-20.28-35.16c-6.5-11.86-12.63-23.93-18.96-35.88-6.19-12.03-12.83-23.83-18.41-36.16-47.25-97.33-85.8-198.99-113.45-303.64-2.25-9.04,1.09-17.65,7.48-19.26.58-.15,1.13-.23,1.71-.2,5.85-.33,11.83,5.26,13.84,13.35Z"/>
      <path class="cls-6" d="M631.92,1176.82c27.25,103.14,65.25,203.34,111.81,299.27,5.49,12.16,12.04,23.78,18.14,35.64,6.24,11.78,12.28,23.67,18.68,35.36l19.99,34.64,9.99,17.32c3.43,5.71,7.09,11.29,10.62,16.94l21.37,33.8c7.12,11.27,15.03,22.01,22.51,33.05l11.37,16.45c3.76,5.5,7.55,10.99,11.65,16.25l24.07,31.93c5.02,6.65,5.67,14.91,1.82,19.37l-25.47-33.78-12.74-16.89c-4.12-5.72-8.05-11.58-12.08-17.36l-24.05-34.8c-7.77-11.76-15.14-23.8-22.73-35.68-15.52-23.57-28.94-48.4-43.2-72.73-7.05-12.21-13.24-24.9-19.9-37.33-6.43-12.55-13.41-24.82-19.21-37.68-49.17-101.49-89.24-207.6-116.49-317.11,5.85-.33,11.83,5.26,13.84,13.35Z"/>
    </g>
    <g>
      <g>
        <path class="cls-5" d="M487.74,1167.61c2.13,4.69,3.8,9.54,5.44,14.31,1.66,4.77,3.03,9.61,4.1,14.51,1.08,4.9,1.86,9.87,2.38,14.89.56,5,1.05,9.94,1.16,15,.34,10.04-.66,20.42-2.12,30.59-1.48,10.18-3.95,20.45-7.33,30.66-6.75,20.43-16.45,40.25-30.04,58.74-13.56,18.46-30.34,35.15-50.82,48.44-26.58-40.93-30.49-89.92-15.73-131.28,7.65-20.93,19.52-39.93,35.26-56.14,15.91-16.31,35.42-29.72,57.69-39.73Z"/>
        <path class="cls-6" d="M487.74,1167.61c2.13,4.69,3.8,9.54,5.44,14.31,1.66,4.77,3.03,9.61,4.1,14.51,1.08,4.9,1.86,9.87,2.38,14.89.56,5,1.05,9.94,1.16,15,.34,10.04-.66,20.42-2.12,30.59-1.48,10.18-3.95,20.45-7.33,30.66-6.75,20.43-16.45,40.25-30.04,58.74-13.56,18.46-30.34,35.15-50.82,48.44,0,0,4.15-11.28,10.64-28.89,3.24-8.73,7.06-19.03,11.23-30.3,4.13-11.18,9.03-23.49,13.75-35.91,9.29-24.8,19.99-51.18,27.72-74.19,8.4-23.4,13.7-43.47,13.89-57.87Z"/>
        <path class="cls-3" d="M471.09,1185.98c.44,3.12-15.2,19.58-21.53,27.03-6.65,7.1-16.81,19.57-23.8,19.48-6.62-.13,4.52-15.98,14.18-26.61,9.75-10.72,30.89-23.05,31.15-19.9Z"/>
        <path class="cls-3" d="M423.4,1238.54c.86,1.78-1,4.5-4.17,6.07-3.16,1.58-6.44,1.4-7.31-.41-.88-1.8.99-4.52,4.17-6.07,3.18-1.55,6.45-1.37,7.32.41Z"/>
      </g>
      <g>
        <path class="cls-5" d="M165.1,1312.78c23.1,51.23,64.92,87.26,110.45,101.31,11.21,3.67,23,5.84,34.62,6.79,11.64.94,23.26.6,34.69-1.04,22.81-3.22,45.15-11.78,65.65-25.08-26.39-40.67-64.39-69.27-108.24-84.62-21.56-7.76-44.85-11.9-68.2-11.81-23.17.03-46.69,4.42-68.97,14.44Z"/>
        <path class="cls-6" d="M165.1,1312.78c23.1,51.23,64.92,87.26,110.45,101.31,11.21,3.67,23,5.84,34.62,6.79,11.64.94,23.26.6,34.69-1.04,22.81-3.22,45.15-11.78,65.65-25.08,0,0-3.02-.22-8.39-.61-5.3-.48-12.95-1.25-22.36-2.41-9.41-1.16-20.59-2.72-32.94-4.79-12.37-2.06-25.46-4.89-39.32-8.16-27.85-6.45-56.7-15.95-82.62-27.21-25.22-11.56-47.54-24.84-59.77-38.8Z"/>
        <path class="cls-3" d="M191.06,1315.3c2.22,3.45,26.39,3.82,36.47,4.29,10.14.06,26.74.83,30.71-5.28,3.78-5.72-16.29-8.22-31.4-8.78-14.99-.5-38.28,6.62-35.79,9.77Z"/>
        <path class="cls-3" d="M264.77,1316.83c1.01,2.07,4.39,2.47,7.56.9,3.16-1.58,4.92-4.52,3.92-6.56-1-2.05-4.38-2.45-7.56-.9-3.18,1.55-4.93,4.49-3.93,6.56Z"/>
      </g>
      <g>
        <path class="cls-5" d="M424.86,1069.41c2.88,8.68,4.65,17.49,5.41,26.38,1.04,8.8,1.12,17.66.25,26.56-.98,8.94-2.48,17.74-4.85,26.49-2.39,8.75-5.64,17.44-9.69,25.95-15.42,33.62-43.41,65.08-81.5,83.12-4.54-9.51-7.57-19.44-9.79-29.28-2.28-9.82-3.09-19.84-2.86-29.69.23-9.86,1.29-19.47,3.64-28.87,2.41-9.42,5.76-18.5,9.99-27.09,8.3-17.13,20.86-32.52,36.02-44.99,15.19-12.5,33.23-22.16,53.4-28.58Z"/>
        <path class="cls-6" d="M424.86,1069.41c2.88,8.68,4.65,17.49,5.41,26.38,1.04,8.8,1.12,17.66.25,26.56-.98,8.94-2.48,17.74-4.85,26.49-2.39,8.75-5.64,17.44-9.69,25.95-15.42,33.62-43.41,65.08-81.5,83.12,0,0,19.43-36.66,41.3-77.91,5.5-10.28,11.06-20.8,16.33-31.13,5.45-10.4,10.77-20.67,15.35-30.34,8.94-19.29,16.4-36.66,17.4-49.12Z"/>
        <path class="cls-3" d="M408.89,1083.7c.23,2.74-15.11,15.54-21.33,21.36-6.53,5.52-16.51,15.26-22.53,14.44-5.68-.82,5.65-13.45,15.1-21.74,9.46-8.31,28.77-16.83,28.76-14.06Z"/>
        <path class="cls-3" d="M362.46,1124.48c.6,1.62-1.26,3.77-4.14,4.8-2.89,1.03-5.72.53-6.32-1.11-.6-1.64,1.25-3.79,4.14-4.8,2.89-1.01,5.72-.51,6.32,1.11Z"/>
      </g>
      <g>
        <path class="cls-5" d="M132.73,1162.43c3.72,11.34,8.4,22.07,13.86,32.05,5.74,9.88,12.32,18.99,19.48,27.24,7.06,8.29,15.14,15.54,23.66,21.82,8.5,6.29,17.44,11.61,26.67,15.89,37.76,16.93,79.65,16.67,118.06-1.52-4.54-9.51-9.51-18.53-15.5-26.78-6.04-8.23-12.43-15.97-19.45-23.07-7.02-7.09-14.88-13.45-22.95-19.25-8.01-5.82-16.58-10.94-25.57-15.32-18.15-8.69-37.28-14.68-57.35-16.86-20.03-2.18-40.74-.63-60.91,5.79Z"/>
        <path class="cls-6" d="M132.73,1162.43c3.72,11.34,8.4,22.07,13.86,32.05,5.74,9.88,12.32,18.99,19.48,27.24,7.06,8.29,15.14,15.54,23.66,21.82,8.5,6.29,17.44,11.61,26.67,15.89,37.76,16.93,79.65,16.67,118.06-1.52,0,0-2.57-.54-7.13-1.5-4.49-1.03-10.97-2.57-18.9-4.64-15.75-4.18-37.9-10.31-60.54-19.03-11.42-4.31-23.22-9.14-34.83-14.42-11.43-5.34-22.53-11.18-32.94-17.27-21.02-12.1-37.82-25.81-47.4-38.62Z"/>
        <path class="cls-3" d="M154.91,1166.97c1.69,3.09,22.15,5.81,30.74,7.2,8.6,1.07,22.8,3.36,26.85-1.45,3.86-4.51-12.97-8.68-25.81-10.64-12.82-1.88-33.66,2-31.79,4.89Z"/>
        <path class="cls-3" d="M217.91,1175.49c.68,1.86,3.57,2.53,6.46,1.5,2.89-1.03,4.68-3.35,4-5.19-.67-1.84-3.56-2.51-6.46-1.5-2.89,1.01-4.69,3.33-4.01,5.19Z"/>
      </g>
      <g>
        <path class="cls-5" d="M381.47,972.15c3.58,16.07,3.01,32.22.17,47.85-1.51,7.83-3.98,15.61-6.95,23.17-2.88,7.54-6.51,14.92-10.84,22.04-4.32,7.13-9.33,14.01-14.96,20.53-5.5,6.47-11.61,12.57-18.33,18.17-13.43,11.2-29.23,20.42-47.04,26.36-12.11-35.47-5.96-72.71,12.18-101.35,18.48-28.92,49.05-49.3,85.77-56.78Z"/>
        <path class="cls-6" d="M381.47,972.15c3.58,16.07,3.01,32.22.17,47.85-1.51,7.83-3.98,15.61-6.95,23.17-2.88,7.54-6.51,14.92-10.84,22.04-4.32,7.13-9.33,14.01-14.96,20.53-5.5,6.47-11.61,12.57-18.33,18.17-13.43,11.2-29.23,20.42-47.04,26.36,0,0,20.81-30.37,44.23-64.54,11.32-17.01,24.11-35.17,33.81-51.43,9.87-16.34,17.93-31.1,19.9-42.15Z"/>
        <path class="cls-3" d="M366.11,983.37c-.04,2.47-14.73,12.39-20.73,16.95-6.22,4.27-16.01,11.96-21.21,10.64-4.92-1.28,6.2-11.38,15.29-17.85,9.09-6.48,26.91-12.22,26.66-9.75Z"/>
        <path class="cls-3" d="M321.33,1015.16c.33,1.51-1.55,3.25-4.18,3.87-2.66.64-5.07-.09-5.4-1.62s1.54-3.26,4.19-3.88c2.65-.62,5.06.11,5.39,1.62Z"/>
      </g>
      <g>
        <path class="cls-5" d="M115.15,1027.12c4.48,20.44,12.33,39.17,23.7,54.8,5.59,7.84,11.68,15.03,18.51,21.34,6.92,6.29,14.33,11.78,22.09,16.4,7.76,4.63,15.89,8.39,24.25,11.22,8.51,2.79,17.27,4.64,26.13,5.55,17.72,1.81,35.89-.22,53.7-6.15-12.05-35.3-35.07-63.69-65.21-82.55-29.71-18.77-66.3-28.13-103.17-20.61Z"/>
        <path class="cls-6" d="M115.15,1027.12c4.48,20.44,12.33,39.17,23.7,54.8,5.59,7.84,11.68,15.03,18.51,21.34,6.92,6.29,14.33,11.78,22.09,16.4,7.76,4.63,15.89,8.39,24.25,11.22,8.51,2.79,17.27,4.64,26.13,5.55,17.72,1.81,35.89-.22,53.7-6.15,0,0-8.72-2.85-22.41-8.07-13.86-5.16-31.86-13.05-51.34-22.79-19.64-9.67-39.25-21.66-56.59-34.22-17.17-12.58-30.77-26.05-38.03-38.08Z"/>
        <path class="cls-3" d="M134.3,1033.07c1.21,2.85,19.01,7.09,26.47,9.1,7.54,1.71,19.76,5.06,23.83,1.22,3.85-3.6-10.65-8.81-21.79-11.7-11.14-2.82-29.89-1.31-28.5,1.39Z"/>
        <path class="cls-3" d="M188.99,1046.35c.38,1.7,2.82,2.57,5.48,1.94,2.63-.63,4.47-2.51,4.1-4.2-.37-1.69-2.82-2.56-5.47-1.94-2.65.61-4.49,2.49-4.11,4.2Z"/>
      </g>
      <g>
        <path class="cls-5" d="M350.56,871.16c3.09,29.31-6.52,57.51-24.42,81.13-8.91,11.77-20.18,22.35-33.28,30.91-13.09,8.55-27.76,15.02-44.11,18.42-3.43-16.22-2.72-32.48.69-47.47,3.93-15.09,10.78-28.97,20.07-40.79,19.28-23.82,47.89-39.01,81.05-42.2Z"/>
        <path class="cls-6" d="M350.56,871.16c3.09,29.31-6.52,57.51-24.42,81.13-8.91,11.77-20.18,22.35-33.28,30.91-13.09,8.55-27.76,15.02-44.11,18.42,0,0,5.38-6.17,13.77-15.81,8.47-9.68,19.89-22.79,31.64-36.71,12.09-13.99,24.71-28.78,34.83-42.31,10.53-13.59,18.75-25.96,21.57-35.63Z"/>
        <path class="cls-3" d="M335.98,879.69c-.26,2.2-14.12,9.62-19.84,13.09-5.88,3.19-15.22,9.08-19.7,7.4-4.23-1.6,6.51-9.5,15.12-14.37,8.62-4.89,24.87-8.29,24.42-6.12Z"/>
        <path class="cls-3" d="M293.56,903.63c.15,1.37-1.66,2.73-4.05,3.03-2.39.3-4.46-.57-4.61-1.95-.16-1.38,1.66-2.74,4.05-3.03,2.39-.29,4.46.58,4.61,1.95Z"/>
      </g>
      <g>
        <path class="cls-5" d="M110.51,894.8c3.8,36.67,21.99,67.94,47.65,87.05,12.86,9.61,27.31,16.33,42.61,19.72,15.31,3.4,31.71,3.43,47.97.04-3.43-16.21-9.34-31.13-18-44.38-8.15-13.33-18.84-25.05-31.28-34.73-24.17-19.38-55.8-30.9-88.96-27.71Z"/>
        <path class="cls-6" d="M110.51,894.8c3.8,36.67,21.99,67.94,47.65,87.05,12.86,9.61,27.31,16.33,42.61,19.72,15.31,3.4,31.71,3.43,47.97.04,0,0-1.86-.88-5.19-2.45-3.36-1.58-8.02-3.94-13.69-6.95-11.36-6.01-26.8-14.68-43.04-25.12-15.91-10.48-32.43-22.81-46.48-35.44-13.64-12.68-24.62-25.67-29.84-36.86Z"/>
        <path class="cls-3" d="M126.85,901.77c.8,2.6,16.11,7.96,22.5,10.42,6.49,2.2,16.96,6.29,20.91,3.3,3.73-2.8-8.58-8.73-18.14-12.29-9.57-3.5-26.25-3.91-25.27-1.43Z"/>
        <path class="cls-3" d="M173.87,918.5c.17,1.53,2.25,2.52,4.65,2.22s4.19-1.78,4.02-3.3c-.17-1.52-2.25-2.51-4.64-2.22-2.39.29-4.19,1.77-4.02,3.3Z"/>
      </g>
      <g>
        <path class="cls-5" d="M332.08,776.89c.04,6.6-.68,13.05-2.07,19.32-1.4,6.27-3.05,12.36-5.56,18.24-4.91,11.75-12.4,22.67-21.18,32.26-17.87,19.14-43.56,33.34-72.73,36.28-1.37-14.6.69-28.82,5.05-41.72,4.79-12.93,12.18-24.54,21.43-34.15,18.76-19.29,45.7-30.29,75.07-30.23Z"/>
        <path class="cls-6" d="M332.08,776.89c.04,6.6-.68,13.05-2.07,19.32-1.4,6.27-3.05,12.36-5.56,18.24-4.91,11.75-12.4,22.67-21.18,32.26-17.87,19.14-43.56,33.34-72.73,36.28,0,0,5.33-4.93,13.66-12.62,8.35-7.73,19.61-18.23,31.24-29.44,11.79-11.24,24.38-23.2,34.52-34.29,10.08-11.11,18.83-21.38,22.13-29.74Z"/>
        <path class="cls-3" d="M318.44,783.19c-.44,1.93-13.34,7.29-18.7,9.86-5.47,2.31-14.25,6.69-18.03,4.81-3.57-1.79,6.63-7.83,14.67-11.39,8.04-3.57,22.66-5.18,22.06-3.28Z"/>
        <path class="cls-3" d="M278.86,800.66c.05,1.22-1.63,2.26-3.77,2.32-2.13.06-3.9-.9-3.95-2.14-.02-1.24,1.72-2.28,3.85-2.32,2.13-.04,3.86.91,3.88,2.14Z"/>
      </g>
      <g>
        <path class="cls-5" d="M118.69,776.95c.04,8.07.83,15.94,2.3,23.5,1.47,7.56,4.04,14.79,6.97,21.62,5.97,13.65,14.2,25.62,24.79,35.16,20.83,19.22,48.32,28.72,77.78,25.75-1.37-14.59-5.25-28.26-11.68-40.7-6-12.46-14.23-23.73-24.31-33.33-19.87-19.14-46.29-31.95-75.85-32Z"/>
        <path class="cls-6" d="M118.69,776.95c.04,8.07.83,15.94,2.3,23.5,1.47,7.56,4.04,14.79,6.97,21.62,5.97,13.65,14.2,25.62,24.79,35.16,20.83,19.22,48.32,28.72,77.78,25.75,0,0-1.56-.95-4.34-2.64-2.73-1.72-6.6-4.23-11.32-7.4-9.44-6.34-22.21-15.38-35.53-26.02-13.16-10.63-26.43-22.91-37.64-35.19-11.28-12.26-19.37-24.58-23.01-34.79Z"/>
        <path class="cls-3" d="M132.41,784.44c.46,2.34,13.42,8.35,18.81,11.06,5.5,2.49,14.33,6.99,18.08,4.72,3.55-2.13-6.72-8.4-14.79-12.35-8.09-3.9-22.72-5.69-22.1-3.43Z"/>
        <path class="cls-3" d="M172.19,803.18c.06,1.35,1.83,2.41,3.96,2.35,2.13-.06,3.82-1.19,3.76-2.53-.02-1.34-1.75-2.4-3.88-2.35-2.13.05-3.86,1.18-3.84,2.54Z"/>
      </g>
      <g>
        <path class="cls-5" d="M315.94,704.62c-1.84,22.01-11.99,41.54-28.4,56.22-16.01,14.63-37.79,24.42-62.11,24.66-.49-24.2,10.57-45.96,26.82-60.57,16.95-14.66,39.49-22.17,63.69-20.31Z"/>
        <path class="cls-6" d="M315.94,704.62c-1.84,22.01-11.99,41.54-28.4,56.22-16.01,14.63-37.79,24.42-62.11,24.66,0,0,4.71-3.66,12.07-9.36,7.3-5.8,17.23-13.68,27.75-22.04,10.54-8.46,21.46-17.54,30.5-26.1,9.34-8.55,16.87-16.6,20.19-23.38Z"/>
        <path class="cls-3" d="M304.35,709.04c-.48,1.59-11.4,5.24-15.96,7.03-4.64,1.57-12.11,4.64-15.1,2.84-2.82-1.71,5.92-6.06,12.74-8.52,6.83-2.46,18.93-2.89,18.32-1.35Z"/>
        <path class="cls-3" d="M270.77,721.03c-.07,1.02-1.55,1.76-3.3,1.67-1.75-.09-3.12-1-3.05-2.02.07-1.02,1.55-1.77,3.3-1.67,1.75.1,3.12,1,3.05,2.02Z"/>
      </g>
      <g>
        <path class="cls-5" d="M239.96,607.69c14.55,19.73,19.54,42.21,17.58,63.93-.57,5.42-1.7,10.79-3.31,16.05-1.43,5.28-3.4,10.44-5.89,15.44-4.88,10-12.33,19.32-20.99,27.49-8.48-8.91-13.87-19.23-17.52-30.23-1.77-5.5-3-11.16-3.68-16.88-.51-5.7-.41-11.46.18-17.16,2.06-22.87,14.31-44.56,33.62-58.64Z"/>
        <path class="cls-6" d="M239.96,607.69c14.55,19.73,19.54,42.21,17.58,63.93-.57,5.42-1.7,10.79-3.31,16.05-1.43,5.28-3.4,10.44-5.89,15.44-4.88,10-12.33,19.32-20.99,27.49,0,0,.9-5.84,2.7-15.01,1.78-9.17,3.65-21.7,5.8-35.09,1.14-6.69,2.2-13.61,3.06-20.47.87-6.86,1.45-13.67,2.17-20.09,1.22-12.86,1.17-24.36-1.13-32.26Z"/>
        <path class="cls-3" d="M234.36,618.91c.76,1.63-4.95,11.75-7.2,16.19-2.45,4.32-6.07,11.69-9.47,12.28-3.39.53.23-8.79,3.75-15.31,3.49-6.55,12.3-14.85,12.92-13.16Z"/>
        <path class="cls-3" d="M217.34,650.76c.67.85.1,2.43-1.26,3.53s-3.02,1.32-3.69.47c-.67-.85-.1-2.44,1.27-3.55,1.37-1.11,3.02-1.31,3.69-.46Z"/>
      </g>
      <g>
        <path class="cls-5" d="M140.66,691.53c-.45,6.54-.27,12.96.48,19.18.38,3.11.89,6.17,1.56,9.17.76,3,1.65,5.94,2.67,8.8,4.08,11.46,10.21,21.73,17.91,30.22,15.75,17.06,37.94,26.85,62.16,26.61-.49-24.12-9.12-46.08-24.59-63.14-14.79-16.94-35.98-28.99-60.18-30.84Z"/>
        <path class="cls-6" d="M140.66,691.53c-.45,6.54-.27,12.96.48,19.18.38,3.11.89,6.17,1.56,9.17.76,3,1.65,5.94,2.67,8.8,4.08,11.46,10.21,21.73,17.91,30.22,15.75,17.06,37.94,26.85,62.16,26.61,0,0-4.8-3.5-12.17-9.37-7.37-5.88-17.44-14.18-27.29-23.77-9.98-9.58-20.27-20.46-28.7-31.16-8.13-10.68-14.31-21.18-16.61-29.67Z"/>
        <path class="cls-3" d="M151.47,698.45c.24,1.92,10.52,7.62,14.78,10.17,4.37,2.37,11.34,6.6,14.56,4.99,3.04-1.51-5.01-7.28-11.4-10.99-6.41-3.68-18.32-6.04-17.94-4.17Z"/>
        <path class="cls-3" d="M183.01,716.21c-.07,1.11,1.29,2.08,3.04,2.17,1.75.09,3.24-.72,3.31-1.82.07-1.1-1.29-2.07-3.04-2.17s-3.24.72-3.31,1.82Z"/>
      </g>
    </g>
    <g>
      <path class="cls-2" d="M1365.4,1040.73s-3.32,1.57-9.64,4.55c-3.16,1.51-7.08,3.39-11.7,5.6-2.32,1.12-4.81,2.32-7.47,3.61-2.64,1.34-5.34,2.94-8.27,4.54-5.83,3.28-12.31,6.93-19.41,10.91-6.99,4.18-14.33,9.12-22.37,14.27-8.17,5-16.15,11.33-24.95,17.69-8.91,6.25-17.56,13.76-26.87,21.47-2.32,1.94-4.67,3.9-7.04,5.89-2.35,2.01-4.57,4.21-6.91,6.34-4.62,4.33-9.35,8.76-14.17,13.28-4.94,4.43-9.4,9.48-14.19,14.42-4.71,5.01-9.64,10.02-14.4,15.34-4.62,5.45-9.32,11-14.09,16.63-2.36,2.84-4.83,5.64-7.15,8.6-2.26,3-4.54,6.02-6.83,9.06-4.55,6.12-9.32,12.24-13.84,18.66-4.35,6.55-8.77,13.18-13.24,19.89-4.62,6.64-8.53,13.82-12.76,20.94-4.12,7.18-8.57,14.3-12.25,21.94-3.83,7.56-7.71,15.21-11.62,22.93-3.46,7.94-6.96,15.95-10.49,24.04-13.44,32.64-24.53,67.72-32.07,104.55-7.13,36.91-10.31,73.56-10.39,108.85.17,8.82.33,17.56.49,26.22.66,8.63,1.31,17.17,1.96,25.62.47,8.46,1.86,16.75,2.92,24.95,1.18,8.19,2.04,16.33,3.77,24.23,1.56,7.91,3.1,15.73,4.61,23.44,1.71,7.67,3.79,15.14,5.64,22.54.96,3.69,1.9,7.35,2.85,10.99,1.01,3.61,2.22,7.15,3.32,10.68,2.25,7.03,4.47,13.95,6.65,20.75,2.36,6.74,5,13.25,7.43,19.69,2.54,6.4,4.72,12.77,7.59,18.75,2.72,6.02,5.39,11.91,8.01,17.69,1.34,2.87,2.55,5.75,3.95,8.5,1.43,2.74,2.85,5.45,4.25,8.13,5.65,10.69,10.77,20.94,16.6,30.12,5.69,9.25,10.65,18.15,16.28,25.9,5.46,7.84,10.35,15.21,15.2,21.75,5.03,6.4,9.62,12.25,13.75,17.51,2.09,2.6,3.98,5.11,5.9,7.36,1.97,2.21,3.81,4.28,5.52,6.2,3.42,3.81,6.32,7.04,8.67,9.65,4.69,5.17,7.16,7.89,7.16,7.89,0,0-.07-.11-.22-.35-.72-1.18-3.23-5.29-7.36-12.05-4.13-6.74-10.1-15.92-16.49-28.07-13.51-23.76-30.52-58.18-45.91-101.72-15.59-43.43-28.34-96.42-34.74-155.43-2.6-29.57-4.26-60.58-2.82-92.6,1.47-31.98,5.1-64.87,11.46-98.05,6.7-32.32,15.64-63.39,26.13-92.91,10.82-29.41,23.5-57.04,36.88-82.92,27.55-51.33,59.06-94.69,89.27-129.1,30.21-34.49,59.18-59.83,81.05-77.57,5.51-4.42,10.52-8.43,15-12.01,4.64-3.37,8.74-6.33,12.24-8.87,7.04-5.11,11.72-8.52,13.81-10.04.23-.17.46-.35.71-.5.36-.27.54-.4.54-.4Z"/>
      <path class="cls-4" d="M1365.4,1040.73s-3.32,1.57-9.64,4.55c-3.16,1.51-7.08,3.39-11.7,5.6-2.32,1.12-4.81,2.32-7.47,3.61-2.64,1.34-5.34,2.94-8.27,4.54-5.83,3.28-12.31,6.93-19.41,10.91-6.99,4.18-14.33,9.12-22.37,14.27-8.17,5-16.15,11.33-24.95,17.69-8.91,6.25-17.56,13.76-26.87,21.47-2.32,1.94-4.67,3.9-7.04,5.89-2.35,2.01-4.57,4.21-6.91,6.34-4.62,4.33-9.35,8.76-14.17,13.28-4.94,4.43-9.4,9.48-14.19,14.42-4.71,5.01-9.64,10.02-14.4,15.34-4.62,5.45-9.32,11-14.09,16.63-2.36,2.84-4.83,5.64-7.15,8.6-2.26,3-4.54,6.02-6.83,9.06-4.55,6.12-9.32,12.24-13.84,18.66-4.35,6.55-8.77,13.18-13.24,19.89-4.62,6.64-8.53,13.82-12.76,20.94-4.12,7.18-8.57,14.3-12.25,21.94-3.83,7.56-7.71,15.21-11.62,22.93-3.46,7.94-6.96,15.95-10.49,24.04-13.44,32.64-24.53,67.72-32.07,104.55-7.13,36.91-10.31,73.56-10.39,108.85.17,8.82.33,17.56.49,26.22.66,8.63,1.31,17.17,1.96,25.62.47,8.46,1.86,16.75,2.92,24.95,1.18,8.19,2.04,16.33,3.77,24.23,1.56,7.91,3.1,15.73,4.61,23.44,1.71,7.67,3.79,15.14,5.64,22.54.96,3.69,1.9,7.35,2.85,10.99,1.01,3.61,2.22,7.15,3.32,10.68,2.25,7.03,4.47,13.95,6.65,20.75,2.36,6.74,5,13.25,7.43,19.69,2.54,6.4,4.72,12.77,7.59,18.75,2.72,6.02,5.39,11.91,8.01,17.69,1.34,2.87,2.55,5.75,3.95,8.5,1.43,2.74,2.85,5.45,4.25,8.13,5.65,10.69,10.77,20.94,16.6,30.12,5.69,9.25,10.65,18.15,16.28,25.9,5.46,7.84,10.35,15.21,15.2,21.75,5.03,6.4,9.62,12.25,13.75,17.51,2.09,2.6,3.98,5.11,5.9,7.36,1.97,2.21,3.81,4.28,5.52,6.2,3.42,3.81,6.32,7.04,8.67,9.65,4.69,5.17,7.16,7.89,7.16,7.89-109.94-132.95-158.16-317.92-124.64-490.87,33.34-172.88,148.19-328.87,304.22-411.71Z"/>
    </g>
    <g>
      <path class="cls-2" d="M111.76,1367.9s.19,4.62.56,13.41c.18,8.87,1.62,21.8,3.89,38.54,4.94,33.35,16.36,81.33,39.21,137.87,2.75,7.12,6.1,14.13,9.27,21.47,3.24,7.29,6.47,14.82,10.3,22.2,3.74,7.46,7.55,15.07,11.44,22.82,4.12,7.62,8.5,15.3,12.9,23.16,18.04,31.13,39.05,63.69,64.69,95.42,3.18,3.98,6.22,8.14,9.59,12.05,3.38,3.91,6.78,7.84,10.2,11.8,6.94,7.83,13.61,16.09,21.23,23.64,7.49,7.68,15.05,15.45,22.69,23.29,8.07,7.43,16.22,14.92,24.44,22.49,33.59,29.52,71.19,57.17,112.39,81.26,41.52,23.57,84.55,42.02,127.21,56.17,21.66,6.04,42.67,12.86,63.95,16.61,10.58,2.07,20.96,4.53,31.36,6.11,10.43,1.36,20.74,2.71,30.92,4.04,81.61,9.56,155.26,2.91,214.79-8.73,3.74-.65,7.43-1.29,11.07-1.93,3.64-.63,7.18-1.65,10.7-2.45,7.01-1.7,13.83-3.36,20.46-4.97,6.6-1.64,13.02-3.23,19.24-4.77,3.1-.81,6.17-1.47,9.14-2.37,2.96-.94,5.87-1.86,8.73-2.77,11.38-3.67,21.98-7.08,31.73-10.23,4.85-1.59,9.48-3.12,13.9-4.57,4.41-1.48,8.49-3.29,12.4-4.79,31.2-12.45,48.09-19.67,48.09-19.67,0,0-.15.04-.52.08-3.44.48-24.1,3.43-57.99,8.94-17.08,2.18-37.65,4.12-60.94,6.92-11.72.72-24.19,1.48-37.37,2.29-6.55.42-13.27.86-20.16,1.3-6.9.04-13.97.07-21.21.11-57.63,1.01-125.32-3.08-197-18.83-8.94-2.04-18.01-3.9-27.11-6.06-8.99-2.57-18.07-5.17-27.25-7.79-4.58-1.28-9.19-2.57-13.82-3.87-4.54-1.59-9.1-3.2-13.68-4.81-9.15-3.18-18.39-6.39-27.7-9.62-36.71-14.46-73.58-31.7-109.91-52.2-35.13-20.67-68.08-43.23-98.73-67.02-30.35-24.18-58.15-49.66-83.75-75.26-25.14-26.04-48.05-52.15-68.42-77.89-19.96-25.98-38.34-50.96-53.45-75.2-31.11-48.03-52.16-91.2-65.68-123.67-6.91-16.22-11.44-29.9-15.14-40.17-3.13-10.44-5.21-17.39-6.14-20.48-.11-.35-.23-.69-.29-1.05-.17-.54-.25-.81-.25-.81Z"/>
      <path class="cls-4" d="M111.76,1367.9s.19,4.62.56,13.41c.18,8.87,1.62,21.8,3.89,38.54,4.94,33.35,16.36,81.33,39.21,137.87,2.75,7.12,6.1,14.13,9.27,21.47,3.24,7.29,6.47,14.82,10.3,22.2,3.74,7.46,7.55,15.07,11.44,22.82,4.12,7.62,8.5,15.3,12.9,23.16,18.04,31.13,39.05,63.69,64.69,95.42,3.18,3.98,6.22,8.14,9.59,12.05,3.38,3.91,6.78,7.84,10.2,11.8,6.94,7.83,13.61,16.09,21.23,23.64,7.49,7.68,15.05,15.45,22.69,23.29,8.07,7.43,16.22,14.92,24.44,22.49,33.59,29.52,71.19,57.17,112.39,81.26,41.52,23.57,84.55,42.02,127.21,56.17,21.66,6.04,42.67,12.86,63.95,16.61,10.58,2.07,20.96,4.53,31.36,6.11,10.43,1.36,20.74,2.71,30.92,4.04,81.61,9.56,155.26,2.91,214.79-8.73,3.74-.65,7.43-1.29,11.07-1.93,3.64-.63,7.18-1.65,10.7-2.45,7.01-1.7,13.83-3.36,20.46-4.97,6.6-1.64,13.02-3.23,19.24-4.77,3.1-.81,6.17-1.47,9.14-2.37,2.96-.94,5.87-1.86,8.73-2.77,11.38-3.67,21.98-7.08,31.73-10.23,4.85-1.59,9.48-3.12,13.9-4.57,4.41-1.48,8.49-3.29,12.4-4.79,31.2-12.45,48.09-19.67,48.09-19.67l-38.74,11.82-19.42,5.9c-6.52,1.78-13.13,3.22-19.7,4.84l-39.55,9.46-40.11,7.03c-53.63,8.22-108.3,13.1-163.01,10.04-54.65-2.54-109.26-10.86-162.29-25.75-13.13-4.12-26.41-7.85-39.42-12.35l-38.64-14.74-37.65-17.21c-12.3-6.26-24.38-12.95-36.58-19.43-96.07-54.75-178.97-131.94-242.98-222.09-32.07-45.07-59.73-93.29-82.25-143.83-21.94-50.69-39.52-103.83-46.18-158.77Z"/>
    </g>
    <g>
      <path class="cls-5" d="M1095.82,1900.62c0,.31,0,.67-.04.98-.58,5.74-5.43,10.01-11.08,10.01-.36,0-.71,0-1.07-.04-277.82-27.31-446.93-157.99-539.85-262.83-100.79-113.69-135.31-219.51-136.73-223.95-1.56-4.89.49-10.14,4.67-12.68v-.04c.8-.53,1.65-.93,2.58-1.25,5.83-1.87,12.1,1.33,13.97,7.21.31,1.07,34.83,106.48,132.86,216.75,90.25,101.5,254.51,228.09,524.68,254.69,5.78.53,10.05,5.43,10.01,11.16Z"/>
      <path class="cls-6" d="M1095.82,1900.62c-1.73,1.11-3.74,1.74-5.92,1.74-.4,0-.76-.04-1.11-.09-277.82-27.31-446.89-157.99-539.85-262.79-100.79-113.73-135.31-219.55-136.69-224-.36-1.11-.53-2.27-.53-3.38v-.04c.8-.53,1.65-.93,2.58-1.25,5.83-1.87,12.1,1.33,13.97,7.21.31,1.07,34.83,106.48,132.86,216.75,90.25,101.5,254.51,228.09,524.68,254.69,5.78.53,10.05,5.43,10.01,11.16Z"/>
    </g>
  </g>
</svg>