<svg id="Layer_1" data-name="Layer 1" xmlns="http://www.w3.org/2000/svg" viewBox="0 0 512 512"><path d="M292.675,102.71c1.557.618,3.135,1.144,4.8,1.7a54.957,54.957,0,0,1,11.1,4.679c8.693,3.972,14,11.437,19.129,18.659,1.013,1.424,2.058,2.894,3.1,4.3.779.805,1.4,1.565,1.962,2.244a8.28,8.28,0,0,0,1.656,1.732c.082.042.164.085.244.131,17.367,9.924,24.741,26.64,29.224,40.093.03.088.057.176.082.265,1.159,4.253,3.836,8.422,6.67,12.835,4.109,6.4,8.357,13.013,9.042,21.25.012.138.018.276.018.415a114.509,114.509,0,0,0,5.966,36.788c.041.121.076.244.107.368a29.5,29.5,0,0,1,.363,9.924c-.11,1.316-.213,2.558-.213,3.733a5.016,5.016,0,0,1-.119,1.085c-1.065,4.791-2.4,9.6-3.692,14.246-1.24,4.464-2.521,9.077-3.523,13.557a43.59,43.59,0,0,0-.119,7.835,41.426,41.426,0,0,1-.857,12.733,16.589,16.589,0,0,1-4.562,11.115c-3.344,3.343-5.831,7.351-8.464,11.594-1.033,1.664-2.1,3.382-3.252,5.116a33.941,33.941,0,0,0-2.783,8.316c-1.243,5.058-2.652,10.79-7.279,15.416-1.234,1.235-2.4,2.613-3.634,4.072-2.627,3.1-5.605,6.624-9.771,9.124-.06.036-.119.07-.179.1-6.09,3.322-10.317,8.532-14.792,14.047A91.974,91.974,0,0,1,312.7,401.407a5.128,5.128,0,0,1-.416.332c-5.941,4.243-12.8,6.511-19.429,8.7-2.309.764-4.491,1.485-6.609,2.28-4.269,1.6-7.726,4.277-11.387,7.111a73.913,73.913,0,0,1-8.629,6.029c-.133.077-.271.147-.411.211-.217.1-.436.185-.654.278L310.072,426c15.127,0,29.695-4.908,43.782-9.638,2.515-.844,5.017-1.692,7.507-2.5q3.864-1.255,7.754-2.469c15-4.718,29.167-9.176,40.891-17.709,11.822-8.6,20.8-21.2,29.486-33.378q2.38-3.339,4.768-6.642c1.636-2.249,3.307-4.493,4.984-6.745,8.852-11.889,18-24.182,22.54-38.156,4.43-13.643,4.305-28.612,4.171-44.459-.022-2.679-.045-5.363-.045-8.05s.023-5.371.045-8.049c.134-15.84.259-30.8-4.171-44.445-4.521-13.927-13.637-26.16-22.453-37.992-1.705-2.289-3.405-4.57-5.07-6.858-1.535-2.109-3.058-4.24-4.582-6.373-8.734-12.226-17.764-24.866-29.673-33.534-11.7-8.512-25.829-12.952-40.792-17.653-2.622-.824-5.245-1.648-7.853-2.5-2.116-.687-4.241-1.393-6.374-2.1C340.548,91.96,325.616,87,310.109,87H266.46a125.05,125.05,0,0,1,12.964,7.845A98.9,98.9,0,0,0,292.675,102.71ZM448.16,204.082a178.188,178.188,0,0,1-3.943,120.523,5,5,0,1,1-9.287-3.706,168.191,168.191,0,0,0,3.718-113.73,5,5,0,0,1,9.512-3.087Zm-17.68-28.433a5,5,0,0,1,6.735,2.157c1.076,2.089,2.126,4.233,3.121,6.373a5,5,0,1,1-9.068,4.217c-.939-2.02-1.929-4.042-2.944-6.013A5,5,0,0,1,430.48,175.649Z"/><path d="M36.1,257.892c5.635,14.09,6.433,28.06,7.206,41.569.126,2.207.252,4.414.4,6.621.007.11.011.221.011.332a14.759,14.759,0,0,0,1.464,4.855,42.951,42.951,0,0,0,4.558,5.852,50.482,50.482,0,0,1,5.709,7.46,4.839,4.839,0,0,1,.265.5,108.2,108.2,0,0,1,4.48,12.437c2.4,7.646,4.674,14.871,9.958,20.217,1.973,1.75,4.049,3.5,6.059,5.2,7.55,6.37,15.352,12.954,21.383,22.244l8.554,8.554a80.288,80.288,0,0,0,13.929,6.371c6.513,2.485,13.243,5.053,19.077,10.1a107.854,107.854,0,0,0,14.208,7.611c3.273.886,6.379.751,9.967.593,1.429-.062,2.88-.126,4.381-.126a38.406,38.406,0,0,1,5.488.362c.092.013.183.028.274.046a125.142,125.142,0,0,1,12.773,3.453c5.279,1.637,10.266,3.182,15.78,3.734.162.016.324.04.483.072,3.821.763,7.927.073,11.535-.791a36.844,36.844,0,0,1,11.159-4.342c.129-.032.26-.059.391-.081a97.113,97.113,0,0,1,15.429-.927c7.425-.046,14.444-.09,20.448-2.748a67.147,67.147,0,0,0,7.264-5.137c4.087-3.163,8.313-6.435,14-8.567,2.3-.863,4.682-1.65,6.982-2.41,6.1-2.018,11.871-3.926,16.542-7.195a85.013,85.013,0,0,0,8.883-9.871c4.869-6,9.9-12.206,17.669-16.472,2.711-1.651,4.894-4.231,7.2-6.962,1.312-1.55,2.669-3.153,4.2-4.682,2.653-2.653,3.573-6.4,4.639-10.732a41.139,41.139,0,0,1,3.888-11.028c.058-.1.118-.2.182-.293,1.1-1.651,2.157-3.353,3.179-5,2.817-4.538,5.73-9.231,9.889-13.391a6.83,6.83,0,0,0,1.648-4.761,4.981,4.981,0,0,1,.192-1.373c.96-3.361.82-6.532.659-10.205a51.266,51.266,0,0,1,.236-9.869q.027-.191.069-.378c1.065-4.8,2.4-9.607,3.694-14.259,1.21-4.357,2.459-8.855,3.452-13.233.024-1.38.134-2.7.242-3.985a21.707,21.707,0,0,0-.06-6.5,124.3,124.3,0,0,1-6.411-39.523c-.538-5.684-3.908-10.932-7.474-16.484-3.091-4.815-6.288-9.792-7.866-15.467-5.88-17.586-13.232-27.883-24.558-34.39a15.131,15.131,0,0,1-4.76-4.25c-.523-.635-1.017-1.236-1.579-1.8a4.9,4.9,0,0,1-.464-.534c-1.189-1.584-2.339-3.2-3.451-4.769-4.61-6.487-8.963-12.614-15.32-15.439a5.064,5.064,0,0,1-.542-.282,45.552,45.552,0,0,0-9.379-3.922c-1.768-.589-3.6-1.2-5.461-1.945-.072-.029-.142-.059-.212-.091a106.968,106.968,0,0,1-14.75-8.685c-5.693-3.78-11.081-7.358-17.2-9.534-12.279-.036-26.716-.907-41.4-6.554-.068-.026-.134-.059-.2-.088l-8.227-1.136a17.532,17.532,0,0,0-1.97.353,155.7,155.7,0,0,1-43.806,6.389c-2.948,0-5.237.633-9,2.5a70.577,70.577,0,0,0-6.6,4.747,77.656,77.656,0,0,1-7.756,5.525,4.718,4.718,0,0,1-.5.264c-4.022,1.828-8.238,3.274-12.315,4.672-7.66,2.627-14.9,5.11-20.343,9.8-1.919,2.421-3.9,5.142-5.814,7.777-2.071,2.848-4.213,5.793-6.358,8.473a4.969,4.969,0,0,1-.369.413,77.771,77.771,0,0,1-11.173,8.771c-4.609,3.178-8.968,6.185-12.027,10.15-2.059,3.7-3.267,7.806-4.543,12.147a87.374,87.374,0,0,1-3.344,9.882q-.1.235-.224.459a94.582,94.582,0,0,1-7.758,11.307c-3.482,4.574-6.773,8.9-8.38,13.53-.862,4.061-.862,8.492-.862,13.178,0,5.113,0,10.4-1.157,15.6-.021.1-.045.193-.073.288-.8,2.808-1.733,5.422-2.635,7.951a64.477,64.477,0,0,0-3.4,11.81c-.024,1.218-.156,2.356-.273,3.372a15.752,15.752,0,0,0-.173,2.457Q36.059,257.783,36.1,257.892ZM172.986,141.973c17.869-5.957,34.5-8.485,49.451-7.516,16.289.038,33.657,5.689,50.239,16.349,5.6,3.734,10.062,8.357,14.378,12.829a105.116,105.116,0,0,0,10.875,10.244,5.053,5.053,0,0,1,.466.411,21.449,21.449,0,0,1,5.28,8.984,101.437,101.437,0,0,1,3.987,11.445c1.794,5.909,3.488,11.491,6.912,16.628,2.53,3.793,2.215,8.028,1.986,11.119-.056.752-.109,1.462-.109,2.025a4.965,4.965,0,0,1-.1.98c-1.016,5.083-.607,10.345-.174,15.916a82.16,82.16,0,0,1,.247,14.712,5,5,0,0,1-.907,2.408c-2.713,3.8-3.311,8.778-3.943,14.05a74.236,74.236,0,0,1-1.47,9.035c-.887,4.287-3.207,7.717-5.255,10.747-.842,1.244-1.642,2.427-2.219,3.5a12.272,12.272,0,0,0,.077,3.8,32.821,32.821,0,0,1,.261,3.663,5.041,5.041,0,0,1-.1.98c-1.179,5.892-5.053,9.566-8.165,12.517-.515.488-1.02.966-1.5,1.445-.811.81-.906,1.594-.857,4.281a16.092,16.092,0,0,1-1.319,7.9,5,5,0,1,1-8.943-4.472,8.765,8.765,0,0,0,.264-3.243c-.055-3.032-.141-7.614,3.784-11.538.539-.539,1.108-1.08,1.688-1.63,2.273-2.155,4.427-4.2,5.13-6.757-.03-.63-.107-1.321-.187-2.043a18.735,18.735,0,0,1,.457-8.355,5.041,5.041,0,0,1,.27-.655,45.1,45.1,0,0,1,3.069-5c1.69-2.5,3.286-4.859,3.759-7.23.016-.078.033-.155.053-.232a64.94,64.94,0,0,0,1.269-7.91c.67-5.59,1.425-11.876,4.928-17.467a82.073,82.073,0,0,0-.366-11.737c-.455-5.858-.927-11.911.248-18.184.019-.761.074-1.516.129-2.251.136-1.828.289-3.9-.333-4.833-4.244-6.366-6.235-12.926-8.161-19.27a90.344,90.344,0,0,0-3.655-10.509q-.1-.221-.173-.449a12.117,12.117,0,0,0-2.746-5.1,114.973,114.973,0,0,1-11.662-10.982c-4.128-4.278-8.026-8.318-12.659-11.407-14.952-9.611-30.512-14.715-44.928-14.715-.112,0-.222,0-.333-.012-13.685-.911-29.089,1.449-45.789,7.014a5,5,0,1,1-3.162-9.486Zm66.863,104.7a4.954,4.954,0,0,1-.643-2.72,4.989,4.989,0,0,1-3.224-1.837c-.3-.047-.768-.081-1.1-.106a9.941,9.941,0,0,1-6.812-2.579,22.311,22.311,0,0,0-4.1-3.015c-.733-.464-1.524-.966-2.393-1.544a5.1,5.1,0,0,1-.763-.627,9.692,9.692,0,0,1-2.243-4.027c-.046-.139-.1-.309-.152-.445-1.57-1.6-2.871-3.164-4.132-4.677-1.172-1.406-2.282-2.739-3.555-4.041a17.1,17.1,0,0,0-14.683-2.04A17.506,17.506,0,0,0,184.419,229.4a5,5,0,0,1-9.334-3.589,27.43,27.43,0,0,1,18.122-16.38,26.962,26.962,0,0,1,23.707,3.761,4.989,4.989,0,0,1,.6.509c1.715,1.715,3.105,3.385,4.451,5,1.259,1.511,2.448,2.938,3.844,4.333a9.706,9.706,0,0,1,2.246,4.03c.013.043.029.088.045.135.425.275.832.533,1.219.779a32.9,32.9,0,0,1,5.411,3.988c.257.031.611.058.894.079,2.074.154,5.936.441,8.439,4.2a4.955,4.955,0,0,1,.817,3.027,4.971,4.971,0,0,1,3.654,2.451c9.443,16.521,5.3,26.114.16,31.252-.417.418-.913,1-1.438,1.617-1.9,2.233-4.271,5.012-7.9,6.178a5,5,0,0,1-1.53.24H235a5,5,0,0,1,0-10h1.771a17.22,17.22,0,0,0,2.869-2.9c.63-.738,1.28-1.5,1.98-2.2C245.51,262,244.914,255.538,239.849,246.675Zm-73.862,18.07a34.428,34.428,0,0,0,.469-5,11.346,11.346,0,0,1,1.855-6.07c-.014-.04-.028-.082-.042-.127a12.52,12.52,0,0,1-.776-4.173,5,5,0,1,1,10,0,3.6,3.6,0,0,0,.262,1.011,12.551,12.551,0,0,1,.775,4.174A4.988,4.988,0,0,1,178,256.8c-.327.654-.651,1.222-.955,1.747-.545.944-.591,1.067-.591,1.2a43.784,43.784,0,0,1-.568,6.411,36.251,36.251,0,0,0-.467,4.7,22.3,22.3,0,0,0,9.6,15.644,25.255,25.255,0,0,0,20.48,3.647,5,5,0,0,1,2.426,9.7,35.661,35.661,0,0,1-8.65,1.067,35.069,35.069,0,0,1-19.939-6.187,32.177,32.177,0,0,1-13.885-23,5.184,5.184,0,0,1-.034-.584A43.771,43.771,0,0,1,165.987,264.745Zm18.421,104.768a14.592,14.592,0,0,0,1.592.6,23.594,23.594,0,0,1,2.766,1.076,127.3,127.3,0,0,0,18.828,3.115c4.07.464,8.272.943,12.635,1.7,19.427-3.328,35.582-15.448,47.526-25.685a5,5,0,0,1,6.508,7.593c-13.112,11.237-31.018,24.588-53.288,28.1a4.971,4.971,0,0,1-.78.061,5.071,5.071,0,0,1-.894-.08c-4.346-.79-8.664-1.283-12.841-1.76a134.253,134.253,0,0,1-20.765-3.521,5.065,5.065,0,0,1-.922-.352,13,13,0,0,0-1.936-.766,22.781,22.781,0,0,1-3.247-1.308,5.044,5.044,0,0,1-.7-.428c-8.5-6.184-14.859-12.974-21-19.541-2.438-2.6-4.957-5.3-7.59-7.929a5.031,5.031,0,0,1-.465-.536c-4.442-5.922-6.462-14.263-7.125-17.575l-.02-.109c-.15-.128-.328-.272-.465-.384-.109-.087-.22-.178-.335-.272-7.533-3.051-11.9-10.954-12.646-17.858a5,5,0,0,1,2.814-9.134,7.26,7.26,0,0,1,7.074,7.074c0,4.1,2.793,9.425,6.951,10.811a5,5,0,0,1,1.954,1.208c.134.129.3.257.477.4,1.261,1.019,3.81,3.083,4.077,6.672,1.081,5.2,2.949,9.972,5.051,12.906,2.648,2.659,5.138,5.32,7.55,7.9C171.183,357.9,176.854,363.96,184.408,369.513ZM88.6,213.543a33.59,33.59,0,0,1,15.91-24.4,5.045,5.045,0,0,1,1.069-.5c1.989-.663,3.45-2.123,5.3-3.973a5.075,5.075,0,0,1,.633-.537c6.622-4.73,13.881-5.188,20.285-5.591,2.029-.128,3.947-.248,5.852-.487a4.949,4.949,0,0,1,.62-.038c1.6,0,2.811-1.847,5.084-6.266.637-1.238,1.3-2.518,2.035-3.75a4.985,4.985,0,0,1,.753-.964,22.944,22.944,0,0,0,2.127-2.575,37.146,37.146,0,0,1,2.356-2.914c.151-.433.277-.935.424-1.521a19.164,19.164,0,0,1,1.416-4.134,5,5,0,1,1,8.943,4.471,10.737,10.737,0,0,0-.658,2.088,19.188,19.188,0,0,1-1.416,4.135,5.008,5.008,0,0,1-.937,1.3,23.021,23.021,0,0,0-2.128,2.575,34.989,34.989,0,0,1-2.583,3.158c-.475.831-.946,1.746-1.439,2.706-2.5,4.863-5.916,11.5-13.638,11.687-2.113.253-4.18.383-6.182.51-5.658.356-10.563.665-14.786,3.528a23.319,23.319,0,0,1-8.269,5.855c-14.263,9.282-12.726,26.755-7.014,39a5,5,0,1,1-9.062,4.228C89.034,231.986,87.366,222.191,88.6,213.543Z"/></svg>