<?xml version="1.0" encoding="UTF-8"?>
<svg id="Layer_1" data-name="Layer 1" xmlns="http://www.w3.org/2000/svg" viewBox="0 0 100 100">
  <defs>
    <style>
      .cls-1 {
        fill: #eac40c;
      }
    </style>
  </defs>
  <path class="cls-1" d="M55.85,26.62c.24.09.48.18.74.26.59.18,1.16.42,1.7.72,1.33.61,2.15,1.75,2.93,2.86.16.22.32.44.48.66.12.12.21.24.3.34.07.1.16.19.25.27.01,0,.03.01.04.02,2.66,1.52,3.79,4.09,4.48,6.15,0,.01,0,.03.01.04.18.65.59,1.29,1.02,1.97.63.98,1.28,2,1.39,3.26,0,.02,0,.04,0,.06,0,1.92.3,3.82.91,5.64,0,.02.01.04.02.06.1.5.12,1.02.06,1.52-.02.2-.03.39-.03.57,0,.06,0,.11-.02.17-.16.73-.37,1.47-.57,2.18-.19.68-.39,1.39-.54,2.08-.04.4-.05.8-.02,1.2.06.65.01,1.31-.13,1.95-.01.64-.26,1.24-.7,1.7-.51.51-.89,1.13-1.3,1.78-.16.26-.32.52-.5.78-.2.4-.34.83-.43,1.28-.19.78-.41,1.65-1.12,2.36-.19.19-.37.4-.56.62-.4.48-.86,1.02-1.5,1.4,0,0-.02.01-.03.02-.93.51-1.58,1.31-2.27,2.15-.47.62-1,1.19-1.56,1.72-.02.02-.04.04-.06.05-.91.65-1.96,1-2.98,1.33-.35.12-.69.23-1.01.35-.65.25-1.18.66-1.75,1.09-.42.34-.86.65-1.32.92-.02.01-.04.02-.06.03-.03.02-.07.03-.1.04l6.89-.05c2.32,0,4.55-.75,6.71-1.48.39-.13.77-.26,1.15-.38.4-.13.79-.25,1.19-.38,2.3-.72,4.47-1.41,6.27-2.72,1.81-1.32,3.19-3.25,4.52-5.12.24-.34.49-.68.73-1.02.25-.34.51-.69.76-1.03,1.36-1.82,2.76-3.71,3.46-5.85.68-2.09.66-4.39.64-6.82,0-.41,0-.82,0-1.23s0-.82,0-1.23c.02-2.43.04-4.72-.64-6.82-.69-2.14-2.09-4.01-3.44-5.83-.26-.35-.52-.7-.78-1.05-.24-.32-.47-.65-.7-.98-1.34-1.87-2.72-3.81-4.55-5.14-1.79-1.31-3.96-1.99-6.26-2.71-.4-.13-.8-.25-1.2-.38-.32-.11-.65-.21-.98-.32-2.21-.73-4.5-1.5-6.88-1.5h-6.69c.69.36,1.35.76,1.99,1.2.64.45,1.32.86,2.03,1.21ZM79.69,42.17c1.95,6.04,1.74,12.58-.6,18.48-.15.4-.6.59-.99.44-.4-.15-.59-.6-.44-.99,0,0,0-.01,0-.02,2.21-5.57,2.41-11.74.57-17.44-.13-.4.09-.84.49-.97s.84.09.97.49ZM76.98,37.81c.38-.19.84-.05,1.03.33,0,0,0,0,0,0,.16.32.33.65.48.98.18.38.01.84-.37,1.02-.38.18-.84.01-1.02-.37h0c-.14-.31-.3-.62-.45-.92-.19-.38-.05-.84.33-1.03Z"/>
  <path class="cls-1" d="M16.5,50.42c.86,2.16.99,4.3,1.11,6.37.02.34.04.68.06,1.02,0,.02,0,.03,0,.05.03.26.11.51.22.74.21.32.44.62.7.9.33.35.62.74.88,1.14.02.02.03.05.04.08.27.62.5,1.26.69,1.91.37,1.17.72,2.28,1.53,3.1.3.27.62.54.93.8,1.16.98,2.35,1.99,3.28,3.41l1.31,1.31c.68.39,1.39.72,2.14.98,1,.38,2.03.77,2.93,1.55.7.44,1.42.83,2.18,1.17.5.14.98.12,1.53.09.22,0,.44-.02.67-.02.28,0,.56.02.84.06.01,0,.03,0,.04,0,.66.14,1.32.32,1.96.53.81.25,1.57.49,2.42.57.02,0,.05,0,.07.01.59.12,1.22.01,1.77-.12.53-.31,1.11-.54,1.71-.67.02,0,.04,0,.06-.01.78-.11,1.57-.16,2.37-.14,1.14,0,2.21-.01,3.14-.42.39-.24.76-.5,1.11-.79.63-.49,1.27-.99,2.15-1.31.35-.13.72-.25,1.07-.37.94-.31,1.82-.6,2.54-1.1.49-.47.95-.97,1.36-1.51.75-.92,1.52-1.87,2.71-2.53.42-.25.75-.65,1.1-1.07.2-.24.41-.48.64-.72.41-.41.55-.98.71-1.65.12-.59.32-1.16.6-1.69,0-.02.02-.03.03-.04.17-.25.33-.51.49-.77.43-.7.88-1.42,1.52-2.05.17-.2.26-.46.25-.73,0-.07,0-.14.03-.21.15-.52.13-1,.1-1.56-.04-.5-.02-1.01.04-1.51,0-.02,0-.04.01-.06.16-.74.37-1.47.57-2.19.19-.67.38-1.36.53-2.03,0-.21.02-.41.04-.61.05-.33.04-.67,0-1-.65-1.95-.99-4-.98-6.06-.08-.87-.6-1.68-1.15-2.53-.47-.74-.96-1.5-1.21-2.37-.9-2.7-2.03-4.28-3.77-5.27-.29-.16-.54-.39-.73-.65-.08-.1-.16-.19-.24-.28-.03-.03-.05-.05-.07-.08-.18-.24-.36-.49-.53-.73-.71-.99-1.37-1.93-2.35-2.37-.03-.01-.06-.03-.08-.04-.46-.25-.94-.46-1.44-.6-.27-.09-.55-.18-.84-.3-.01,0-.02,0-.03-.01-.79-.38-1.54-.83-2.26-1.33-.87-.58-1.7-1.13-2.64-1.46-1.88,0-4.1-.14-6.35-1.01-.01,0-.02,0-.03-.01l-1.26-.17c-.1.01-.2.03-.3.05-2.18.64-4.44.97-6.72.98-.45,0-.8.1-1.38.38-.35.22-.69.47-1.01.73-.38.31-.78.59-1.19.85-.02.02-.05.03-.08.04-.62.28-1.26.5-1.89.72-1.17.4-2.28.78-3.12,1.5-.29.37-.6.79-.89,1.19-.32.44-.65.89-.97,1.3-.02.02-.04.04-.06.06-.53.5-1.1.95-1.71,1.35-.71.49-1.38.95-1.84,1.56-.32.57-.5,1.2-.7,1.86-.14.51-.31,1.02-.51,1.52-.01.02-.02.05-.03.07-.35.61-.75,1.19-1.19,1.73-.53.7-1.04,1.36-1.29,2.07-.13.62-.13,1.3-.13,2.02,0,.78,0,1.59-.18,2.39,0,.02,0,.03-.01.04-.12.43-.27.83-.4,1.22-.23.59-.41,1.19-.52,1.81,0,.19-.02.36-.04.52-.02.12-.03.25-.03.38,0,.01,0,.02.01.03ZM37.49,32.64c2.74-.91,5.29-1.3,7.58-1.15,2.5,0,5.16.87,7.7,2.51.86.57,1.54,1.28,2.2,1.97.52.56,1.08,1.09,1.67,1.57.03.02.05.04.07.06.38.39.66.86.81,1.38.24.57.44,1.16.61,1.76.28.91.53,1.76,1.06,2.55.39.58.34,1.23.3,1.71,0,.12-.02.22-.02.31,0,.05,0,.1-.02.15-.16.78-.09,1.59-.03,2.44.08.75.09,1.5.04,2.26-.01.13-.06.26-.14.37-.42.58-.51,1.35-.6,2.15-.05.47-.12.93-.23,1.39-.14.66-.49,1.18-.81,1.65-.13.19-.25.37-.34.54-.03.19-.02.39.01.58.02.19.04.37.04.56,0,.05,0,.1-.02.15-.18.9-.77,1.47-1.25,1.92-.08.07-.16.15-.23.22-.12.12-.14.24-.13.66.04.41-.03.83-.2,1.21-.18.38-.64.54-1.02.36-.38-.18-.54-.64-.36-1.02,0,0,0-.01.01-.02.04-.16.06-.33.04-.5,0-.46-.02-1.17.58-1.77.08-.08.17-.17.26-.25.35-.33.68-.64.79-1.04,0-.1-.02-.2-.03-.31-.07-.43-.05-.86.07-1.28.01-.03.03-.07.04-.1.14-.27.3-.52.47-.77.26-.38.5-.75.58-1.11,0-.01,0-.02,0-.04.09-.4.15-.81.19-1.21.1-.86.22-1.82.76-2.68.02-.6,0-1.2-.06-1.8-.07-.9-.14-1.83.04-2.79,0-.12.01-.23.02-.35.02-.28.04-.6-.05-.74-.65-.98-.96-1.98-1.25-2.95-.15-.55-.34-1.09-.56-1.61-.01-.02-.02-.05-.03-.07-.08-.29-.22-.56-.42-.78-.63-.52-1.23-1.08-1.79-1.68-.63-.66-1.23-1.28-1.94-1.75-2.29-1.47-4.68-2.26-6.89-2.26-.02,0-.03,0-.05,0-2.1-.14-4.46.22-7.02,1.08-.4.14-.84-.07-.98-.47-.14-.4.07-.84.47-.98,0,0,.01,0,.02,0h0ZM47.75,48.7c-.07-.13-.11-.27-.1-.42-.19-.03-.37-.13-.49-.28-.05,0-.12-.01-.17-.02-.39,0-.76-.14-1.04-.4-.19-.18-.4-.33-.63-.46-.11-.07-.23-.15-.37-.24-.04-.03-.08-.06-.12-.1-.16-.18-.28-.39-.34-.62,0-.02-.02-.05-.02-.07-.24-.25-.44-.49-.63-.72-.18-.22-.35-.42-.55-.62-.66-.44-1.49-.56-2.25-.31-.81.22-1.47.81-1.78,1.59-.15.4-.6.59-.99.44s-.59-.6-.44-.99c.48-1.23,1.51-2.16,2.78-2.51,1.24-.39,2.58-.17,3.64.58.03.02.06.05.09.08.26.26.48.52.68.77.19.23.38.45.59.66.16.18.28.39.34.62,0,0,0,.01,0,.02.07.04.13.08.19.12.3.17.57.38.83.61.04,0,.09,0,.14.01.32.02.91.07,1.29.64.09.14.13.3.13.46.24.03.44.17.56.38,1.45,2.53.81,4,.02,4.79-.06.06-.14.15-.22.25-.29.34-.65.77-1.21.95-.08.02-.15.04-.23.04h-.43c-.42,0-.77-.34-.77-.77s.34-.77.77-.77h.27c.16-.13.31-.28.44-.44.1-.11.2-.23.3-.34.6-.6.51-1.59-.27-2.95h0ZM36.42,51.47c.04-.25.07-.51.07-.77,0-.33.1-.65.28-.93,0,0,0-.01,0-.02-.08-.2-.12-.42-.12-.64,0-.42.34-.77.77-.77s.77.34.77.77c0,.05.02.11.04.16.08.21.12.42.12.64,0,.12-.03.24-.08.34-.05.1-.1.19-.15.27-.08.14-.09.16-.09.18,0,.33-.03.66-.09.98-.04.24-.06.48-.07.72.12.97.66,1.85,1.47,2.4.92.63,2.06.83,3.14.56.41-.1.82.16.92.57.09.4-.15.81-.55.92-.43.11-.88.16-1.33.16-1.09,0-2.16-.33-3.06-.95-1.19-.81-1.97-2.1-2.13-3.53,0-.03,0-.06,0-.09,0-.33.03-.66.09-.98h0ZM39.25,67.54c.08.04.16.07.24.09.14.05.29.1.42.16.95.23,1.91.39,2.89.48.62.07,1.27.14,1.94.26,2.98-.51,5.46-2.37,7.29-3.94.32-.28.81-.24,1.08.08.28.32.24.81-.08,1.08-2.01,1.72-4.76,3.77-8.17,4.31-.04,0-.08,0-.12,0-.05,0-.09,0-.14-.01-.67-.12-1.33-.2-1.97-.27-1.07-.1-2.14-.28-3.18-.54-.05-.01-.1-.03-.14-.05-.1-.05-.19-.09-.3-.12-.17-.05-.34-.12-.5-.2-.04-.02-.07-.04-.11-.07-1.3-.95-2.28-1.99-3.22-3-.37-.4-.76-.81-1.16-1.22-.03-.03-.05-.05-.07-.08-.68-.91-.99-2.19-1.09-2.7v-.02s-.05-.04-.07-.06c-.02-.01-.03-.03-.05-.04-1.16-.47-1.82-1.68-1.94-2.74-.35-.24-.44-.72-.2-1.07.14-.21.38-.34.63-.34.59.02,1.07.49,1.08,1.08,0,.63.43,1.45,1.07,1.66.11.04.22.1.3.19.02.02.05.04.07.06.19.16.58.47.63,1.02.17.8.45,1.53.77,1.98.41.41.79.82,1.16,1.21.92.98,1.79,1.91,2.95,2.76h0ZM24.55,43.62c.2-1.55,1.1-2.93,2.44-3.74.05-.03.11-.06.16-.08.31-.1.53-.33.81-.61.03-.03.06-.06.1-.08,1.02-.73,2.13-.8,3.11-.86.31-.02.61-.04.9-.07.03,0,.06,0,.1,0,.25,0,.43-.28.78-.96.1-.19.2-.39.31-.58.03-.05.07-.1.12-.15.12-.12.23-.26.33-.39.11-.15.23-.3.36-.45.02-.07.04-.14.07-.23.05-.22.12-.43.22-.63.18-.38.64-.54,1.02-.36s.54.64.36,1.02c0,0,0,.02-.01.02-.04.1-.08.21-.1.32-.05.22-.12.43-.22.63-.04.07-.09.14-.14.2-.12.12-.23.26-.33.39-.12.17-.25.33-.4.48-.07.13-.15.27-.22.41-.38.75-.91,1.76-2.09,1.79-.32.04-.64.06-.95.08-.87.05-1.62.1-2.27.54-.35.39-.78.7-1.27.9-2.19,1.42-1.95,4.1-1.08,5.98.18.38.02.84-.36,1.02-.38.18-.84.02-1.02-.36,0,0,0,0,0,0-.65-1.4-.91-2.9-.72-4.23Z"/>
</svg>