<?xml version="1.0" encoding="UTF-8"?>
<svg id="Layer_1" data-name="Layer 1" xmlns="http://www.w3.org/2000/svg" viewBox="0 0 100 81.38">
  <defs>
    <style>
      .cls-1 {
        fill: #eac40c;
      }
    </style>
  </defs>
  <path class="cls-1" d="M57.8,8.35c.33.13.66.24,1,.36.81.24,1.59.57,2.32.98,1.82.83,2.93,2.39,4,3.9.21.3.43.61.65.9.16.17.29.33.41.47.1.14.21.26.35.36.02,0,.03.02.05.03,3.63,2.07,5.17,5.57,6.11,8.38,0,.02.01.04.02.06.24.89.8,1.76,1.39,2.68.86,1.34,1.75,2.72,1.89,4.44,0,.03,0,.06,0,.09,0,2.61.41,5.21,1.25,7.69,0,.03.02.05.02.08.14.68.17,1.38.08,2.07-.02.28-.04.53-.04.78,0,.08,0,.15-.02.23-.22,1-.5,2.01-.77,2.98-.26.93-.53,1.9-.74,2.83-.06.54-.07,1.09-.02,1.64.08.89.02,1.79-.18,2.66-.02.87-.36,1.7-.95,2.32-.7.7-1.22,1.54-1.77,2.42-.22.35-.44.71-.68,1.07-.27.55-.46,1.14-.58,1.74-.26,1.06-.55,2.26-1.52,3.22-.26.26-.5.55-.76.85-.55.65-1.17,1.38-2.04,1.91-.01,0-.02.01-.04.02-1.27.69-2.16,1.78-3.09,2.94-.64.84-1.36,1.62-2.13,2.35-.03.02-.06.05-.09.07-1.24.89-2.68,1.36-4.06,1.82-.48.16-.94.31-1.38.48-.89.33-1.62.89-2.38,1.49-.57.46-1.17.88-1.8,1.26-.03.02-.06.03-.09.04-.05.02-.09.04-.14.06l9.39-.07c3.16,0,6.21-1.03,9.15-2.01.53-.18,1.05-.35,1.57-.52.54-.17,1.08-.35,1.62-.52,3.14-.99,6.1-1.92,8.55-3.7,2.47-1.8,4.35-4.43,6.16-6.98.33-.47.66-.93,1-1.39.34-.47.69-.94,1.04-1.41,1.85-2.49,3.76-5.06,4.71-7.98.93-2.85.9-5.98.87-9.29,0-.56,0-1.12,0-1.68s0-1.12,0-1.68c.03-3.31.05-6.44-.87-9.29-.95-2.91-2.85-5.47-4.69-7.94-.36-.48-.71-.96-1.06-1.43-.32-.44-.64-.89-.96-1.33-1.83-2.56-3.71-5.2-6.2-7.01-2.45-1.78-5.4-2.71-8.53-3.69-.55-.17-1.1-.34-1.64-.52-.44-.14-.89-.29-1.33-.44-3.02-1-6.14-2.04-9.38-2.04h-9.13c.94.49,1.84,1.04,2.71,1.64.88.62,1.81,1.17,2.77,1.64ZM90.31,29.55c2.66,8.24,2.37,17.15-.82,25.2-.21.54-.81.81-1.35.6-.54-.21-.81-.81-.6-1.35,0,0,0-.02.01-.03,3.01-7.59,3.29-16,.78-23.78-.18-.55.12-1.14.67-1.32s1.14.12,1.32.67ZM86.61,23.6c.51-.26,1.14-.06,1.41.45,0,0,0,0,0,0,.22.44.44.88.65,1.33.24.52.02,1.15-.51,1.39-.52.24-1.15.02-1.39-.51h0c-.2-.42-.4-.85-.62-1.26-.26-.51-.06-1.14.45-1.41Z"/>
  <path class="cls-1" d="M4.16,40.92c1.18,2.95,1.34,5.87,1.51,8.69.03.46.05.92.08,1.38,0,.02,0,.05,0,.07.04.35.15.7.31,1.02.28.43.6.84.95,1.22.45.48.85,1,1.19,1.56.02.03.04.07.06.1.36.85.68,1.72.94,2.6.5,1.6.98,3.11,2.08,4.23.41.37.85.73,1.27,1.09,1.58,1.33,3.21,2.71,4.47,4.65l1.79,1.79c.93.54,1.9.98,2.91,1.33,1.36.52,2.77,1.06,3.99,2.11.95.6,1.94,1.14,2.97,1.59.68.19,1.33.16,2.08.12.3-.01.6-.03.92-.03.38,0,.77.02,1.15.08.02,0,.04,0,.06,0,.9.19,1.79.43,2.67.72,1.1.34,2.15.67,3.3.78.03,0,.07,0,.1.02.8.16,1.66.02,2.41-.17.72-.43,1.51-.73,2.33-.91.03,0,.05-.01.08-.02,1.07-.15,2.15-.22,3.23-.19,1.55,0,3.02-.02,4.27-.57.53-.32,1.04-.68,1.52-1.07.85-.66,1.74-1.35,2.93-1.79.48-.18.98-.34,1.46-.5,1.28-.42,2.48-.82,3.46-1.5.67-.64,1.29-1.33,1.86-2.06,1.02-1.25,2.07-2.55,3.69-3.44.57-.35,1.02-.88,1.51-1.46.27-.32.56-.66.88-.98.55-.55.75-1.34.97-2.24.16-.8.43-1.58.81-2.31.01-.02.02-.04.04-.06.23-.35.45-.7.66-1.05.59-.95,1.2-1.93,2.07-2.8.24-.28.36-.63.34-1,0-.1.01-.19.04-.29.2-.7.17-1.37.14-2.13-.05-.69-.03-1.38.05-2.06,0-.03,0-.05.01-.08.22-1,.5-2.01.77-2.98.25-.91.51-1.85.72-2.77,0-.29.03-.56.05-.83.06-.45.06-.91-.01-1.36-.89-2.66-1.34-5.45-1.34-8.26-.11-1.19-.82-2.29-1.56-3.45-.65-1.01-1.31-2.05-1.64-3.23-1.23-3.68-2.77-5.83-5.13-7.19-.39-.22-.73-.52-1-.89-.11-.13-.21-.26-.33-.38-.03-.03-.07-.07-.1-.11-.25-.33-.49-.67-.72-1-.96-1.36-1.87-2.64-3.2-3.23-.04-.02-.08-.04-.11-.06-.62-.35-1.28-.62-1.96-.82-.37-.12-.75-.25-1.14-.41-.02,0-.03-.01-.04-.02-1.07-.52-2.11-1.13-3.08-1.82-1.19-.79-2.32-1.54-3.6-1.99-2.57,0-5.59-.19-8.66-1.37-.01,0-.03-.01-.04-.02l-1.72-.24c-.14.02-.28.04-.41.07-2.97.88-6.06,1.33-9.16,1.34-.62,0-1.09.13-1.88.52-.48.3-.94.64-1.38.99-.52.42-1.06.8-1.62,1.16-.03.02-.07.04-.1.06-.84.38-1.72.68-2.57.98-1.6.55-3.12,1.07-4.25,2.05-.4.51-.82,1.08-1.22,1.63-.43.6-.88,1.21-1.33,1.77-.02.03-.05.06-.08.09-.72.68-1.5,1.3-2.34,1.83-.96.66-1.87,1.29-2.51,2.12-.43.77-.68,1.63-.95,2.54-.19.7-.43,1.39-.7,2.07-.01.03-.03.06-.05.1-.48.83-1.02,1.62-1.62,2.36-.73.96-1.42,1.86-1.75,2.83-.18.85-.18,1.78-.18,2.76,0,1.07,0,2.17-.24,3.26,0,.02,0,.04-.02.06-.17.59-.36,1.13-.55,1.66-.32.8-.55,1.63-.71,2.47,0,.25-.03.49-.06.7-.03.17-.04.34-.04.51,0,.01.01.03.02.04ZM32.78,16.69c3.74-1.25,7.21-1.77,10.34-1.57,3.41,0,7.04,1.19,10.5,3.42,1.17.78,2.1,1.75,3.01,2.68.71.77,1.47,1.48,2.27,2.14.03.03.07.06.1.09.52.53.9,1.17,1.1,1.88.33.78.6,1.58.83,2.39.38,1.24.73,2.4,1.45,3.48.53.79.46,1.68.42,2.32-.01.16-.02.31-.02.42,0,.07,0,.14-.02.2-.21,1.06-.13,2.16-.04,3.33.11,1.02.13,2.05.05,3.08-.02.18-.08.36-.19.5-.57.79-.69,1.84-.82,2.94-.06.64-.17,1.27-.31,1.89-.19.9-.67,1.61-1.1,2.25-.18.26-.34.51-.46.73-.04.26-.03.53.02.79.03.25.05.51.05.77,0,.07,0,.14-.02.2-.25,1.23-1.06,2-1.71,2.62-.11.1-.21.2-.31.3-.17.17-.19.33-.18.9.05.56-.05,1.13-.28,1.65-.25.52-.87.74-1.4.49-.52-.25-.74-.87-.49-1.4,0,0,0-.02.01-.03.06-.22.08-.45.06-.68-.01-.63-.03-1.59.79-2.41.11-.11.23-.23.35-.34.48-.45.93-.88,1.07-1.41,0-.13-.02-.28-.04-.43-.1-.58-.07-1.18.1-1.75.02-.05.03-.09.06-.14.19-.36.41-.71.64-1.05.35-.52.69-1.02.79-1.51,0-.02,0-.03.01-.05.12-.55.21-1.1.27-1.65.14-1.17.3-2.48,1.03-3.65.03-.82,0-1.64-.08-2.45-.1-1.22-.19-2.49.05-3.8,0-.16.02-.32.03-.47.03-.38.06-.82-.07-1.01-.89-1.33-1.3-2.7-1.71-4.03-.21-.75-.46-1.48-.76-2.2-.01-.03-.03-.06-.04-.09-.1-.4-.3-.76-.57-1.07-.87-.71-1.68-1.47-2.44-2.3-.86-.89-1.68-1.74-2.65-2.38-3.13-2.01-6.38-3.08-9.39-3.08-.02,0-.05,0-.07,0-2.86-.19-6.08.3-9.57,1.47-.55.19-1.14-.1-1.33-.64-.19-.55.1-1.14.64-1.33,0,0,.02,0,.03,0h0ZM46.76,38.58c-.1-.17-.15-.37-.13-.57-.27-.04-.51-.17-.67-.38-.06,0-.16-.02-.23-.02-.53,0-1.03-.19-1.42-.54-.26-.24-.55-.45-.86-.63-.15-.1-.32-.2-.5-.32-.06-.04-.11-.08-.16-.13-.22-.24-.38-.53-.47-.84,0-.03-.02-.06-.03-.09-.33-.33-.6-.66-.86-.98-.25-.29-.48-.57-.74-.84-.91-.6-2.03-.76-3.07-.43-1.11.3-2.01,1.11-2.43,2.17-.21.54-.81.81-1.35.6s-.81-.81-.6-1.35c.66-1.67,2.06-2.94,3.79-3.42,1.68-.53,3.52-.24,4.96.79.04.03.09.07.13.11.36.36.65.71.93,1.05.26.32.51.61.8.91.22.24.38.53.47.84,0,0,0,.02,0,.03.09.06.17.11.25.16.4.24.78.52,1.13.83.05,0,.13.01.19.02.43.03,1.24.09,1.76.88.12.19.18.41.17.63.32.04.6.23.76.51,1.97,3.45,1.11,5.46.03,6.53-.09.09-.19.21-.3.34-.4.47-.89,1.05-1.65,1.29-.1.03-.21.05-.32.05h-.59c-.58,0-1.05-.47-1.05-1.05s.47-1.05,1.05-1.05h.37c.22-.18.42-.38.6-.61.13-.15.27-.31.41-.46.81-.82.69-2.17-.37-4.02h0ZM31.32,42.35c.06-.35.09-.69.1-1.05,0-.45.14-.89.39-1.27,0,0,0-.02,0-.03-.1-.28-.16-.57-.16-.87,0-.58.47-1.05,1.05-1.05s1.05.47,1.05,1.05c0,.07.03.14.05.21.1.28.16.57.16.87,0,.16-.04.32-.11.47-.07.14-.14.26-.2.37-.11.2-.12.22-.12.25,0,.45-.05.9-.12,1.34-.05.33-.09.65-.1.98.17,1.33.9,2.52,2.01,3.27,1.25.86,2.81,1.14,4.28.76.56-.13,1.12.22,1.26.78.13.55-.2,1.1-.75,1.25-.59.15-1.2.22-1.81.22-1.49,0-2.94-.45-4.17-1.29-1.62-1.1-2.68-2.86-2.9-4.81,0-.04,0-.08,0-.12,0-.45.05-.9.12-1.34h0ZM35.17,64.26c.11.05.22.09.33.13.2.06.39.14.58.22,1.29.32,2.61.53,3.94.65.85.1,1.73.2,2.64.36,4.06-.7,7.44-3.23,9.94-5.37.44-.38,1.1-.32,1.47.11.38.44.32,1.1-.11,1.47-2.74,2.35-6.48,5.14-11.14,5.87-.05,0-.11.01-.16.01-.06,0-.13,0-.19-.02-.91-.17-1.81-.27-2.68-.37-1.46-.13-2.92-.38-4.34-.74-.07-.02-.13-.04-.19-.07-.13-.06-.27-.12-.4-.16-.23-.07-.46-.17-.68-.27-.05-.03-.1-.06-.15-.09-1.78-1.29-3.11-2.71-4.39-4.09-.51-.54-1.04-1.11-1.59-1.66-.04-.04-.07-.07-.1-.11-.93-1.24-1.35-2.98-1.49-3.67v-.02s-.07-.06-.1-.08c-.02-.02-.05-.04-.07-.06-1.57-.64-2.49-2.29-2.64-3.73-.48-.32-.6-.97-.28-1.45.19-.29.52-.46.86-.46.81.02,1.46.67,1.48,1.48,0,.86.58,1.97,1.45,2.26.15.05.29.14.41.25.03.03.06.05.1.08.26.21.8.64.85,1.39.23,1.09.62,2.08,1.06,2.7.55.56,1.07,1.11,1.58,1.65,1.25,1.34,2.44,2.61,4.02,3.77h0ZM15.14,31.65c.28-2.12,1.5-4,3.33-5.1.07-.04.15-.08.22-.1.42-.14.72-.44,1.11-.83.04-.04.09-.08.13-.11,1.38-.99,2.9-1.08,4.24-1.17.42-.03.83-.05,1.22-.1.04,0,.09,0,.13,0,.33,0,.59-.39,1.06-1.31.13-.26.27-.53.43-.78.04-.07.1-.14.16-.2.16-.17.31-.35.44-.54.15-.21.32-.41.49-.61.03-.09.06-.2.09-.32.07-.3.16-.59.3-.86.25-.52.87-.74,1.39-.49s.74.87.49,1.39c0,.01-.01.02-.02.03-.06.14-.11.29-.14.44-.07.3-.16.59-.3.86-.05.1-.12.19-.2.27-.16.17-.31.35-.44.54-.17.23-.35.45-.54.66-.1.17-.2.37-.3.57-.52,1.02-1.24,2.4-2.85,2.44-.44.05-.87.08-1.29.11-1.18.07-2.21.14-3.09.74-.48.53-1.07.95-1.73,1.22-2.98,1.94-2.66,5.59-1.47,8.15.25.52.03,1.15-.5,1.39-.52.25-1.15.03-1.39-.5,0,0,0,0,0-.01-.89-1.91-1.24-3.96-.98-5.77Z"/>
</svg>