<?xml version="1.0" encoding="UTF-8"?>
<svg id="Horseshoes" xmlns="http://www.w3.org/2000/svg" viewBox="0 0 5000 5000">
  <path d="M4650,1881.16c-51.05-325.93-141.95-679.07-271.09-1054.46l143.21-61.05-239.14-493.28-806.29,343.69,57.38,118.36c356.71,899.28,480.68,1635.65,368.13,2189.91-81.24,400.04-282.66,693.4-615.79,896.84-16.77,10.24-34.09,20.38-51.68,30.23-238.33,133.62-415.17,198.38-591.32,216.54l-4.61.51c-21.53,2.49-43.8,4.27-66.21,5.29-195.07,8.96-406.87-37.69-624.68-90.98-10.22-2.89-18.84-5.16-26.77-7.24-1.42-.37-2.79-.72-4.13-1.07-349.76-140.61-581.58-368.25-708.62-695.9-398.45-1027.54,339.13-2624.46,346.63-2640.47l-6.78-3.29,2.9-5.38L760.31,250.38l-260.03,482.24,168.24,80.64c-58.35,166.89-121.16,366.58-176.41,586.34-215.82,858.44-212.6,1585.06,9.57,2159.7,205.46,531.42,588.47,912.66,1138.37,1133.12,38.88,15.6,65.57,23.03,91.72,29.88,4.4,1.15,9.31,2.41,15.5,4.21l15.7,4.21c239.65,58.75,494.52,115.3,760.79,115.3,27.51,0,55.15-.6,82.9-1.87,38.85-1.77,77.76-4.87,115.69-9.21,358.36-37.46,657.86-184.37,878.7-308.18,25.68-14.39,51.32-29.38,76.17-44.56,234.75-143.36,433.28-323.08,590.09-534.15,184.23-248.02,311.41-540,377.99-867.84,72.12-355.14,73.7-758.56,4.7-1199.05ZM858.08,1361.94c69.65,0,126.12,56.47,126.12,126.12s-56.47,126.12-126.12,126.12-126.12-56.47-126.12-126.12,56.47-126.12,126.12-126.12ZM603.75,2520.68c0-69.66,56.47-126.12,126.12-126.12s126.12,56.47,126.12,126.12-56.47,126.12-126.12,126.12-126.12-56.47-126.12-126.12ZM869.02,3650.73c-69.65,0-126.12-56.47-126.12-126.12s56.47-126.12,126.12-126.12,126.12,56.47,126.12,126.12-56.47,126.12-126.12,126.12ZM4196.11,1361.94c69.66,0,126.12,56.47,126.12,126.12s-56.47,126.12-126.12,126.12-126.12-56.47-126.12-126.12,56.47-126.12,126.12-126.12ZM4093.64,3650.73c-69.66,0-126.12-56.47-126.12-126.12s56.47-126.12,126.12-126.12,126.12,56.47,126.12,126.12-56.47,126.12-126.12,126.12ZM4335.26,2646.8c-69.65,0-126.12-56.47-126.12-126.12s56.47-126.12,126.12-126.12,126.12,56.47,126.12,126.12-56.47,126.12-126.12,126.12Z"/>
</svg>