<?xml version="1.0" encoding="UTF-8"?>
<svg id="Ebene_1" xmlns="http://www.w3.org/2000/svg" version="1.1" xmlns:xodm="http://www.corel.com/coreldraw/odm/2003" viewBox="0 0 2834.6 2834.6">
  <!-- Generator: Adobe Illustrator 29.6.1, SVG Export Plug-In . SVG Version: 2.1.1 Build 9)  -->
  <defs>
    <style>
      .st0 {
        fill-rule: evenodd;
      }
    </style>
  </defs>
  <g id="Layer_x5F_1">
    <g id="_2556498672352">
      <path class="st0" d="M1223.6,2205.2c-503.4-256.7-751.5-733.9-403.6-1175.8-277.8,677.8,686.6,787.5,867.4,1129.9-116.5-379.1-1116.5-492.1-769.2-1231.6-124.3,39-209.5,110.5-301.6,211.6,135.9-497.2,496-621.6,699.7-608.9-18.2-31.3-67.9-62.4-128.7-67.1,145.8-65.8,363.7-47.3,449.4,23.7,31.9-60.5,145.7-59.4,220.7-132.5,6.4,97.4-13.6,163.5-60,198.3,52.5,56.6,99,109.6,139.4,158.9,108.1,132.1,28.7,89.2,85.5,206.8,23.2,42.1,107.4,163.7,252.4,364.9,13.8,36.8,4.4,60.5-28.3,97.9,13.4,37.8-44.4,85.4-109.9,100-79.5,17.7-171.9-5.2-182.1-52.5-7.4-30.7-23.2-67.8-45.8-81.2-21.3-25.6-118-60.6-289.9-105-73.2-17.6-138.6-110-143.7-191.5-276.8,412.2,968.6,931.4,211.2,1460.6,30.6-264.9-482.1-411.5-654.8-617.3,19.7,92,107.1,182.9,191.6,310.7h0Z"/>
    </g>
  </g>
</svg>