<?xml version="1.0" encoding="utf-8"?>
<!-- Generator: Adobe Illustrator 25.2.3, SVG Export Plug-In . SVG Version: 6.00 Build 0)  -->
<svg version="1.1" xmlns="http://www.w3.org/2000/svg" xmlns:xlink="http://www.w3.org/1999/xlink" x="0px" y="0px"
	 viewBox="0 0 64 64" enable-background="new 0 0 64 64" xml:space="preserve">
<g id="Layer_1">
</g>
<g id="Layer_2">
</g>
<g id="Layer_3">
</g>
<g id="Layer_4">
</g>
<g id="Layer_5">
</g>
<g id="Layer_6">
</g>
<g id="Layer_7">
</g>
<g id="Layer_8">
</g>
<g id="Layer_9">
</g>
<g id="Layer_10">
</g>
<g id="Layer_11">
</g>
<g id="Layer_12">
</g>
<g id="Layer_13">
</g>
<g id="Layer_14">
</g>
<g id="Layer_15">
</g>
<g id="Layer_16">
</g>
<g id="Layer_17">
</g>
<g id="Layer_18">
</g>
<g id="Layer_19">
</g>
<g id="Layer_20">
</g>
<g id="Layer_21">
</g>
<g id="Layer_22">
</g>
<g id="Layer_23">
</g>
<g id="Layer_24">
</g>
<g id="Layer_25">
</g>
<g id="Layer_26">
</g>
<g id="Layer_27">
</g>
<g id="Layer_28">
</g>
<g id="Layer_29">
</g>
<g id="Layer_30">
</g>
<g id="Layer_31">
	<path d="M64,0.9C64,0.8,64,0.8,64,0.9c0-0.2-0.1-0.2-0.1-0.3c0,0,0-0.1-0.1-0.1c0-0.1-0.1-0.1-0.1-0.1c0,0-0.1-0.1-0.1-0.1
		c0,0,0,0-0.1-0.1c0,0-0.1,0-0.1,0c0,0,0,0-0.1,0c0,0,0,0,0,0c-0.1,0-0.1,0-0.2-0.1c0,0-0.1,0-0.1,0c-0.1,0-0.1,0-0.2,0
		c0,0-0.1,0-0.1,0c-0.1,0-0.2,0-0.3,0.1l0,0c0,0,0,0,0,0L47.7,7.3c-0.2,0.1-0.4,0.2-0.5,0.4c-0.9,1.8-2.2,3.5-3.7,4.9L27.8,27.8
		c-0.3-0.1-0.6-0.3-0.9-0.3c-1-0.2-1.9,0.1-2.6,0.8L23.6,29c-0.2,0.2-0.3,0.4-0.3,0.7c0,1.4-0.7,2.7-2,3.5
		C12.9,38.5,5.9,45.4,0.5,53.7c-0.8,1.2-0.6,2.8,0.4,3.8l5.9,5.7C7.4,63.7,8.2,64,9,64c0.1,0,0.2,0,0.3,0c0.9-0.1,1.7-0.6,2.3-1.4
		c5.6-8.4,11.5-13.8,18.3-16.9c0.4-0.2,0.6-0.5,0.6-0.9v-1.7c0-1.7,1.4-3.1,3.2-3.1h1.7c0.3,0,0.5-0.1,0.7-0.3
		c0.7-0.7,1-1.6,0.9-2.6c-0.1-0.3-0.2-0.6-0.3-0.8L54.8,19c5-4.8,8.2-11.1,9.2-17.8C64,1,64,0.9,64,0.9z M10.9,54.1
		c-0.4,0.4-1.1,0.4-1.5,0s-0.4-1,0-1.4s1.1-0.4,1.5,0S11.3,53.8,10.9,54.1z M19.8,45.5c-0.4,0.4-1.1,0.4-1.5,0s-0.4-1,0-1.4
		s1.1-0.4,1.5,0S20.2,45.1,19.8,45.5z M45,14c1.6-1.5,2.9-3.2,3.9-5.1l9-4.3L38.7,23c-3,2.8-3.8,7.1-2.2,10.8L35.2,35c0,0,0,0,0,0
		c-1.3-0.6-2.5-1.4-3.5-2.3l-0.2-0.2c-0.9-0.9-1.7-2-2.4-3.3L45,14z M28.7,36.9c-0.4,0.4-1.1,0.4-1.5,0s-0.4-1,0-1.4
		c0.4-0.4,1.1-0.4,1.5,0C29.2,35.9,29.2,36.5,28.7,36.9z"/>
</g>
</svg>
