<?xml version="1.0" encoding="UTF-8"?>
<svg id="Ebene_1" data-name="Ebene 1" xmlns="http://www.w3.org/2000/svg" viewBox="0 0 143.94 100">
  <defs>
    <style>
      .cls-1 {
        fill: #fec5f6;
        font-family: BodoniMT-BoldItalic, 'Bodoni MT';
        font-style: italic;
        font-weight: 700;
      }

      .cls-1, .cls-2 {
        font-size: 13px;
      }

      .cls-3 {
        letter-spacing: -.06em;
      }

      .cls-2 {
        fill: #cc36cc;
        font-family: BodoniMTBlack, 'Bodoni MT';
      }
    </style>
  </defs>
  <g>
    <path d="M40.84,20.85c-2.21.56-12.26,4.74-12.01,4.99.07.11,1.55-.39,3.27-1.05,5.62-2.25,6.92-2.53,11.7-2.53,7.45.04,13.38,1.72,18.94,5.45,3.16,2.11,4.88,3.62,12.68,10.78,7.59,7.03,10.29,8.43,15.81,8.08,4.74-.28,5.13-.77.6-.77-5.69,0-6.85-.7-12.82-7.59-7.38-8.57-16.3-14.61-24.94-16.86-3.65-.95-10.36-1.19-13.21-.49Z"/>
    <path d="M19.65,22.81c.91.6,2.46,1.83,3.48,2.71,1.9,1.72,1.93,1.55.18-.74-.95-1.23-3.86-3.06-4.85-3.06-.25,0,.32.49,1.19,1.09Z"/>
    <path d="M17.79,23.02c.04.56,2.04,4.5,2.07,4.08.04-.53-1.62-4.32-1.86-4.32-.14,0-.21.11-.21.25Z"/>
    <path d="M16.53,31.21c-.95,1.37-4.53,6.46-8.01,11.35-3.44,4.85-6.36,9.1-6.46,9.38-.21.63-.42.84,2.92-2.99,1.51-1.76,3.79-4.29,5.09-5.62,2.63-2.78,4.85-5.69,5.87-7.73.88-1.72,2.63-6.53,2.46-6.71-.07-.07-.91.98-1.86,2.32Z"/>
    <path d="M33.85,36.86c1.69,3.51.91,7.34-2.11,10.43-1.76,1.79-3.93,2.53-7.59,2.6-1.37.04-2.49.11-2.49.18,0,.04.6.35,1.33.67.91.39,2,.53,3.79.39,3.93-.21,6.71-2.18,8.29-5.87,1.02-2.32.77-6.32-.56-8.57-1.26-2.18-1.72-2.07-.67.18Z"/>
    <path d="M40.73,45.05c5.37,1.97,9.24,5.37,11.84,10.54,1.12,2.21,1.41,2.56,1.26,1.62-.39-2.25-2.32-5.62-4.6-7.94-2.49-2.56-6.15-4.5-9.13-4.85l-1.76-.21,2.39.84Z"/>
    <path d="M18.67,51.73c-2.92,1.09-4.67,2.04-4.11,2.25.56.18,4.25-1.12,5.9-2.11,2.14-1.26,1.33-1.3-1.79-.14Z"/>
    <path d="M33.36,51.58c-4.11.88-6.43,3.76-6.43,8.08,0,4,2.04,7.55,6.39,11.1,6.15,4.99,12.37,8.12,19.95,10.01,3.13.77,3.16.77,2.99.21-.07-.21-.95-3.02-1.93-6.18l-1.83-5.8-.67.88c-.81,1.09-2.18,3.48-1.97,3.48.11,0,.67-.74,1.26-1.62.67-1.05,1.12-1.48,1.23-1.16.11.28.74,2.6,1.41,5.2l1.23,4.67-1.3-.21c-2.04-.32-7.41-2.18-10.26-3.58-6.18-2.99-12.72-8.4-14.58-12.05-1.37-2.74-1.55-6.32-.46-8.43,2.14-4.04,6.04-4.25,12.93-.7,3.72,1.93,6.29,3.97,13.74,10.93,6.82,6.32,8.92,7.87,12.89,9.34,3.83,1.41,9.34,1.19,12.79-.53,1.58-.77,3.44-2.56,4.18-4,.74-1.48.88-3.83.25-4.46s-1.48.04-3.76,3.02c-4.88,6.39-7.34,7.41-12.96,5.41-4.53-1.62-5.9-2.71-14.47-11.35-4.88-4.92-9.06-8.85-10.26-9.59-3.83-2.42-7.31-3.3-10.36-2.67Z"/>
    <path d="M12.87,55.24c0,.88-2.88,3.02-4.81,3.58-2.11.6-3.55.35-4.15-.77-.21-.35-.67-1.19-1.02-1.83-.91-1.76-1.02-1.16-.21,1.05.81,2.07,1.58,2.74,3.62,3.13,2.99.53,6.11-1.41,6.82-4.22.21-.81.25-1.44.07-1.44s-.32.21-.32.49Z"/>
  </g>
  <text class="cls-2" transform="translate(61.17 57.54)"><tspan x="0" y="0">SportHorses</tspan></text>
  <text class="cls-1" transform="translate(100.79 69.86)"><tspan class="cls-3" x="0" y="0">F</tspan><tspan x="7.55" y="0">aupel</tspan></text>
</svg>