<?xml version="1.0" encoding="UTF-8"?>
<svg id="Ebene_1" data-name="Ebene 1" xmlns="http://www.w3.org/2000/svg" viewBox="0 0 154.7 100">
  <defs>
    <style>
      .cls-1 {
        letter-spacing: -.03em;
      }

      .cls-1, .cls-2 {
        fill: #fec5f6;
        font-family: BodoniMT-BoldItalic, 'Bodoni MT';
        font-style: italic;
        font-weight: 700;
      }

      .cls-3 {
        font-family: BodoniMTBlack, 'Bodoni MT';
      }

      .cls-4 {
        font-size: 16px;
      }

      .cls-5 {
        fill: #cc36cc;
      }
    </style>
  </defs>
  <g>
    <path class="cls-5" d="M36.62,22.8c-1.97.5-10.93,4.23-10.71,4.45.06.09,1.38-.34,2.91-.94,5.01-2,6.17-2.26,10.43-2.26,6.64.03,11.93,1.53,16.88,4.85,2.82,1.88,4.35,3.23,11.31,9.62,6.77,6.26,9.18,7.52,14.09,7.2,4.23-.25,4.57-.69.53-.69-5.07,0-6.11-.63-11.43-6.77-6.58-7.64-14.53-13.03-22.24-15.03-3.26-.85-9.24-1.06-11.78-.44Z"/>
    <path class="cls-5" d="M17.74,24.56c.81.53,2.19,1.63,3.1,2.41,1.69,1.53,1.72,1.38.16-.66-.85-1.1-3.45-2.72-4.32-2.72-.22,0,.28.44,1.06.97Z"/>
    <path class="cls-5" d="M16.08,24.74c.03.5,1.82,4.01,1.85,3.63.03-.47-1.44-3.85-1.66-3.85-.13,0-.19.09-.19.22Z"/>
    <path class="cls-5" d="M14.95,32.04c-.85,1.22-4.04,5.76-7.14,10.12-3.07,4.32-5.67,8.11-5.76,8.36-.19.56-.38.75,2.6-2.66,1.35-1.57,3.38-3.82,4.54-5.01,2.35-2.47,4.32-5.07,5.23-6.89.78-1.53,2.35-5.83,2.19-5.98-.06-.06-.81.88-1.66,2.07Z"/>
    <path class="cls-5" d="M30.39,37.08c1.5,3.13.81,6.55-1.88,9.3-1.57,1.6-3.51,2.26-6.77,2.32-1.22.03-2.22.09-2.22.16,0,.03.53.31,1.19.6.81.34,1.79.47,3.38.34,3.51-.19,5.98-1.94,7.39-5.23.91-2.07.69-5.64-.5-7.64-1.13-1.94-1.53-1.85-.6.16Z"/>
    <path class="cls-5" d="M36.53,44.38c4.79,1.75,8.24,4.79,10.56,9.4,1,1.97,1.25,2.29,1.13,1.44-.34-2-2.07-5.01-4.1-7.08-2.22-2.29-5.48-4.01-8.14-4.32l-1.57-.19,2.13.75Z"/>
    <path class="cls-5" d="M16.86,50.33c-2.6.97-4.17,1.82-3.66,2,.5.16,3.79-1,5.26-1.88,1.91-1.13,1.19-1.16-1.6-.13Z"/>
    <path class="cls-5" d="M29.95,50.21c-3.66.78-5.73,3.35-5.73,7.2,0,3.57,1.82,6.73,5.7,9.9,5.48,4.45,11.03,7.24,17.79,8.93,2.79.69,2.82.69,2.66.19-.06-.19-.85-2.69-1.72-5.51l-1.63-5.17-.6.78c-.72.97-1.94,3.1-1.75,3.1.09,0,.6-.66,1.13-1.44.6-.94,1-1.32,1.1-1.03.09.25.66,2.32,1.25,4.64l1.1,4.17-1.16-.19c-1.82-.28-6.61-1.94-9.15-3.19-5.51-2.66-11.34-7.49-13-10.74-1.22-2.44-1.38-5.64-.41-7.52,1.91-3.6,5.39-3.79,11.53-.63,3.32,1.72,5.61,3.54,12.25,9.74,6.08,5.64,7.96,7.02,11.49,8.33,3.41,1.25,7.93.38,11-1.16,1.36-1.08,2.47-1.57,3.66-3.1,2.54-3.61,1.73-3.22,1.16-3.79s-1.79.05-3.82,2.71c-4.35,5.7-6.55,6.61-11.56,4.82-4.04-1.44-5.26-2.41-12.9-10.12-4.35-4.39-8.08-7.89-9.15-8.55-3.41-2.16-6.51-2.94-9.24-2.38Z"/>
    <path class="cls-5" d="M11.69,53.47c0,.78-2.57,2.69-4.29,3.19-1.88.53-3.16.31-3.7-.69-.19-.31-.6-1.06-.91-1.63-.81-1.57-.91-1.03-.19.94.72,1.85,1.41,2.44,3.23,2.79,2.66.47,5.45-1.25,6.08-3.76.19-.72.22-1.28.06-1.28s-.28.19-.28.44Z"/>
  </g>
  <text class="cls-4" transform="translate(55.16 54.5)"><tspan class="cls-3" x="0" y="0">Sport</tspan><tspan class="cls-2" x="44.21" y="0">Ho</tspan><tspan class="cls-1" x="65.89" y="0">r</tspan><tspan class="cls-2" x="73.11" y="0">ses</tspan></text>
  <g>
    <path class="cls-5" d="M83.84,58.9l-.81,2.46h-.26c.02-.18.03-.33.03-.45,0-.49-.22-.9-.67-1.24-.44-.34-.99-.51-1.64-.51h-.34l-.93,2.97c.34,0,.62-.06.85-.15.23-.09.48-.26.77-.52.29-.25.51-.56.67-.94h.28l-1.25,3.85h-.22c.06-.21.09-.4.09-.57,0-.88-.43-1.33-1.29-1.36l-2.45,3.25h0l-2.95.43.08-.25s-.27-.25.15-.83c.83-1.16,2.19-3.23,2.92-5.87.06-.21-.89,0-.89,0l.09-.25h7.78Z"/>
    <path class="cls-5" d="M89.57,61.64c-.67,2.05-1.03,3.16-1.08,3.32-.06.16-.08.27-.08.34,0,.04.02.07.05.1s.06.05.1.05c.08,0,.2-.11.35-.31.15-.21.29-.45.41-.73l.21.1c-.44,1.09-1.14,1.64-2.09,1.64-.32,0-.6-.08-.85-.23-.25-.15-.43-.36-.52-.62-.59.57-1.24.85-1.93.85-.5,0-.92-.15-1.25-.43-.33-.29-.49-.66-.49-1.11,0-.79.37-1.5,1.11-2.15.74-.65,1.56-.97,2.47-.97.43,0,.77.1,1.01.29l.03-.13h2.56ZM86.9,61.97c-.16-.16-.33-.24-.5-.24-.12,0-.23.05-.32.14-.09.09-.16.23-.22.41l-.83,2.56c-.05.15-.08.28-.08.4,0,.18.07.26.22.26.19,0,.46-.15.82-.46,0-.19.06-.46.17-.8l.73-2.27Z"/>
    <path class="cls-5" d="M97.22,64.32c-.45,1.21-1.21,1.82-2.3,1.82-.4,0-.71-.09-.95-.27s-.36-.42-.36-.71c0-.1.02-.24.06-.41l-.02-.02c-.87.94-1.66,1.41-2.35,1.41-.35,0-.64-.09-.86-.28-.22-.19-.33-.43-.33-.72,0-.16.04-.37.13-.64l.85-2.64h-.71l.07-.21c1.31,0,2.43-.07,3.36-.22-.66,2.04-1.01,3.12-1.04,3.23-.04.11-.06.19-.06.24,0,.09.04.14.12.14.05,0,.1-.02.17-.06s.14-.09.22-.16c.08-.07.16-.14.23-.22s.15-.16.23-.25l.06-.06s.09-.23.22-.63l.65-2.01h2.59l-.73,2.23c-.22.71-.34,1.08-.36,1.12s-.02.08-.02.12c0,.11.04.16.12.16.1,0,.22-.1.37-.3.15-.2.27-.44.37-.73l.24.08Z"/>
    <path class="cls-5" d="M101.42,62.02c.42-.25.74-.41.96-.46.23-.05.46-.08.68-.08.46,0,.84.15,1.13.44.29.29.44.67.44,1.14,0,.79-.3,1.5-.9,2.13s-1.28.95-2.02.95c-.15,0-.34-.03-.58-.09-.24-.06-.52-.25-.84-.56l-.87,2.66h.67l-.06.22h-3.91l.08-.22h.64l2.06-6.3h-.71l.07-.21h.34c1.21,0,2.22-.07,3.01-.22l-.2.6ZM100.4,65.19c.23.26.4.39.53.39.06,0,.12-.02.16-.05.05-.03.09-.08.13-.15.04-.07.1-.23.18-.47l.39-1.2c.18-.55.29-.9.33-1.03.04-.13.06-.24.06-.33,0-.19-.08-.28-.23-.28-.17,0-.38.09-.62.26l-.93,2.86Z"/>
    <path class="cls-5" d="M110.43,64.97c-.29.36-.65.65-1.09.85s-.9.31-1.38.31c-.9,0-1.61-.17-2.12-.52-.51-.35-.77-.83-.77-1.43,0-.78.34-1.43,1.02-1.94.68-.52,1.55-.77,2.6-.77.71,0,1.28.14,1.72.42s.66.64.66,1.08-.23.85-.69,1.17-1.02.48-1.68.48c-.3,0-.69-.04-1.17-.11-.18.55-.27.85-.27.9,0,.12.1.21.3.29s.45.11.74.11c.31,0,.66-.09,1.04-.28.38-.18.69-.42.94-.72l.15.16ZM107.6,64.27c.09,0,.19.01.31.01.15,0,.27-.02.37-.05.09-.03.18-.1.26-.2.08-.1.17-.3.26-.58l.29-.88c.1-.3.15-.51.15-.61,0-.08-.04-.14-.11-.19s-.17-.08-.27-.08c-.15,0-.28.05-.37.16s-.17.26-.24.46l-.64,1.97Z"/>
    <path class="cls-5" d="M116.17,58.7l-2.06,6.33c-.04.11-.05.2-.05.28,0,.09.04.13.12.13.07,0,.19-.11.36-.31.17-.21.31-.45.42-.72l.22.09c-.25.56-.55.97-.89,1.24-.35.27-.78.4-1.28.4-.44,0-.79-.09-1.06-.27-.27-.18-.41-.42-.41-.7,0-.09.06-.31.17-.65l1.75-5.39h-.71l.08-.22h.29c1.18,0,2.2-.07,3.06-.2Z"/>
  </g>
</svg>