<?xml version="1.0" encoding="UTF-8"?>
<svg id="Ebene_1" data-name="Ebene 1" xmlns="http://www.w3.org/2000/svg" viewBox="0 0 205.57 175.28">
  <defs>
    <style>
      .cls-1 {
        fill: #665349;
      }

      .cls-1, .cls-2, .cls-3 {
        fill-rule: evenodd;
      }

      .cls-2 {
        fill: #e2ad37;
      }

      .cls-4 {
        letter-spacing: 0em;
      }

      .cls-5 {
        fill: #877c4e;
        font-family: MyriadPro-Bold, 'Myriad Pro';
        font-size: 24px;
        font-weight: 700;
      }

      .cls-3 {
        fill: #292735;
      }
    </style>
  </defs>
  <path class="cls-1" d="M14.14,87.29c0-2.07,1.68-3.75,3.75-3.75h2.76c1.24-10.54,10.13-18.75,20.96-18.92,3.82-5.93,10.48-9.87,18.06-9.87,3.16,0,6.16.68,8.86,1.91,2.7-1.23,5.7-1.91,8.86-1.91,2.39,0,4.7.39,6.85,1.12,3.87-3.75,9.14-6.07,14.95-6.07s11.14,2.34,15.01,6.13l7.19,1.55c1.81-3.38,10.34.55,14.03-.5,3.69-1.05-1.71-1.92,1.61,0l1.74-.12c3.32,1.92.56-5.46,1.49-1.74.93,3.72,3.63-3.01,1.61.25l2.5.02c6.51,1.64,11.84,6.26,14.46,12.32.96-.13,1.95-.2,2.95-.2,9.97,0,18.36,6.81,20.76,16.03h0s3.3,0,3.3,0c2.07,0,3.75,1.68,3.75,3.75M152.21,15.46"/>
  <path class="cls-2" d="M182.79,85.24h0s3.3,0,3.3,0c2.07,0,3.75,1.68,3.75,3.75,0,31.37-11.27,40.69-29.26,58.47v9.01c0,2.07-1.68,3.75-3.75,3.75H47.41c-2.07,0-3.75-1.68-3.75-3.75v-9.01c-17.99-17.78-29.26-27.1-29.26-58.47,0-2.07,1.68-3.75,3.75-3.75h2.76"/>
  <path class="cls-3" d="M115.1,57.34l22.21-41.4c1.81-3.38,4.91-5.88,8.6-6.93,3.69-1.05,7.64-.56,10.96,1.36h0c3.32,1.92,5.72,5.1,6.65,8.81.93,3.72.32,7.65-1.7,10.91l-16.55,26.71M136.69,56.42l18.76-30.27c.95-1.53,1.24-3.39.8-5.13-.44-1.75-1.57-3.25-3.13-4.15h0c-1.56-.9-3.42-1.13-5.16-.64-1.73.49-3.19,1.67-4.05,3.26l-19.72,36.76c2.46.22,4.81.85,6.97,1.83,1.73-.79,3.59-1.35,5.53-1.65Z"/>
  <text class="cls-5" transform="translate(70.52 127.18)"><tspan class="cls-4" x="0" y="0">M</tspan><tspan x="20.38" y="0">ash</tspan></text>
</svg>