<?xml version="1.0" encoding="UTF-8"?>
<svg id="Glyph" xmlns="http://www.w3.org/2000/svg" viewBox="0 0 512 512">
  <defs>
    <style>
      .cls-1, .cls-2 {
        fill: #fff;
      }

      .cls-1, .cls-3, .cls-4 {
        stroke: #000;
        stroke-miterlimit: 10;
        stroke-width: 3px;
      }

      .cls-5 {
        fill: #ffce94;
      }

      .cls-3 {
        fill: #f20a31;
      }

      .cls-4 {
        fill: #ff002b;
      }
    </style>
  </defs>
  <g id="Glyph-2">
    <path d="M108.8,158.4c-18.08,13.64-28.74,34.95-28.8,57.6v240c0,22.09,17.91,39.99,40,40h256c30.93,0,56-25.07,56-56s-25.07-56-56-56h-24v-168c-.06-22.65-10.72-43.96-28.8-57.6l-35.2-26.4v-21.68c9.6-3.57,15.97-12.72,16-22.96v-46.72c0-13.61-11.03-24.63-24.64-24.64h-126.72c-13.61,0-24.63,11.03-24.64,24.64v46.72c.03,10.24,6.4,19.39,16,22.96v21.68l-35.2,26.4ZM120,480c-13.24-.04-23.96-10.76-24-24h130.32c2.76,9.1,7.77,17.35,14.56,24h-120.88ZM248,312c4.42,0,8,3.58,8,8v16c0,4.42-3.58,8-8,8h-16v16c0,4.42-3.58,8-8,8h-16c-4.42,0-8-3.58-8-8v-16h-16c-4.42,0-8-3.58-8-8v-16c0-4.42,3.58-8,8-8h16v-16c0-4.42,3.58-8,8-8h16c4.42,0,8,3.58,8,8v16h16ZM320,480h-40c-22.09,0-40-17.91-40-40s17.91-40,40-40h40v80ZM248,56c0-4.42,3.58-8,8-8s8,3.58,8,8v16c0,4.42-3.58,8-8,8s-8-3.58-8-8v-16ZM208,56c0-4.42,3.58-8,8-8s8,3.58,8,8v16c0,4.42-3.58,8-8,8s-8-3.58-8-8v-16ZM168,56c0-4.42,3.58-8,8-8s8,3.58,8,8v16c0,4.42-3.58,8-8,8s-8-3.58-8-8v-16ZM160,112h112v16h-112v-16ZM154.64,144h122.72l36.24,27.2c14.06,10.61,22.35,27.18,22.4,44.8H96c.05-17.62,8.34-34.19,22.4-44.8l36.24-27.2Z"/>
  </g>
  <rect class="cls-5" x="96" y="216" width="240.55" height="239.23"/>
  <path class="cls-3" d="M250.14,306.92c4.42,0,8,3.58,8,8v16c0,4.42-3.58,8-8,8h-16v16c0,4.42-3.58,8-8,8h-16c-4.42,0-8-3.58-8-8v-16h-16c-4.42,0-8-3.58-8-8v-16c0-4.42,3.58-8,8-8h16v-16c0-4.42,3.58-8,8-8h16c4.42,0,8,3.58,8,8v16h16Z"/>
  <rect class="cls-3" x="223.83" y="384.47" width="208.17" height="111.48" rx="54.87" ry="54.87"/>
  <path class="cls-1" d="M328.52,384.47h-49.46c-30.3,0-54.87,24.57-54.87,54.87v1.74c0,30.3,24.57,54.87,54.87,54.87h49.46v-111.48Z"/>
  <path class="cls-4" d="M287.64,110.2c2.01-.75,7.48-3.08,11.59-8.98,4.11-5.9,4.41-11.84,4.41-13.98v-46.72c0-13.61-11.03-24.63-24.64-24.64h-126.72c-13.61,0-24.63,11.03-24.64,24.64l.32,41.48c.03,3.94.72,7.84,2.09,11.53.98,2.65,2.22,5.54,3.46,7.32.03.04.05.07.08.11,4.16,5.9,11.07,9.23,18.28,9.23h135.78Z"/>
  <path class="cls-2" d="M247.64,55.88c0-4.42,3.58-8,8-8s8,3.58,8,8v16c0,4.42-3.58,8-8,8s-8-3.58-8-8v-16Z"/>
  <path class="cls-2" d="M207.64,55.88c0-4.42,3.58-8,8-8s8,3.58,8,8v16c0,4.42-3.58,8-8,8s-8-3.58-8-8v-16Z"/>
  <path class="cls-2" d="M167.64,55.88c0-4.42,3.58-8,8-8s8,3.58,8,8v16c0,4.42-3.58,8-8,8s-8-3.58-8-8v-16Z"/>
</svg>