<?xml version="1.0" encoding="UTF-8"?>
<svg id="Layer_2" data-name="Layer 2" xmlns="http://www.w3.org/2000/svg" viewBox="0 0 51 40">
  <defs>
    <style>
      .cls-1 {
        fill: #baadaa;
      }
    </style>
  </defs>
  <path class="cls-1" d="M47.74,20.48c.48-.72.57-1.68.19-2.46-.18-.36-.32-.78-.46-1.32h0c-.09-.35-.17-.72-.24-1.08-.22-1.04-.44-2.11-1.01-3.01-.74-1.15-1.67-.97-2.44-.63,0,0-.01,0-.02,0-.1-.47-.4-.93-.77-1.13-.27-.15-.54-.23-.81-.31-.21-.06-.4-.12-.58-.2-.18-.08-.34-.21-.45-.34-.33-.43-.87-.63-1.42-.54l-.29.05c-.02-.36-.11-.72-.3-1.02-.42-.66-1.14-1.13-1.99-1.3-.23-.05-.45-.06-.67-.05-.02-.03-.04-.06-.06-.1l-.04-.08-.08-.04c-.14-.08-.16-.36-.19-.65-.03-.42-.08-.93-.55-1.16-.24-.11-.49-.09-.67-.07-1.2.12-2.39.25-3.57.37-1,.1-2.01.21-3.02.31-.26.03-.51-.06-.69-.24-1.14-1.11-2.38-2.27-3.83-3.1-1.54-.88-3.22-1.24-4.73-1.02-.57.08-1.05.47-1.25,1.02-.17.45-.26.93-.26,1.39,0,.31-.16.61-.42.76-.7.42-1.31,1.08-1.68,1.81-.15.3-.42.5-.72.53h-.05c-.13.02-.26.03-.38.04-.34.03-.66.18-.92.43-.62.61-1.23,1.17-1.85,1.7-.26-.14-.54-.26-.84-.34l-.11-.03-.11.05c-3.09,1.41-5.96,3.63-9.02,6.98l-.08.09v.12c-.05,1.31.74,2.56,1.9,3.1-.04.27-.07.54-.08.82-.08,1.64.05,3.29.4,4.89-.15.24-.27.5-.33.77-.13.58-.04,1.17.05,1.69.11.67.2,1.75.28,2.61.12,1.25.15,1.64.25,1.79-.12.42-.1.87.07,1.27.19.44.54.77.98.93.48.18,1.02.27,1.57.27.75,0,1.53-.16,2.23-.48.25-.11.44-.32.55-.56.05.04.1.09.16.13.49.38,1.04.67,1.62.86.78.25,1.55.3,2.24.14.18-.04.59-.16,1.01-.39.08.48.39.89.85,1.08,2.41.98,7.05,2.61,8.57,3.15l.38.13s0,0,.01,0l.05.02c.32.13.72.22,1.13.22s.8-.09,1.13-.3c.51-.33.91-.85,1.15-1.47.05,0,.11,0,.16,0,.27,0,.53-.04.78-.12,1.7-.53,2.35-2.27,2.23-3.66-.01-.13-.03-.26-.05-.39.33.05.65.1.99.13,3.9.41,7.89.76,12.18,1.05h0s.2.01.2.01c.2.01.4.03.59.04.23.02.46.04.69.05.02,0,.05,0,.07,0,.8,0,1.45-.88,1.55-1.74.02-.15.06-.3.11-.47.11-.37.22-.8.05-1.23-.24-.59-.79-1.03-1.42-1.13-.19-.03-.38-.06-.58-.09h0s-.6-.09-.6-.09c-.06,0-.11-.02-.17-.03-1.09-.16-2.29-.34-3.53-.51.23-.21.4-.48.5-.76.13-.35.15-.77.09-1.18.69-.2,1.35-.53,1.93-.98.27-.21.61-.3.94-.24.32.05.59.22.77.49.16.25.35.47.55.67.56.54,1.47.89,2.14.39.31-.23.46-.57.59-.87.03-.06.06-.13.09-.19.08-.17.18-.31.28-.39.39-.33.47-2.34.32-2.66-.39-.82-.83-1.55-1.3-2.25Z"/>
  <g>
    <path d="M47.74,20.48c.48-.72.57-1.68.19-2.46-.18-.36-.32-.78-.46-1.32h0c-.09-.35-.17-.72-.24-1.08-.22-1.04-.44-2.11-1.01-3.01-.74-1.15-1.67-.97-2.44-.63,0,0-.01,0-.02,0-.1-.47-.4-.93-.77-1.13-.27-.15-.54-.23-.81-.31-.21-.06-.4-.12-.58-.2-.18-.08-.34-.21-.45-.34-.33-.43-.87-.63-1.42-.54l-.29.05c-.02-.36-.11-.72-.3-1.02-.42-.66-1.14-1.13-1.99-1.3-.23-.05-.45-.06-.67-.05-.02-.03-.04-.06-.06-.1l-.04-.08-.08-.04c-.14-.08-.16-.36-.19-.65-.03-.42-.08-.93-.55-1.16-.24-.11-.49-.09-.67-.07-1.2.12-2.39.25-3.57.37-1,.11-2.01.21-3.02.31-.26.03-.51-.06-.69-.24-1.14-1.11-2.38-2.27-3.83-3.1-1.54-.88-3.22-1.24-4.73-1.02-.57.08-1.05.47-1.25,1.02-.17.45-.26.93-.26,1.39,0,.31-.16.61-.42.76-.7.42-1.31,1.08-1.68,1.81-.15.3-.42.5-.72.53h-.05c-.13.02-.26.03-.38.04-.34.03-.66.18-.92.43-.62.61-1.23,1.17-1.85,1.7-.26-.14-.54-.26-.84-.34l-.11-.03-.11.05c-3.09,1.41-5.96,3.63-9.02,6.98l-.08.09v.12c-.05,1.31.74,2.56,1.9,3.1-.04.27-.07.54-.08.82-.08,1.64.05,3.29.4,4.89-.15.24-.27.5-.33.77-.13.58-.04,1.17.05,1.69.11.67.2,1.75.28,2.61.12,1.25.15,1.64.25,1.79-.12.42-.1.87.07,1.27.19.44.54.77.98.93.48.18,1.02.27,1.57.27.75,0,1.53-.16,2.23-.48.25-.11.44-.32.55-.56.05.04.1.09.16.13.49.38,1.04.67,1.62.86.78.25,1.55.3,2.24.14.18-.04.59-.16,1.01-.39.08.48.39.89.85,1.08,2.41.98,7.05,2.61,8.57,3.15l.38.13s0,0,.01,0l.05.02c.32.13.72.22,1.13.22s.8-.09,1.13-.3c.51-.33.91-.85,1.15-1.47.05,0,.11,0,.16,0,.27,0,.53-.04.78-.12,1.7-.53,2.35-2.27,2.23-3.66-.01-.13-.03-.26-.05-.39.33.05.65.1.99.13,3.9.41,7.89.76,12.18,1.05h0s.2.01.2.01c.2.01.4.03.59.04.23.02.46.04.69.05.02,0,.05,0,.07,0,.8,0,1.45-.88,1.55-1.74.02-.15.06-.3.11-.47.11-.37.22-.8.05-1.23-.24-.59-.79-1.03-1.42-1.13-.19-.03-.38-.06-.58-.09h0s-.6-.09-.6-.09c-.06,0-.11-.02-.17-.03-1.09-.16-2.29-.34-3.53-.51.23-.21.4-.48.5-.76.13-.35.15-.77.09-1.18.69-.2,1.35-.53,1.93-.98.27-.21.61-.3.94-.24.32.05.59.22.77.49.16.25.35.47.55.67.56.54,1.47.89,2.14.39.31-.23.46-.57.59-.87.03-.06.06-.13.09-.19.08-.17.18-.31.28-.39.39-.33.47-2.34.32-2.66-.39-.82-.83-1.55-1.3-2.25ZM48.27,24.91c-.2.18-.33.41-.41.58-.03.07-.06.14-.09.21-.11.25-.22.48-.39.61-.35.26-.93.02-1.3-.34-.17-.16-.33-.35-.46-.56-.08-.12-.17-.22-.27-.31.08-.08.13-.2.09-.32-.2-.74.05-1.93.52-2.47.06-.06.08-.14.08-.22.31-.18.58-.45.84-.71.14-.14.27-.27.39-.37.01-.01.02-.03.04-.04.42.63.81,1.28,1.15,2,.07.25-.04,1.64-.18,1.93ZM40.73,27.47c-.12.32-.39.67-.72.67h0c-.39.01-.8.02-1.22.02-.84,0-1.75-.01-2.66-.04-.57-.02-1.15-.05-1.72-.08-.26-.02-.52-.03-.78-.05-.23-.02-.47-.03-.7-.05-2.31-.19-4.3-.5-5.11-.94-.04-.02-.08-.05-.12-.07-.07-.05-.14-.1-.2-.16-.41-.38-.65-.99-.61-1.59.05-.69.4-1.49.97-1.59,1.2-.21,2.47-.29,3.78-.29,2.01,0,4.11.19,6.16.38.5.04.99.09,1.48.13.27.02.56.21.76.49.21.29.3.63.24.9l-.04.16.1.12c.13.15.23.34.31.53.04.1.07.21.1.31.03.11.05.21.06.32.03.29.01.58-.07.82ZM44.63,29.66s0,0,0,0c0,0,0,0,0,0,.34.05.68.1.99.15.39.06.76.35.91.73h0c.09.22.01.49-.07.81-.05.18-.1.37-.13.56-.07.56-.5,1.2-.94,1.17-.23-.01-.45-.03-.68-.05-.13-.01-.25-.02-.38-.03,0,0,0,0,0,0,0-.02,0-.04,0-.06,0-.03-.01-.06-.02-.1,0-.06-.01-.12-.02-.17,0-.03,0-.06,0-.1,0-.06,0-.12.02-.18,0-.03,0-.06.01-.08.02-.08.04-.17.08-.25l.04-.08-.02-.15c-.07-.55-.15-1.23-.01-1.71.02-.07.05-.14.08-.21,0-.02.02-.03.03-.05.03-.07.07-.13.12-.2ZM43.88,29.66s-.02.04-.03.07c-.03.07-.05.14-.07.21-.17.61-.08,1.35-.01,1.95-.04.11-.07.22-.09.33,0,.03-.01.06-.02.09-.01.1-.02.2-.02.3,0,.02,0,.03,0,.05,0,.1,0,.19.02.29-4.19-.29-8.09-.63-11.91-1.03-.42-.04-.83-.1-1.23-.17-.13-.02-.25-.05-.37-.07-.13-.03-.26-.05-.38-.08-.95-.21-1.85-.5-2.61-.84-.27-.56-.36-1.23-.23-1.85.1-.48.33-.94.65-1.31.79.39,2.36.67,4.2.87.2.02.4.04.61.06.22.02.44.04.67.06,1.81.15,3.77.22,5.48.22.07,0,.13,0,.2,0,1.81.25,3.61.51,5.21.75-.02.03-.03.07-.05.1ZM30.1,32.88c.09,1.14-.42,2.56-1.78,2.99-.18.06-.37.08-.57.08.09-.58-.01-1.17-.13-1.67-.1-.43-.39-.78-.78-.97-.24-.11-.5-.23-.76-.34h0s-.43-.18-.43-.18c-1.33-.53-2.84-.98-4.43-1.32.3-.05.59-.11.86-.17l.24-.05v-.25c.04-.55.06-1.09.08-1.62l3.5.83s.05,0,.08,0c.11,0,.21-.06.27-.14.06.38.18.75.36,1.09l.05.1.1.05c.93.43,2.04.78,3.23,1.01.05.19.08.38.09.57ZM26.92,36.48c-.19.44-.48.81-.84,1.04-.36.23-.98.26-1.53.07-.02-.06-.04-.13-.06-.19-.01-.05-.03-.1-.04-.14-.02-.08-.03-.17-.04-.25,0-.04-.02-.08-.02-.12-.01-.1-.01-.19-.02-.29,0-.03,0-.06,0-.09,0-.13,0-.25.02-.38.01-.12.03-.23.05-.35,0,0,0,0,0-.01,0-.03.02-.07.02-.1.02-.07.03-.15.05-.22,0,0,0-.01,0-.02.01-.05.03-.09.04-.14.02-.05.03-.1.05-.15,0-.02.01-.04.02-.07.02-.05.04-.1.06-.15.03-.07.06-.14.09-.2.02-.05.05-.1.08-.15.03-.06.07-.13.1-.19.03-.05.06-.1.09-.15.04-.06.08-.12.12-.18.03-.05.07-.1.11-.15.04-.06.08-.12.13-.18.04-.05.08-.1.12-.15.03-.03.05-.06.08-.09.33.14.64.28.93.42.22.1.37.3.43.54.11.44.2.96.12,1.43,0,.02,0,.05-.01.07-.02.08-.04.16-.06.24-.03.11-.07.21-.11.31ZM23.81,37.33c-1.64-.58-6.08-2.14-8.41-3.09-.32-.13-.51-.46-.46-.81,0-.05.02-.1.03-.14.04-.2.1-.39.19-.57.04-.09.09-.18.15-.26,0,0,.01-.02.02-.02.21-.31.71-.96,1.29-.96.02,0,.03,0,.05,0,2.88.19,5.89.82,8.33,1.74-.05.06-.09.12-.14.18-.02.02-.04.05-.05.07-.07.1-.15.21-.22.32-.02.03-.03.06-.05.09-.05.09-.11.17-.16.27-.02.04-.05.09-.07.13-.04.08-.08.17-.12.25-.02.05-.05.1-.07.16-.04.09-.07.18-.1.27,0,0,0,0,0,0-.02.05-.04.1-.05.16-.02.05-.03.1-.04.15s-.03.1-.04.15c-.01.05-.03.1-.04.15,0,0,0,0,0,.01-.03.15-.06.31-.07.47-.02.14-.02.28-.02.43,0,.04,0,.08,0,.11,0,.14.01.28.03.42,0,.01,0,.02,0,.04.01.09.03.19.05.28ZM8.71,32.46s0,0,0,.01c.03.22-.08.42-.26.5-1.06.47-2.36.55-3.31.19-.27-.1-.49-.31-.61-.59-.13-.29-.14-.63-.02-.93.09-.21.17-.42.28-.61.02-.03.04-.07.07-.11.18-.27.49-.63.95-.75.2-.05.38-.13.53-.21.06-.03.11-.05.16-.07.01,0,.03-.01.04-.02.04-.02.08-.03.11-.04.01,0,.02,0,.03,0,.04,0,.08-.02.12-.02,0,0,0,0,0,0,.05,0,.1,0,.15.03,0,0,0,0,0,0,.14.05.27.1.41.16.04.02.08.04.12.06,0,0,0,0,0,0,.1.04.19.08.28.13.05.03.1.06.15.08.05.03.1.05.14.08.03.02.07.04.1.06.05.03.1.07.15.11.05.04.11.08.16.12h0s.02.23.02.23c0,.05.01.11.02.16.03.26.06.53.09.79.03.21.05.43.08.64ZM10.99,9.49c.11.05.21.1.31.16.1.06.19.12.28.19.26.2.49.45.67.75.32.5.18,1.29.06,1.98-.02.1-.03.19-.05.28l-6.71,4.84c-.12.08-.24.18-.36.27-.41.33-.81.63-1.19.59-.04,0-.08,0-.11-.02-.07-.02-.13-.04-.2-.07-.1-.04-.2-.09-.3-.15-.8-.45-1.36-1.36-1.37-2.29,2.93-3.2,5.67-5.33,8.61-6.68.12.04.24.08.35.14ZM14.75,7.51h.05c.38-.05.74-.24.99-.53l2.13,2.6s.06.06.1.08c-.19,0-.38.02-.57.04-.65.09-1.36.48-1.9,1.02-.77-.5-1.69-.75-2.6-.7-.09,0-.17.05-.23.11-.19-.27-.4-.51-.64-.71.59-.51,1.17-1.04,1.75-1.62.15-.14.33-.23.52-.25.13-.01.26-.02.39-.04ZM17.97,4.57s.05.02.08.02c1.06.05,2.09.61,2.75,1.46-.09,0-.18.02-.28.03-.82.11-1.73.67-2.31,1.44l-.09.11.27,1.51-2.21-2.7s-.03-.02-.04-.03c.32-.53.78-1.01,1.31-1.33.21-.13.38-.31.51-.52ZM18.19,3.76c0-.39.07-.79.22-1.16.12-.33.4-.56.74-.61,1.37-.2,2.9.14,4.32.94,1.39.79,2.59,1.91,3.7,3,.07.07.15.13.22.18-.04.02-.07.04-.1.08-.5.55-.83,1.26-.94,2-.03.18.1.34.27.37.02,0,.03,0,.05,0,.16,0,.3-.12.32-.28.09-.61.37-1.2.78-1.66.08-.09.09-.2.06-.31.17.05.36.06.54.05.47-.05.93-.1,1.39-.14-.01.01-.03.03-.04.04-.09.15-.05.35.1.45,1.38.86,2.74,1.77,4.06,2.72,0,0,.02,0,.03.01l-.04.1h0c-.22.6-.42,1.23-.6,1.89-.14-.08-.3-.14-.47-.17-.48-.06-.92.17-1.25.34l-1.69.9c.04-.09.04-.18,0-.27-.66-1.3-1.61-2.46-2.75-3.35-.26-.21-.58-.41-.96-.37-.28.03-.51.2-.67.32l-1.71,1.29c-.19-1.25-.36-2.47-.53-3.67l-.03-.24-.24-.03c-.48-.07-.96-.13-1.45-.15,0-.06-.01-.12-.05-.17-.74-1.09-1.99-1.81-3.29-1.91,0-.06.01-.12.01-.18ZM35.3,5.69c.13.06.16.29.18.63.02.3.06.65.25.92-.11.02-.23.05-.33.08-.42.11-.77.4-.95.81-.1.22-.2.45-.29.69-1.29-.92-2.61-1.81-3.95-2.64.4-.04.8-.08,1.2-.12,1.18-.12,2.37-.25,3.57-.37.11-.01.25-.02.32.01ZM37.03,7.81c.68.14,1.25.5,1.57,1.01.13.2.19.48.2.78,0,.11,0,.22-.01.33-.02.15-.05.31-.09.45-.06.02-.12.04-.18.06-.05.01-.1.03-.15.04,0,0-.01,0-.02,0,0,0-.01,0-.02,0-.06.01-.13.03-.19.04-.05,0-.09.02-.14.03,0,0-.02,0-.03,0-.07,0-.14.01-.21.02-.04,0-.09,0-.13,0-.12,0-.25,0-.37-.01-.11-.01-.23-.03-.34-.05-.04,0-.08-.02-.12-.03-.08-.02-.15-.03-.23-.06-.05-.01-.09-.03-.14-.05-.07-.02-.14-.04-.21-.07-.05-.02-.1-.04-.15-.06-.07-.03-.13-.06-.2-.09-.05-.02-.1-.05-.15-.08-.06-.03-.13-.07-.19-.1-.05-.03-.1-.06-.15-.09-.06-.04-.12-.08-.19-.12-.05-.03-.1-.07-.15-.1-.06-.04-.12-.09-.18-.14-.05-.04-.1-.08-.14-.12-.03-.03-.06-.05-.09-.08.13-.34.26-.67.4-.97.1-.22.29-.38.52-.44.18-.05.37-.09.57-.12.12-.02.24-.03.36-.04.13,0,.25,0,.38,0,.06,0,.11.01.16.02ZM40.64,10.39c.17.22.41.41.69.54.22.1.45.17.67.24.25.07.48.14.69.25.14.08.26.23.35.41-.21-.01-.42,0-.6.04-.25.06-.43.18-.52.36-.23.43-.22.91-.18,1.37.02.25.04.5.07.74-.91-.51-1.86-.93-2.84-1.26-.17-.06-.35.03-.41.2-.06.17.03.35.2.41,1.08.36,2.13.84,3.11,1.43.01,0,.02,0,.03.01.21,1.54.57,3.08,1.05,4.6-2.22.25-4.46.18-6.66-.19.3-.83.65-1.84,1.01-2.88.02,0,.03.02.05.03,1.55.46,3.07,1.09,4.5,1.85.05.03.1.04.15.04.12,0,.23-.06.29-.17.08-.16.02-.36-.13-.44-1.47-.78-3.03-1.42-4.62-1.9-.01,0-.02,0-.03,0,.67-1.98,1.31-3.95,1.6-4.85l.13-.4s0-.01,0-.02l.02-.05c.07-.18.12-.38.16-.6l.43-.07c.31-.05.62.06.8.3ZM43.91,12.64c.87-.42,1.33-.34,1.76.32.51.8.71,1.77.92,2.79.05.24.1.48.15.72-.1.01-.2.03-.29.05-.01,0-.02,0-.04,0-.09.02-.18.05-.27.08-.02,0-.05.02-.07.03-.1.04-.19.08-.28.13-.07.04-.14.08-.21.13-.09.06-.17.13-.25.2-.08.08-.16.16-.23.24-.07.09-.14.19-.19.3-.1.19-.18.39-.25.63,0,0,0,0,0,0-.09.06-.18.13-.27.19-.04.03-.07.06-.11.09-.06.05-.11.09-.16.14-.04.03-.08.07-.11.1-.08.08-.15.15-.22.24-.03.04-.06.08-.09.11-.05.06-.09.12-.14.18-.01.02-.03.04-.04.06-.61-1.93-.99-3.9-1.14-5.85-.03-.36-.04-.74.1-1.01.05-.05.21-.08.4-.08.09,0,.18,0,.27.02.12.01.23.04.32.07.05.02.09.03.12.05l.15.1.06-.03.11-.05ZM47.33,19.88c-.05.11-.11.21-.18.31-.07.09-.14.18-.22.25-.03.03-.05.05-.08.08-.14.12-.28.26-.44.41-.3.3-.64.64-.94.71-.38.1-.82,0-1.22-.25-.03-.02-.06-.05-.07-.09-.14-.35-.26-.71-.38-1.07h0c.05-.11.12-.21.18-.31.03-.05.06-.11.1-.16.07-.1.15-.2.24-.3.02-.03.05-.06.07-.09.1-.11.2-.2.31-.3.01-.01.03-.03.04-.04.13-.1.26-.19.4-.27l.05-.03.08-.05.03-.14c.02-.1.05-.19.08-.28.04-.13.09-.24.15-.35.06-.1.13-.19.2-.28.11-.12.25-.23.41-.32.07-.04.14-.07.21-.1.02,0,.04-.02.06-.02.06-.02.11-.04.17-.05.02,0,.05-.01.07-.02.06-.01.13-.02.19-.03.02,0,.03,0,.05,0,0,0,.02,0,.02,0,0,0,0,0,0,0,.13.47.27.86.44,1.2.24.48.21,1.08-.02,1.57ZM26.28,28.78c-.06.29-.08.59-.06.88-.04-.04-.09-.07-.15-.09l-3.6-.86s-.02,0-.03,0c.03-.87.06-1.73.07-2.57.05.03.11.06.17.06.02,0,.03,0,.05,0l3.3-.47c.09-.01.16-.06.21-.12.07.63.35,1.22.79,1.63-.37.44-.63.98-.75,1.55ZM4.34,30.52s-.01.01-.02.02c-.03-.25-.05-.54-.08-.82-.08-.87-.18-1.96-.29-2.65-.08-.49-.15-.99-.05-1.45.02-.09.05-.18.09-.27.05-.11.11-.22.18-.32.06-.09.13-.18.21-.26.26-.26.58-.45.93-.5.08-.01.17-.02.25-.02.59,0,1.19.33,1.5.84.82,1.36,1.12,2.94,1.33,4.69,0,0,0,0,0,0-.09-.05-.18-.1-.27-.15-.03-.01-.06-.03-.08-.04-.07-.03-.13-.06-.2-.09-.03-.01-.06-.03-.1-.04-.07-.03-.13-.06-.2-.08-.03-.01-.06-.02-.08-.03-.02,0-.05-.02-.07-.03-.07-.03-.14-.05-.2-.08-.1-.04-.19-.05-.27-.06-.13-.01-.26,0-.37.03-.17.04-.33.11-.48.18-.14.07-.27.13-.42.17-.5.13-.96.48-1.3.98ZM7.63,24.75s-.05-.07-.08-.11c.08-.05.14-.13.15-.23.18-1.45.81-2.84,1.77-3.92.02-.03.04-.05.05-.08.87,1.11,1.74,2.23,2.57,3.31.16.21.33.43.49.64-.98.52-1.83,1.3-2.4,2.21-.57-.12-1.17-.05-1.7.18-.21-.7-.48-1.36-.86-1.99ZM33.09,22.68c-1.31-.05-2.6-.04-3.85.07.1-.08.15-.21.12-.34-.25-.94-.81-1.77-1.57-2.35-.04-.03-.09-.05-.14-.06.04-.1.07-.19.08-.3.01-.11.02-.22.03-.35.17.04.34.07.51.07.43,0,.86-.14,1.26-.41.09-.06.17-.12.26-.18.07-.05.13-.1.2-.14l.13-.09v-.15s.01-.04.02-.05c.02,0,.04,0,.06,0,.13,0,.27-.04.38-.12.58-.4,1.14-.81,1.68-1.21-.04.47-.08.95-.1,1.42-.05.94.78,1.63,1.27,1.95.12.08.25.15.39.21-.1.01-.19.06-.24.15-.31.54-.49,1.16-.51,1.79,0,.03,0,.07.02.1ZM26.23,25.13s0,.04,0,.07c-.07-.08-.17-.13-.29-.11l-3.3.47s-.09.02-.12.04c.02-1.3.02-2.59,0-3.85l4.28-1.01c.19-.04.36-.14.51-.26.02.04.05.07.08.1.65.49,1.13,1.2,1.34,2,.03.1.09.17.18.21-.4.04-.79.1-1.18.17-.94.17-1.43,1.25-1.5,2.18ZM33.73,12.32c.03-.14.07-.27.1-.41.17-.66.37-1.3.58-1.9.05.04.11.08.16.13.03.02.05.04.08.06.1.07.21.15.32.22.02.01.04.03.06.04.09.06.19.11.29.17.04.02.08.04.13.07.08.04.17.08.25.12.05.02.1.04.15.06.09.04.17.07.26.1.05.02.11.04.16.05.1.03.2.06.3.08.05.01.1.03.15.04.15.03.31.06.47.07h0c.11.01.23.02.34.02.04,0,.09,0,.13,0,.07,0,.15,0,.22-.01.05,0,.1,0,.15-.02.07,0,.14-.02.21-.03.05,0,.1-.02.14-.03.01,0,.03,0,.04,0,0,0,.01,0,.02,0,0,0,0,.01,0,.02-.54,1.67-2.02,6.22-2.92,8.6-.12.33-.44.53-.78.48-.34-.04-.67-.17-.96-.35-.31-.2-1.01-.74-.98-1.38.03-.66.09-1.32.16-1.98.02-.15.04-.31.05-.46.02-.15.04-.3.06-.45.14-.97.31-1.93.53-2.86.03-.15.07-.29.11-.44ZM16.85,18.78l.32-.07.36-.07,2.52-.52.32-.07.26-.05h.02s.04-.01.04-.01l.28-.06.32-.07,1.19-.24,2.15-.44.32-.07.2-.04c.28-.06.56-.12.82-.08.01,0,.03,0,.04.01.12.02.24.07.34.13.18.11.34.28.46.46.08.13.15.26.2.4.03.07.05.14.06.21h0c.03.14.05.28.06.42.01.14.01.28.01.41,0,.2-.02.4-.04.57-.03.23-.2.43-.43.48l-4.15.98-.32.08-.32.08-3.87.91-.32.08-.32.08-.26.06c-.87-1.01-1.7-2.05-2.48-3.12l1.92-.4.32-.07ZM27.91,14.43c.22.11.52.28.67.41.47.43.79,1.12.9,1.93.02.13.03.27.04.42,0,.04,0,.07,0,.1,0,.11,0,.23,0,.36,0,.2-.01.41-.02.59-.03.02-.05.04-.08.06-.08.06-.16.12-.25.17-.46.31-.95.38-1.41.2-.01-.2-.03-.4-.08-.6-.14-.57-.5-1.18-1.06-1.5.05-.67.42-1.36,1.04-1.93.07-.07.15-.14.25-.21ZM15.25,26.72s0-.03.01-.04c.04-.15.08-.3.13-.44,0-.02.01-.04.02-.06.05-.14.11-.28.17-.41.05-.1.1-.19.16-.29.02-.03.04-.06.06-.09.04-.06.08-.13.12-.19.02-.04.05-.07.08-.11.04-.06.08-.11.12-.17.03-.04.06-.08.09-.11.04-.05.09-.11.13-.16.03-.04.07-.08.1-.11.05-.05.09-.1.14-.15.04-.04.08-.08.11-.11.05-.05.1-.1.15-.14.04-.04.08-.08.13-.11.05-.05.1-.09.16-.14.05-.04.09-.07.14-.11.04-.03.07-.06.11-.09,0,0,0,0,0,0,0,0,.02.02.02.03.02.02.04.04.06.07.09.11.18.21.28.31.02.02.05.05.07.08.12.13.24.28.34.44.27.39.47.82.42,1.15-.03.18-.17.41-.37.64-.1.11-.2.23-.32.34-.1.1-.21.19-.32.28-.14.12-.29.23-.43.32-.37.24-1.02.47-1.31.11-.14-.18-.28-.36-.42-.54l-.15-.19h0ZM32.36,16.18c-.69.52-1.41,1.04-2.17,1.57-.01,0-.02-.02-.02-.04,0-.01,0-.02,0-.03,0-.15,0-.29,0-.43,0-.02,0-.05,0-.08,0-.17-.02-.33-.04-.48-.13-.96-.52-1.79-1.1-2.32-.03-.03-.07-.06-.11-.09-.11-.09-.25-.17-.38-.25,0,0,0,0,.01,0,.36-.22.83-.51,1.14-.67l2.19-1.16c.32-.17.6-.3.85-.27.14.02.27.09.39.19-.33,1.31-.58,2.69-.75,4.08ZM21.17,17.22c-.4-2.45-.75-4.86-1.08-7.15l-.03-.24-.24-.03c-.21-.03-.43-.06-.64-.08l-.35-1.92c.48-.57,1.18-1,1.79-1.08.67-.09,1.36-.01,2.04.08.44,3.12.93,6.44,1.53,9.81l-3.01.62ZM18.96,10.35c.11.01.23.03.34.04.06,0,.13.02.19.02.26,1.81.53,3.7.84,5.62.07.44.14.88.21,1.33l-.29.06-.32.07-2.88.59-1.22-6.7c.46-.55,1.13-.95,1.71-1.03.36-.05.72-.04,1.08-.02.11,0,.22.02.34.03ZM9.58,18.84c.55-1,1.65-1.67,2.77-1.72.43.68.89,1.34,1.36,1.99.25.35.5.7.76,1.04.23.3.47.6.7.9.39.5.79.99,1.21,1.47.08.09.16.19.24.28.08.09.16.19.24.28.03.04.06.08.1.11-.03.03-.06.05-.1.08-.05.04-.1.08-.15.12-.06.05-.11.1-.17.15-.05.04-.09.08-.14.13-.05.05-.11.1-.16.15-.04.04-.09.09-.13.13-.05.05-.1.11-.15.16-.04.04-.08.09-.12.13-.05.06-.09.11-.14.17-.03.04-.07.09-.1.13-.05.06-.09.12-.13.18-.03.04-.06.08-.09.12-.05.07-.09.14-.13.21-.02.03-.04.07-.07.1-.06.11-.12.21-.17.32-.05.09-.09.19-.13.29-.01.03-.03.07-.04.1-.03.07-.05.13-.08.2,0,0,0,0,0,0-.72-.93-1.44-1.85-2.15-2.77-1.03-1.34-2.1-2.71-3.18-4.09.02-.11.07-.23.15-.39ZM18.72,30.79c-.41-.14-.7-.38-.8-.69-.1-.3-.02-.66.22-1l.06-.08v-.1c.02-.53.02-1.06.02-1.59.47-.42.93-.96,1-1.47.14-.9-.73-1.91-1-2.2-.04-.05-.08-.09-.12-.14-.01-.24-.03-.48-.05-.71l3.83-.9c.04,2.82-.02,5.73-.17,8.81-.93.2-2.04.39-2.99.08ZM29.37,12.76c-.46.24-1.22.72-1.53.92h-.02s-.14.1-.14.1l-.49.31.07.03s-.03.03-.05.04c-.06.05-.11.11-.16.16.01-.07,0-.15-.03-.21-.41-.77-.84-1.57-1.47-2.22-.08-.08-.17-.17-.25-.25-.37-.36-.72-.71-.94-1.14l1.51-1.14c.11-.09.24-.18.35-.2.14-.02.33.11.48.23,1.06.83,1.95,1.91,2.57,3.13.05.09.13.15.23.17l-.15.08ZM24.86,12.1c.08.08.16.16.24.24.57.58.97,1.34,1.36,2.07.06.11.17.17.29.17.03,0,.06,0,.08-.01-.46.55-.75,1.16-.83,1.78-.36-.05-.7.02-1.01.08l-.18.04c-.33-1.84-.62-3.67-.9-5.46.26.42.6.76.94,1.09ZM18.5,9.66c-.06,0-.12,0-.17,0,.02-.01.04-.02.06-.03.04-.03.07-.08.09-.12l.03.16ZM15.14,11.23l.49,2.66c-.79-.52-1.68-.9-2.59-1.11-.03,0-.07,0-.1,0,0-.03.01-.06.02-.1.12-.66.24-1.39.04-2.02.75-.04,1.51.16,2.15.56ZM12.73,13.32s.09.08.16.1c.93.21,1.83.61,2.61,1.17.06.04.12.06.19.06.03,0,.05-.01.08-.02l.65,3.57-2.23.46c-.48-.67-.94-1.35-1.39-2.04l-.09-.15h-.18c-1.27-.02-2.51.62-3.26,1.66-.47-.49-1.04-.87-1.67-1.1l5.14-3.71ZM12.99,24.87c.52.67,1.04,1.34,1.57,2.01h0s.34.43.34.43c.14.18.28.36.42.54.24.31.58.43.95.43.41,0,.86-.16,1.22-.4.02-.02.05-.03.08-.05,0,.32,0,.64-.01.96-.32.49-.4,1.02-.25,1.5.08.23.21.43.39.61-.33-.03-.66-.06-.99-.08-.78-.05-1.39.53-1.76,1.02-1.53-1.5-2.96-3.13-4.24-4.86.53-.88,1.34-1.63,2.29-2.11ZM39.32,23.16c-.49-.04-.98-.09-1.48-.13-1.38-.12-2.77-.25-4.15-.32.01-.03.02-.07.02-.11.01-.52.16-1.03.42-1.48.07-.12.05-.26-.03-.37.18.06.37.11.56.13.06,0,.12.01.17.01.5,0,.97-.28,1.21-.73.01,0,.02.01.03.01,1.39.24,2.8.36,4.22.36.14,0,.28,0,.41,0-.66.74-1.01,1.73-.97,2.72-.14-.05-.27-.09-.42-.1ZM3.91,19.21c.06,0,.12.01.18.01.58,0,1.08-.39,1.52-.74.11-.09.22-.18.33-.26l1.17-.85c.02.11.09.2.21.24.59.2,1.12.56,1.54,1.02.02.02.05.03.07.05-.09.19-.17.41-.16.66v.11s.07.08.07.08c.11.14.22.28.33.42-.07.01-.13.04-.18.1-1.01,1.13-1.68,2.57-1.9,4.08-.52-.42-1.22-.63-1.88-.52-.39.07-.75.24-1.06.49-.27-1.4-.37-2.83-.3-4.26.01-.22.03-.43.06-.65ZM9.33,32.17c-.05-.38-.09-.76-.13-1.15l-.03-.27-.04-.33v-.1s-.01,0-.01,0c-.11-1.04-.24-2.02-.46-2.94.44-.22.97-.29,1.45-.17,0,.05.02.1.06.15,1.32,1.77,2.78,3.45,4.35,4.98.02.02.05.03.07.05-.09.17-.15.36-.21.54-.36.29-.84.48-1.24.58-.57.14-1.23.09-1.89-.13-.52-.17-1-.42-1.43-.76-.18-.14-.34-.29-.49-.45ZM40.93,25.19c.05-.42-.09-.88-.37-1.27-.05-.07-.11-.14-.17-.21.02-.05.03-.11.03-.17-.13-.94.2-1.96.84-2.65.1-.11.11-.26.04-.38.58-.02,1.16-.06,1.74-.13.04,0,.09-.02.12-.04l.03.09c.12.36.25.73.39,1.09.07.17.18.31.33.41.4.25.84.39,1.26.39,0,0,0,0,.01,0-.37.69-.54,1.66-.41,2.42-.12-.04-.24-.08-.36-.1-.51-.08-1.04.05-1.45.37-.51.4-1.08.69-1.68.86-.09-.25-.21-.49-.35-.69Z"/>
    <path d="M23.6,6.54c.11,0,.21-.05.27-.15.41-.61,1.08-1.02,1.8-1.09.18-.02.31-.18.29-.36-.02-.18-.18-.31-.36-.29-.92.09-1.77.61-2.28,1.38-.1.15-.06.35.09.45.06.04.12.05.18.05Z"/>
  </g>
</svg>