<?xml version="1.0" encoding="UTF-8"?>
<svg id="Horseshoes" xmlns="http://www.w3.org/2000/svg" viewBox="0 0 100 100">
  <defs>
    <style>
      .cls-1 {
        fill: none;
        stroke: #000;
        stroke-miterlimit: 10;
        stroke-width: 3px;
      }
    </style>
  </defs>
  <path class="cls-1" d="M87.71,39.96c-.91-5.82-2.53-12.12-4.84-18.82l2.56-1.09-4.27-8.8-14.39,6.13,1.02,2.11c6.37,16.05,8.58,29.19,6.57,39.09-1.45,7.14-5.04,12.38-10.99,16.01-.3.18-.61.36-.92.54-4.25,2.38-7.41,3.54-10.55,3.86h-.08c-.38.05-.78.09-1.18.1-3.48.16-7.26-.67-11.15-1.62-.18-.05-.34-.09-.48-.13-.03,0-.05-.01-.07-.02-6.24-2.51-10.38-6.57-12.65-12.42-7.11-18.34,6.05-46.84,6.19-47.13l-.12-.06.05-.1-14.11-6.77-4.64,8.61,3,1.44c-1.04,2.98-2.16,6.54-3.15,10.47-3.85,15.32-3.79,28.29.17,38.55,3.67,9.49,10.5,16.29,20.32,20.22.69.28,1.17.41,1.64.53.08.02.17.04.28.08l.28.08c4.28,1.05,8.83,2.06,13.58,2.06.49,0,.98-.01,1.48-.03.69-.03,1.39-.09,2.06-.16,6.4-.67,11.74-3.29,15.68-5.5.46-.26.92-.52,1.36-.8,4.19-2.56,7.73-5.77,10.53-9.53,3.29-4.43,5.56-9.64,6.75-15.49,1.29-6.34,1.32-13.54.08-21.4ZM20.03,30.69c1.24,0,2.25,1.01,2.25,2.25s-1.01,2.25-2.25,2.25-2.25-1.01-2.25-2.25,1.01-2.25,2.25-2.25ZM15.49,51.37c0-1.24,1.01-2.25,2.25-2.25s2.25,1.01,2.25,2.25-1.01,2.25-2.25,2.25-2.25-1.01-2.25-2.25ZM20.22,71.54c-1.24,0-2.25-1.01-2.25-2.25s1.01-2.25,2.25-2.25,2.25,1.01,2.25,2.25-1.01,2.25-2.25,2.25ZM79.61,30.69c1.24,0,2.25,1.01,2.25,2.25s-1.01,2.25-2.25,2.25-2.25-1.01-2.25-2.25,1.01-2.25,2.25-2.25ZM77.78,71.54c-1.24,0-2.25-1.01-2.25-2.25s1.01-2.25,2.25-2.25,2.25,1.01,2.25,2.25-1.01,2.25-2.25,2.25ZM82.09,53.62c-1.24,0-2.25-1.01-2.25-2.25s1.01-2.25,2.25-2.25,2.25,1.01,2.25,2.25-1.01,2.25-2.25,2.25Z"/>
</svg>