<?xml version="1.0" encoding="UTF-8"?>
<svg id="Layer_1" data-name="Layer 1" xmlns="http://www.w3.org/2000/svg" viewBox="0 0 100 100">
  <defs>
    <style>
      .cls-1 {
        fill: #eac40c;
      }
    </style>
  </defs>
  <g id="_111111ff" data-name="#111111ff">
    <path class="cls-1" d="M21.49,28.01c1.9-1.95,4.6-3.07,7.32-3.05,13.74-.02,27.48-.03,41.22,0,1.3,0,2.62,0,3.87.37,4.14,1.15,7.35,5.08,7.55,9.39.04,1.9,0,3.79.01,5.69,0,8.09,0,16.19,0,24.28.03,1.92-.49,3.86-1.52,5.48-1.58,2.63-4.42,4.4-7.45,4.79-2.16.14-4.34.09-6.5.1-10.96-.02-21.92,0-32.88,0-1.93-.03-3.86.06-5.79-.1-4.74-.51-8.7-4.89-8.79-9.65-.05-2.91,0-5.82-.02-8.72.01-7.16,0-14.32,0-21.48.03-2.63,1.11-5.22,2.96-7.09M37.22,30.92c-1.05,2.49-2.13,4.97-3.16,7.48.57.2,1.12.46,1.7.61.98-2.52,2.12-4.97,3.08-7.49-.53-.23-1.06-.46-1.62-.6M28.77,36.16c-1.73,2.18-3.42,4.39-5.16,6.56.4.46.94.78,1.4,1.18,2.42-3.15,4.91-6.25,7.32-9.41-.43-.42-.88-.81-1.36-1.17-.7.97-1.47,1.89-2.21,2.83M58.38,35.59c-.18.58-.31,1.17-.53,1.74,6.24,1.71,12.45,3.53,18.67,5.31.18-.59.35-1.18.51-1.77-3.86-1.15-7.73-2.26-11.61-3.35-2.35-.64-4.67-1.36-7.04-1.93M45.02,38.46c-4.6,6.05-9.31,12.02-13.93,18.05.5.4,1,.8,1.5,1.2,4.6-6.02,9.29-11.98,13.86-18.03-.47-.42-.95-.82-1.43-1.22M48,43.43c0,.61,0,1.22,0,1.83,3.66.01,7.31-.11,10.97-.09.01-.61,0-1.22,0-1.83-3.65,0-7.31.02-10.96.08M69.29,47.01c1.89.77,3.72,1.64,5.6,2.44.25-.54.5-1.07.71-1.62-1.85-.84-3.71-1.68-5.57-2.5-.24.56-.5,1.11-.73,1.68M24,55.68c-.51.85-1.05,1.68-1.51,2.55.55.26,1.05.61,1.6.87,1.51-2.67,3.16-5.26,4.7-7.92-.5-.3-.98-.63-1.5-.89-1.13,1.78-2.19,3.6-3.29,5.39M65.98,52.29c2.85,1.97,5.59,4.11,8.44,6.08.33-.48.69-.93,1.02-1.41-.66-.56-1.38-1.04-2.07-1.55-2.11-1.53-4.21-3.09-6.34-4.6-.37.48-.7.98-1.04,1.48M50.85,51.96c.04.62.02,1.24.07,1.85,3.38-.17,6.76-.44,10.14-.6,0-.62-.01-1.25-.07-1.87-3.38.16-6.76.44-10.14.61M34.53,62.51c.41.45.83.88,1.23,1.33,2.49-2.25,5.01-4.45,7.52-6.68-.32-.52-.77-.93-1.14-1.4-2.53,2.26-5.08,4.5-7.62,6.75M59.17,58.05c-.26.55-.53,1.1-.79,1.66.37.15.73.32,1.09.5,4.61,2.23,9.23,4.44,13.84,6.67.36.16.69.37,1.08.47.26-.55.55-1.08.77-1.64-3.05-1.48-6.11-2.94-9.17-4.41-2.27-1.08-4.52-2.21-6.81-3.24M24.83,66.3c.45.41.87.86,1.32,1.27,2.12-2.29,4.46-4.35,6.6-6.61-.44-.4-.83-.85-1.26-1.25-2.19,2.22-4.47,4.35-6.65,6.58M39.46,67.56c.3.52.62,1.03.89,1.57.38-.13.69-.41,1.04-.6,2.38-1.44,4.75-2.91,7.15-4.32-.28-.55-.57-1.1-.86-1.65-2.71,1.71-5.5,3.3-8.22,5.01M56.18,64.81c-.19.58-.34,1.17-.51,1.75,3.26,1.02,6.52,2.04,9.79,3.03.2-.58.33-1.18.48-1.77-3.24-1.03-6.5-2-9.75-3.01Z"/>
  </g>
</svg>