<?xml version="1.0" encoding="UTF-8"?>
<svg id="Layer_1" data-name="Layer 1" xmlns="http://www.w3.org/2000/svg" viewBox="0 0 100 78.4">
  <defs>
    <style>
      .cls-1 {
        fill: #eac40c;
      }
    </style>
  </defs>
  <g id="_111111ff" data-name="#111111ff">
    <path class="cls-1" d="M10.12,8.43c2.66-2.73,6.44-4.29,10.24-4.26,19.22-.03,38.45-.04,57.67-.01,1.81,0,3.66,0,5.42.52,5.79,1.61,10.28,7.1,10.56,13.13.05,2.65,0,5.31.02,7.96,0,11.32.01,22.65,0,33.97.05,2.69-.69,5.4-2.13,7.67-2.21,3.68-6.19,6.16-10.42,6.7-3.03.2-6.07.13-9.1.14-15.34-.02-30.67,0-46.01,0-2.7-.04-5.4.09-8.09-.14-6.64-.71-12.17-6.85-12.29-13.51-.07-4.07,0-8.14-.02-12.21.01-10.02,0-20.04.01-30.05.04-3.67,1.56-7.3,4.14-9.91M32.12,12.51c-1.47,3.49-2.98,6.96-4.42,10.46.79.28,1.56.64,2.38.86,1.37-3.52,2.97-6.95,4.31-10.48-.74-.32-1.49-.64-2.27-.84M20.29,19.84c-2.42,3.05-4.78,6.14-7.22,9.18.56.65,1.32,1.09,1.97,1.65,3.38-4.41,6.87-8.74,10.24-13.16-.6-.59-1.24-1.13-1.9-1.63-.98,1.36-2.06,2.64-3.09,3.97M61.72,19.04c-.25.81-.44,1.64-.74,2.43,8.73,2.4,17.42,4.94,26.13,7.43.25-.82.49-1.65.71-2.48-5.4-1.62-10.82-3.16-16.25-4.69-3.28-.9-6.54-1.91-9.85-2.7M43.04,23.05c-6.44,8.46-13.02,16.81-19.48,25.26.7.56,1.4,1.12,2.1,1.68,6.44-8.42,13-16.76,19.39-25.23-.65-.59-1.34-1.14-2.01-1.71M47.21,30c-.01.85-.01,1.71,0,2.56,5.11.01,10.23-.15,15.34-.12.02-.85.01-1.71,0-2.56-5.11.01-10.22.02-15.33.11M76.99,35.02c2.64,1.07,5.21,2.3,7.83,3.41.35-.75.7-1.49.99-2.27-2.59-1.18-5.18-2.36-7.8-3.49-.33.79-.7,1.56-1.03,2.35M13.62,47.15c-.71,1.19-1.46,2.35-2.11,3.57.77.36,1.47.86,2.24,1.22,2.11-3.74,4.42-7.36,6.57-11.08-.7-.42-1.37-.88-2.11-1.25-1.57,2.49-3.06,5.04-4.6,7.54M72.36,42.4c3.99,2.76,7.82,5.75,11.8,8.51.46-.67.96-1.3,1.42-1.97-.92-.78-1.92-1.46-2.9-2.17-2.96-2.14-5.89-4.32-8.87-6.43-.51.67-.98,1.37-1.46,2.07M51.18,41.94c.05.86.03,1.73.1,2.59,4.73-.23,9.45-.62,14.18-.84.01-.87-.02-1.75-.09-2.61-4.73.22-9.46.61-14.19.86M28.35,56.7c.57.62,1.16,1.23,1.72,1.86,3.48-3.14,7.01-6.23,10.52-9.34-.44-.72-1.07-1.3-1.59-1.96-3.54,3.16-7.1,6.29-10.65,9.44M62.83,50.46c-.36.77-.74,1.54-1.11,2.32.51.21,1.02.45,1.52.69,6.45,3.12,12.91,6.22,19.36,9.33.5.23.97.52,1.51.66.37-.76.77-1.51,1.07-2.3-4.27-2.07-8.55-4.11-12.83-6.16-3.17-1.51-6.32-3.09-9.52-4.54M14.78,62c.63.57,1.21,1.2,1.84,1.78,2.96-3.2,6.24-6.08,9.23-9.25-.61-.56-1.16-1.19-1.77-1.74-3.06,3.11-6.26,6.09-9.3,9.21M35.26,63.76c.43.72.87,1.44,1.24,2.2.54-.18.96-.57,1.45-.85,3.33-2.01,6.64-4.08,10-6.05-.39-.77-.8-1.54-1.2-2.31-3.8,2.39-7.7,4.61-11.49,7.01M58.65,59.92c-.26.81-.47,1.63-.72,2.44,4.56,1.42,9.12,2.85,13.69,4.24.28-.81.46-1.65.67-2.48-4.53-1.44-9.09-2.8-13.64-4.2Z"/>
  </g>
</svg>