<?xml version="1.0" encoding="UTF-8"?>
<svg id="Ebene_1" data-name="Ebene 1" xmlns="http://www.w3.org/2000/svg" viewBox="0 0 3000 3000">
  <defs>
    <style>
      .cls-1 {
        fill: #3a3937;
        font-family: MyriadPro-Bold, 'Myriad Pro';
        font-size: 387.63px;
        font-weight: 700;
      }

      .cls-2 {
        letter-spacing: 0em;
      }

      .cls-3 {
        fill: #6b604d;
      }

      .cls-4 {
        fill: #ffc840;
      }

      .cls-5 {
        letter-spacing: -.03em;
      }

      .cls-6 {
        letter-spacing: 0em;
      }
    </style>
  </defs>
  <path class="cls-4" d="M1574.54,280.81l106.17,55.08c18.99,16.11,98.91,83.09,148.48,112.27,26.22,15.41,53.5,23.55,79.89,31.41,31.61,9.43,58.92,17.58,77.52,36.15l131.14,131.07,73.36,143.09c3.8,7.44,9.63,13.71,16.81,18.05l179.03,107.87,98.5,98.44c-7.16-7.16-111.97,22.38-127.54,24.35-51.87,6.57-103.82,12.55-155.83,17.93-104.02,10.75-208.28,19.09-312.69,25.02-208.81,11.86-418.16,14.07-627.17,6.59-243.25-8.69-493.81-16.67-732.53-69.3-1.98-.43-4.01-.85-5.96-1.29-4.51-.95-8.54-1.91-12.85-2.87l38.31-38.28,135.56-84.67c5.57-3.46,10.28-8.09,13.86-13.54l94.01-144.02,124.34-89.12c4.1-2.93,7.68-6.56,10.58-10.66l85.34-121.35c42.69-42.19,90.33-78.52,141.71-108.05l151.79-19.98c8.14-1.05,15.82-4.34,22.24-9.43l100.63-80.45c41.37-33.05,98.47-38.73,145.31-14.3"/>
  <path class="cls-4" d="M1369.02,247.67c-30.27,24.2-60.55,48.4-90.82,72.6l-148.04,19.51c-5.65.7-11.1,2.52-16.08,5.27-62.55,34.92-120.27,78.63-171.56,129.9-1.82,1.82-3.52,3.81-4.98,5.92l-83.23,118.36-124.98,89.59c-4.54,3.22-8.41,7.32-11.46,11.95l-93.19,142.73s-123.13,71.05-123.13,71.05c-70.22,11.61-8.07,11.67-74.98,36.37-25.72,9.5,166.73-64.6,142.41-50.69-25.08,14.35,17.44-45.03-3.97-25.82-4.44,3.98-124.11,96.31-128.5,100.34-49.8,45,94.06-150.45,106.66-84.45,9.71,51.31-41.58-28.23,0,0-22.71,149.31-177.17,55.16-176.79,63.35.82,17.95,89.36-130.57,124.76,53.63,7.8,40.8,193.35,15.04,151.35,24.04-76.8,16.2,144.16-79.97,144.16-3.17,0,15.6,2.51,30.76,6,40.8,8.34,23.98,98.6,16.65,185.61-1.35,78.6-16.8,171.56,34.2,265.16,21.6,82.2-11.4,76.59-31.7,148.59-4.1,195.6,74.4,110.75,9.31,370.55,9.31s100.7,44.01,295.7-29.79c72.6-27.6,43.3,8.34,125.5,19.74,87.6,12-9.02-48.37,67.78-32.77,83.4,17.4,88.9,74.09,117.7-.91,18-45.6-23.03,49.06-46.43,6.46-23.4-43.2,111.66-19.34,63.06-29.54-40.8-8.4,102.54,29.42,109.74-10.18,36.6-184.8-11.32,164.63-11.32-33.97,0-156.02,27.98,121.86,5.36-27.6,40.99-28.41-184.71,150.72-175.55,99.85,2.4-12,240.21-90.41,240.21-102.41,0-54-130.51,74.92-171.91,38.32-20.78-18.4,42.2,74.11,19.86,57.6-32.01-23.65,11.74,20.47-25.82,7.94-44.52-14.84,216.46-103.55,170.42-112.43l-274.1-180.99-82.12-141.41c-2.14-4.22-4.92-8.03-8.23-11.31l-136.14-136.05c-34.69-34.69-77.58-47.46-115.43-58.77-22.24-6.62-43.22-12.89-60-22.74-48.46-28.53-138.64-105.64-139.54-106.41-50.87-38.8-135.11-67.72-179.42-78.39-20.53-4.94-41.81-5.79-62.67-2.5-43.72,6.89-115.37,26.47-120.16,41.52"/>
  <path class="cls-3" d="M2237.74,705.26c3.8,7.44,11.07,40.73,18.25,45.06l121.71,125.59,98.5,98.44c-7.16-7.16-111.97,22.38-127.54,24.35-51.87,6.57-103.82,12.55-155.83,17.93-104.02,10.75-208.28,19.09-312.69,25.02-208.81,11.86-418.16,14.07-627.17,6.59-243.25-8.69-493.81-16.67-732.53-69.3-1.98-.43-4.01-.85-5.96-1.29-4.51-.95-8.54-1.91-12.85-2.87l38.31-38.28,115.05-102.76c4.57-2.84,17.32-48.94,23.7-68.33.53-1.6-1.53-2.77-2.64-1.49l-28.51,12.47s-40.12,11.87-40.12,11.87c-70.22,11.61-140.27,26.39-207.17,51.09-25.72,9.5-52.49,20.46-76.8,34.36-25.08,14.35-46.69,34.39-68.11,53.59-4.44,3.98-8.86,8-13.26,12.03-49.8,45-72,111.6-59.4,177.6,9.71,51.31,38.93,94.41,80.51,122.64-22.71,149.31-34.91,302.13-34.91,457.56,0,197.4,18.6,391.2,54,575.4,7.8,40.8-18.6,81-60.6,90-76.8,16.2-132.6,84-132.6,160.8,0,15.6,3,30.6,6,40.8,21,86.4,106.8,139.2,193.8,121.2,78.6-16.8,166.2-31.8,259.8-44.4,82.2-11.4,164.4-3,236.4,24.6,195.6,74.4,446.4,115.2,706.2,115.2s510.6-40.8,705.6-114.6c72.6-27.6,154.2-36,236.4-24.6,87.6,12,171,26.4,247.8,42,83.4,17.4,165.6-24.6,194.4-99.6,18-45.6,15-96.6-8.4-139.2-23.4-43.2-64.2-73.2-112.8-83.4-40.8-8.4-66.6-46.8-59.4-86.4,36.6-184.8,54.6-379.2,54.6-577.8,0-156.02-11.75-309.4-34.37-458.86,40.99-28.41,69.61-71.67,78.77-122.54,2.4-12,3.6-24,3.6-36,0-54-22.8-105.6-64.2-142.2-20.78-18.4-41.8-36.74-64.14-53.25-32.01-23.65-72.44-39.55-110-52.08-44.52-14.84-90.44-25.39-136.48-34.27M302.67,1005.93c5.43-4.97,9.44-8.54,14.14-12.77,171.74,140.58,991.74,148.37,1171.46,148.37s1000.47-7.8,1171.7-148.56c4.44,3.92,8.22,7.2,13.3,11.76,26.4,24,38.4,59.4,32.4,94.8-6.6,35.4-30.6,64.2-64.2,76.8-99.6,38.4-219.6,55.2-307.8,67.2-223.8,30.6-523.8,48-845.4,48s-621.6-17.4-846.6-48.6c-92.4-12.6-207.6-28.2-306.6-66-33-12.6-57-41.4-63.6-76.8-7.2-34.8,4.8-70.2,31.2-94.2Z"/>
  <text class="cls-1" transform="translate(1076.79 2072.23) scale(.84 1)"><tspan class="cls-5" x="0" y="0">F</tspan><tspan class="cls-2" x="193.43" y="0">ut</tspan><tspan class="cls-6" x="561.67" y="0">t</tspan><tspan x="701.99" y="0">er</tspan></text>
</svg>